{
.appVersion = "1230";
DisplayStrings = (
noHO
);
copyright = "Copyright 2014 The ComicNeue Project Authors (https://github.com/crozynski/comicneue)";
customParameters = (
{
name = fsType;
value = (
);
},
{
name = license;
value = "This Font Software is licensed under the SIL Open Font License, Version 1.1. This license is available with a FAQ at: http://scripts.sil.org/OFL";
},
{
name = licenseURL;
value = "http://scripts.sil.org/OFL";
},
{
name = macintoshFONDName;
value = "Comic Neue";
},
{
name = note;
value = "";
},
{
name = openTypeNameUniqueID;
value = "2.003;;Comic Neue Bold";
},
{
name = openTypeNameVersion;
value = "Version 2.003";
},
{
name = codePageRanges;
value = (
1252,
1250
);
},
{
name = openTypeOS2FamilyClass;
value = (
0,
0
);
},
{
name = openTypeOS2Panose;
value = (
2,
0,
0,
0,
0,
0,
0,
0,
0,
0
);
},
{
name = openTypeOS2StrikeoutPosition;
value = 300;
},
{
name = openTypeOS2StrikeoutSize;
value = 50;
},
{
name = openTypeOS2SubscriptXOffset;
value = 0;
},
{
name = openTypeOS2SubscriptXSize;
value = 650;
},
{
name = openTypeOS2SubscriptYOffset;
value = 75;
},
{
name = openTypeOS2SubscriptYSize;
value = 600;
},
{
name = openTypeOS2SuperscriptXOffset;
value = 0;
},
{
name = openTypeOS2SuperscriptXSize;
value = 650;
},
{
name = openTypeOS2SuperscriptYOffset;
value = 350;
},
{
name = openTypeOS2SuperscriptYSize;
value = 600;
},
{
name = unicodeRanges;
value = (
0,
1,
2
);
},
{
name = blueFuzz;
value = 1;
},
{
name = blueScale;
value = 0.03963;
},
{
name = blueShift;
value = 7;
},
{
name = postscriptForceBold;
value = 1;
},
{
name = trademark;
value = "-";
}
);
date = "2016-09-14 09:51:55 +0000";
designer = "Craig Rozynski";
designerURL = "http://www.craigrozynski.com";
disablesNiceNames = 1;
familyName = "Comic Neue";
featurePrefixes = (
{
code = "languagesystem DFLT dflt;\012languagesystem latn dflt;\012";
name = Languagesystems;
},
{

glyphs = (
{
glyphname = A;
layers = (
{
layerId = master01;
paths = (
{
closed = 1;
nodes = (
"578 67 LINE SMOOTH",
"580 61 OFFCURVE",
"581 53 OFFCURVE",
"581 48 CURVE SMOOTH",
"581 22 OFFCURVE",
"561 -1 OFFCURVE",
"531 -1 CURVE SMOOTH",
"507 -1 OFFCURVE",
"493 8 OFFCURVE",
"484 33 CURVE SMOOTH",
"412 241 LINE",
"208 196 LINE",
"143 32 LINE SMOOTH",
"136 15 OFFCURVE",
"121 0 OFFCURVE",
"97 0 CURVE SMOOTH",
"67 0 OFFCURVE",
"47 25 OFFCURVE",
"47 49 CURVE SMOOTH",
"47 56 OFFCURVE",
"48 62 OFFCURVE",
"50 67 CURVE SMOOTH",
"94 177 LINE",
"73 184 OFFCURVE",
"59 201 OFFCURVE",
"59 225 CURVE SMOOTH",
"59 249 OFFCURVE",
"75 268 OFFCURVE",
"97 273 CURVE SMOOTH",
"134 281 LINE",
"282 657 LINE SMOOTH",
"290 677 OFFCURVE",
"309 688 OFFCURVE",
"329 688 CURVE SMOOTH",
"349 688 OFFCURVE",
"367 679 OFFCURVE",
"375 655 CURVE SMOOTH"
);
},
{
closed = 1;
nodes = (
"379 334 LINE",
"325 495 LINE",
"250 306 LINE"
);
}
);
userData = {
com.fontlab.hintData = {
hhints = (
{
position = 0;
width = 20;
},
{
position = 668;
width = 20;
}
);
};
};
width = 650;
}
);
unicode = 0041;
},
{
glyphname = Aacute;
layers = (
{
layerId = master01;
paths = (
{
closed = 1;
nodes = (
"578 67 LINE SMOOTH",
"580 61 OFFCURVE",
"581 53 OFFCURVE",
"581 48 CURVE SMOOTH",
"581 22 OFFCURVE",
"561 -1 OFFCURVE",
"531 -1 CURVE SMOOTH",
"507 -1 OFFCURVE",
"493 8 OFFCURVE",
"484 33 CURVE SMOOTH",
"412 241 LINE",
"208 196 LINE",
"143 32 LINE SMOOTH",
"136 15 OFFCURVE",
"121 0 OFFCURVE",
"97 0 CURVE SMOOTH",
"67 0 OFFCURVE",
"47 25 OFFCURVE",
"47 49 CURVE SMOOTH",
"47 56 OFFCURVE",
"48 62 OFFCURVE",
"50 67 CURVE SMOOTH",
"94 177 LINE",
"73 184 OFFCURVE",
"59 201 OFFCURVE",
"59 225 CURVE SMOOTH",
"59 249 OFFCURVE",
"75 268 OFFCURVE",
"97 273 CURVE SMOOTH",
"134 281 LINE",
"282 657 LINE SMOOTH",
"290 677 OFFCURVE",
"309 688 OFFCURVE",
"329 688 CURVE SMOOTH",
"349 688 OFFCURVE",
"367 679 OFFCURVE",
"375 655 CURVE SMOOTH"
);
},
{
closed = 1;
nodes = (
"379 334 LINE",
"325 495 LINE",
"250 306 LINE"
);
},
{
closed = 1;
nodes = (
"338 883 LINE SMOOTH",
"348 891 OFFCURVE",
"362 902 OFFCURVE",
"379 902 CURVE SMOOTH",
"409 902 OFFCURVE",
"432 878 OFFCURVE",
"432 847 CURVE SMOOTH",
"432 832 OFFCURVE",
"427 817 OFFCURVE",
"413 807 CURVE SMOOTH",
"289 722 LINE SMOOTH",
"279 715 OFFCURVE",
"267 709 OFFCURVE",
"256 709 CURVE SMOOTH",
"232 709 OFFCURVE",
"210 730 OFFCURVE",
"210 757 CURVE SMOOTH",
"210 768 OFFCURVE",
"212 781 OFFCURVE",
"223 790 CURVE SMOOTH"
);
}
);
userData = {
com.fontlab.hintData = {
hhints = (
{
position = 0;
width = 20;
},
{
position = 668;
width = 20;
}
);
};
};
width = 650;
}
);
unicode = 00C1;
},
{
glyphname = Abreve;
layers = (
{
layerId = master01;
paths = (
{
closed = 1;
nodes = (
"578 67 LINE SMOOTH",
"580 61 OFFCURVE",
"581 53 OFFCURVE",
"581 48 CURVE SMOOTH",
"581 22 OFFCURVE",
"561 -1 OFFCURVE",
"531 -1 CURVE SMOOTH",
"507 -1 OFFCURVE",
"493 8 OFFCURVE",
"484 33 CURVE SMOOTH",
"412 241 LINE",
"208 196 LINE",
"143 32 LINE SMOOTH",
"136 15 OFFCURVE",
"121 0 OFFCURVE",
"97 0 CURVE SMOOTH",
"67 0 OFFCURVE",
"47 25 OFFCURVE",
"47 49 CURVE SMOOTH",
"47 56 OFFCURVE",
"48 62 OFFCURVE",
"50 67 CURVE SMOOTH",
"94 177 LINE",
"73 184 OFFCURVE",
"59 201 OFFCURVE",
"59 225 CURVE SMOOTH",
"59 249 OFFCURVE",
"75 268 OFFCURVE",
"97 273 CURVE SMOOTH",
"134 281 LINE",
"282 657 LINE SMOOTH",
"290 677 OFFCURVE",
"309 688 OFFCURVE",
"329 688 CURVE SMOOTH",
"349 688 OFFCURVE",
"367 679 OFFCURVE",
"375 655 CURVE SMOOTH"
);
},
{
closed = 1;
nodes = (
"379 334 LINE",
"325 495 LINE",
"250 306 LINE"
);
},
{
closed = 1;
nodes = (
"156 851 OFFCURVE",
"158 873 OFFCURVE",
"195 873 CURVE SMOOTH",
"216 873 OFFCURVE",
"229 856 OFFCURVE",
"235 844 CURVE SMOOTH",
"252 808 OFFCURVE",
"296 796 OFFCURVE",
"324 796 CURVE SMOOTH",
"360 796 OFFCURVE",
"385 810 OFFCURVE",
"399 844 CURVE SMOOTH",
"407 863 OFFCURVE",
"415 878 OFFCURVE",
"441 878 CURVE SMOOTH",
"461 878 OFFCURVE",
"479 860 OFFCURVE",
"479 840 CURVE SMOOTH",
"479 791 OFFCURVE",
"423 709 OFFCURVE",
"322 709 CURVE SMOOTH",
"198 709 OFFCURVE",
"156 810 OFFCURVE",
"156 836 CURVE SMOOTH"
);
}
);
userData = {
com.fontlab.hintData = {
hhints = (
{
position = 0;
width = 20;
},
{
position = 668;
width = 20;
},
{
position = 709;
width = 87;
}
);
vhints = (
{
position = 156;
width = 79;
},
{
position = 399;
width = 80;
}
);
};
};
width = 650;
}
);
unicode = 0102;
},
{
glyphname = Acircumflex;
layers = (
{
layerId = master01;
paths = (
{
closed = 1;
nodes = (
"578 67 LINE SMOOTH",
"580 61 OFFCURVE",
"581 53 OFFCURVE",
"581 48 CURVE SMOOTH",
"581 22 OFFCURVE",
"561 -1 OFFCURVE",
"531 -1 CURVE SMOOTH",
"507 -1 OFFCURVE",
"493 8 OFFCURVE",
"484 33 CURVE SMOOTH",
"412 241 LINE",
"208 196 LINE",
"143 32 LINE SMOOTH",
"136 15 OFFCURVE",
"121 0 OFFCURVE",
"97 0 CURVE SMOOTH",
"67 0 OFFCURVE",
"47 25 OFFCURVE",
"47 49 CURVE SMOOTH",
"47 56 OFFCURVE",
"48 62 OFFCURVE",
"50 67 CURVE SMOOTH",
"94 177 LINE",
"73 184 OFFCURVE",
"59 201 OFFCURVE",
"59 225 CURVE SMOOTH",
"59 249 OFFCURVE",
"75 268 OFFCURVE",
"97 273 CURVE SMOOTH",
"134 281 LINE",
"282 657 LINE SMOOTH",
"290 677 OFFCURVE",
"309 688 OFFCURVE",
"329 688 CURVE SMOOTH",
"349 688 OFFCURVE",
"367 679 OFFCURVE",
"375 655 CURVE SMOOTH"
);
},
{
closed = 1;
nodes = (
"379 334 LINE",
"325 495 LINE",
"250 306 LINE"
);
},
{
closed = 1;
nodes = (
"305 886 LINE SMOOTH",
"316 895 OFFCURVE",
"328 898 OFFCURVE",
"337 898 CURVE SMOOTH",
"349 898 OFFCURVE",
"363 892 OFFCURVE",
"375 880 CURVE SMOOTH",
"471 784 LINE SMOOTH",
"481 774 OFFCURVE",
"485 763 OFFCURVE",
"485 750 CURVE SMOOTH",
"485 725 OFFCURVE",
"464 703 OFFCURVE",
"439 703 CURVE SMOOTH",
"427 703 OFFCURVE",
"417 705 OFFCURVE",
"406 715 CURVE SMOOTH",
"333 781 LINE",
"244 712 LINE SMOOTH",
"233 704 OFFCURVE",
"225 703 OFFCURVE",
"215 703 CURVE SMOOTH",
"190 703 OFFCURVE",
"168 723 OFFCURVE",
"168 750 CURVE SMOOTH",
"168 763 OFFCURVE",
"174 776 OFFCURVE",
"186 786 CURVE SMOOTH"
);
}
);
userData = {
com.fontlab.hintData = {
hhints = (
{
position = 0;
width = 20;
},
{
position = 668;
width = 20;
}
);
};
};
width = 650;
}
);
unicode = 00C2;
},
{
glyphname = Adieresis;
layers = (
{
layerId = master01;
paths = (
{
closed = 1;
nodes = (
"301 732 OFFCURVE",
"270 703 OFFCURVE",
"230 703 CURVE SMOOTH",
"194 703 OFFCURVE",
"165 727 OFFCURVE",
"165 762 CURVE SMOOTH",
"165 796 OFFCURVE",
"196 827 OFFCURVE",
"236 827 CURVE SMOOTH",
"269 827 OFFCURVE",
"301 801 OFFCURVE",
"301 767 CURVE SMOOTH"
);
},
{
closed = 1;
nodes = (
"489 732 OFFCURVE",
"458 703 OFFCURVE",
"418 703 CURVE SMOOTH",
"382 703 OFFCURVE",
"353 727 OFFCURVE",
"353 762 CURVE SMOOTH",
"353 796 OFFCURVE",
"385 827 OFFCURVE",
"424 827 CURVE SMOOTH",
"457 827 OFFCURVE",
"489 801 OFFCURVE",
"489 767 CURVE SMOOTH"
);
},
{
closed = 1;
nodes = (
"578 67 LINE SMOOTH",
"580 61 OFFCURVE",
"581 53 OFFCURVE",
"581 48 CURVE SMOOTH",
"581 22 OFFCURVE",
"561 -1 OFFCURVE",
"531 -1 CURVE SMOOTH",
"507 -1 OFFCURVE",
"493 8 OFFCURVE",
"484 33 CURVE SMOOTH",
"412 241 LINE",
"208 196 LINE",
"143 32 LINE SMOOTH",
"136 15 OFFCURVE",
"121 0 OFFCURVE",
"97 0 CURVE SMOOTH",
"67 0 OFFCURVE",
"47 25 OFFCURVE",
"47 49 CURVE SMOOTH",
"47 56 OFFCURVE",
"48 62 OFFCURVE",
"50 67 CURVE SMOOTH",
"94 177 LINE",
"73 184 OFFCURVE",
"59 201 OFFCURVE",
"59 225 CURVE SMOOTH",
"59 249 OFFCURVE",
"75 268 OFFCURVE",
"97 273 CURVE SMOOTH",
"134 281 LINE",
"282 657 LINE SMOOTH",
"290 677 OFFCURVE",
"309 688 OFFCURVE",
"329 688 CURVE SMOOTH",
"349 688 OFFCURVE",
"367 679 OFFCURVE",
"375 655 CURVE SMOOTH"
);
},
{
closed = 1;
nodes = (
"379 334 LINE",
"325 495 LINE",
"250 306 LINE"
);
}
);
userData = {
com.fontlab.hintData = {
hhints = (
{
position = 0;
width = 20;
},
{
position = 668;
width = 20;
},
{
position = 703;
width = 124;
}
);
vhints = (
{
position = 165;
width = 136;
},
{
position = 353;
width = 136;
}
);
};
};
width = 650;
}
);
unicode = 00C4;
},
{
glyphname = Agrave;
layers = (
{
layerId = master01;
paths = (
{
closed = 1;
nodes = (
"578 67 LINE SMOOTH",
"580 61 OFFCURVE",
"581 53 OFFCURVE",
"581 48 CURVE SMOOTH",
"581 22 OFFCURVE",
"561 -1 OFFCURVE",
"531 -1 CURVE SMOOTH",
"507 -1 OFFCURVE",
"493 8 OFFCURVE",
"484 33 CURVE SMOOTH",
"412 241 LINE",
"208 196 LINE",
"143 32 LINE SMOOTH",
"136 15 OFFCURVE",
"121 0 OFFCURVE",
"97 0 CURVE SMOOTH",
"67 0 OFFCURVE",
"47 25 OFFCURVE",
"47 49 CURVE SMOOTH",
"47 56 OFFCURVE",
"48 62 OFFCURVE",
"50 67 CURVE SMOOTH",
"94 177 LINE",
"73 184 OFFCURVE",
"59 201 OFFCURVE",
"59 225 CURVE SMOOTH",
"59 249 OFFCURVE",
"75 268 OFFCURVE",
"97 273 CURVE SMOOTH",
"134 281 LINE",
"282 657 LINE SMOOTH",
"290 677 OFFCURVE",
"309 688 OFFCURVE",
"329 688 CURVE SMOOTH",
"349 688 OFFCURVE",
"367 679 OFFCURVE",
"375 655 CURVE SMOOTH"
);
},
{
closed = 1;
nodes = (
"379 334 LINE",
"325 495 LINE",
"250 306 LINE"
);
},
{
closed = 1;
nodes = (
"238 824 LINE SMOOTH",
"228 834 OFFCURVE",
"222 846 OFFCURVE",
"222 862 CURVE SMOOTH",
"222 890 OFFCURVE",
"248 916 OFFCURVE",
"276 916 CURVE SMOOTH",
"294 916 OFFCURVE",
"310 906 OFFCURVE",
"320 894 CURVE SMOOTH",
"415 775 LINE SMOOTH",
"424 763 OFFCURVE",
"427 755 OFFCURVE",
"427 745 CURVE SMOOTH",
"427 718 OFFCURVE",
"403 698 OFFCURVE",
"379 698 CURVE SMOOTH",
"364 698 OFFCURVE",
"353 704 OFFCURVE",
"345 713 CURVE SMOOTH"
);
}
);
userData = {
com.fontlab.hintData = {
hhints = (
{
position = 0;
width = 20;
},
{
position = 668;
width = 20;
}
);
};
};
width = 650;
}
);
unicode = 00C0;
},
{
glyphname = Aogonek;
layers = (
{
layerId = master01;
paths = (
{
closed = 1;
nodes = (
"456 -196 OFFCURVE",
"405 -147 OFFCURVE",
"405 -79 CURVE SMOOTH",
"405 -26 OFFCURVE",
"440 18 OFFCURVE",
"479 46 CURVE",
"412 241 LINE",
"208 196 LINE",
"143 32 LINE SMOOTH",
"136 15 OFFCURVE",
"121 0 OFFCURVE",
"97 0 CURVE SMOOTH",
"67 0 OFFCURVE",
"47 25 OFFCURVE",
"47 49 CURVE SMOOTH",
"47 56 OFFCURVE",
"48 62 OFFCURVE",
"50 67 CURVE SMOOTH",
"94 177 LINE",
"73 184 OFFCURVE",
"59 201 OFFCURVE",
"59 225 CURVE SMOOTH",
"59 249 OFFCURVE",
"75 268 OFFCURVE",
"97 273 CURVE SMOOTH",
"134 281 LINE",
"282 657 LINE SMOOTH",
"290 677 OFFCURVE",
"309 688 OFFCURVE",
"329 688 CURVE SMOOTH",
"349 688 OFFCURVE",
"367 679 OFFCURVE",
"375 655 CURVE SMOOTH",
"578 67 LINE SMOOTH",
"581.121 57.637 OFFCURVE",
"582.51 49.227 OFFCURVE",
"582.51 41.597 CURVE SMOOTH",
"582.51 12.559 OFFCURVE",
"562.382 -5.161 OFFCURVE",
"541 -21 CURVE SMOOTH",
"522 -35 OFFCURVE",
"496 -54 OFFCURVE",
"496 -80 CURVE SMOOTH",
"496 -95 OFFCURVE",
"509 -104 OFFCURVE",
"524 -104 CURVE SMOOTH",
"537 -104 OFFCURVE",
"552 -100 OFFCURVE",
"564 -90 CURVE SMOOTH",
"575 -82 OFFCURVE",
"583 -80 OFFCURVE",
"593 -80 CURVE SMOOTH",
"614 -80 OFFCURVE",
"637 -102 OFFCURVE",
"637 -126 CURVE SMOOTH",
"637 -168 OFFCURVE",
"563 -196 OFFCURVE",
"524 -196 CURVE SMOOTH"
);
},
{
closed = 1;
nodes = (
"379 334 LINE",
"325 495 LINE",
"250 306 LINE"
);
}
);
userData = {
com.fontlab.hintData = {
hhints = (
{
position = -196;
width = 92;
},
{
position = 0;
width = 21;
},
{
position = 668;
width = 20;
}
);
vhints = (
{
position = 405;
width = 91;
}
);
};
};
width = 650;
}
);
unicode = 0104;
},
{
glyphname = Aring;
layers = (
{
layerId = master01;
paths = (
{
closed = 1;
nodes = (
"253 712 OFFCURVE",
"194 754 OFFCURVE",
"194 820 CURVE SMOOTH",
"194 897 OFFCURVE",
"269 942 OFFCURVE",
"344 942 CURVE SMOOTH",
"412 942 OFFCURVE",
"473 900 OFFCURVE",
"473 833 CURVE SMOOTH",
"473 755 OFFCURVE",
"397 712 OFFCURVE",
"324 712 CURVE SMOOTH"
);
},
{
closed = 1;
nodes = (
"304 862 OFFCURVE",
"280 838 OFFCURVE",
"280 820 CURVE SMOOTH",
"280 802 OFFCURVE",
"302 791 OFFCURVE",
"332 791 CURVE SMOOTH",
"355 791 OFFCURVE",
"387 806 OFFCURVE",
"387 831 CURVE SMOOTH",
"387 846 OFFCURVE",
"367 862 OFFCURVE",
"340 862 CURVE SMOOTH"
);
},
{
closed = 1;
nodes = (
"578 67 LINE SMOOTH",
"580 61 OFFCURVE",
"581 53 OFFCURVE",
"581 48 CURVE SMOOTH",
"581 22 OFFCURVE",
"561 -1 OFFCURVE",
"531 -1 CURVE SMOOTH",
"507 -1 OFFCURVE",
"493 8 OFFCURVE",
"484 33 CURVE SMOOTH",
"412 241 LINE",
"208 196 LINE",
"143 32 LINE SMOOTH",
"136 15 OFFCURVE",
"121 0 OFFCURVE",
"97 0 CURVE SMOOTH",
"67 0 OFFCURVE",
"47 25 OFFCURVE",
"47 49 CURVE SMOOTH",
"47 56 OFFCURVE",
"48 62 OFFCURVE",
"50 67 CURVE SMOOTH",
"94 177 LINE",
"73 184 OFFCURVE",
"59 201 OFFCURVE",
"59 225 CURVE SMOOTH",
"59 249 OFFCURVE",
"75 268 OFFCURVE",
"97 273 CURVE SMOOTH",
"134 281 LINE",
"282 657 LINE SMOOTH",
"290 677 OFFCURVE",
"309 688 OFFCURVE",
"329 688 CURVE SMOOTH",
"349 688 OFFCURVE",
"367 679 OFFCURVE",
"375 655 CURVE SMOOTH"
);
},
{
closed = 1;
nodes = (
"379 334 LINE",
"325 495 LINE",
"250 306 LINE"
);
}
);
userData = {
com.fontlab.hintData = {
hhints = (
{
position = 0;
width = 20;
},
{
position = 668;
width = 20;
},
{
position = 712;
width = 79;
},
{
position = 862;
width = 80;
}
);
vhints = (
{
position = 194;
width = 86;
},
{
position = 387;
width = 86;
}
);
};
};
width = 650;
}
);
unicode = 00C5;
},
{
glyphname = Atilde;
layers = (
{
layerId = master01;
paths = (
{
closed = 1;
nodes = (
"463 886 OFFCURVE",
"475 893 OFFCURVE",
"490 893 CURVE SMOOTH",
"509 893 OFFCURVE",
"529 883 OFFCURVE",
"529 860 CURVE SMOOTH",
"529 856 OFFCURVE",
"529 849 OFFCURVE",
"526 838 CURVE SMOOTH",
"516 807 OFFCURVE",
"481 705 OFFCURVE",
"380 705 CURVE SMOOTH",
"348 705 OFFCURVE",
"321 722 OFFCURVE",
"299 753 CURVE SMOOTH",
"283 776 OFFCURVE",
"272 788 OFFCURVE",
"257 788 CURVE SMOOTH",
"222 788 OFFCURVE",
"205 736 OFFCURVE",
"200 720 CURVE SMOOTH",
"195 705 OFFCURVE",
"186 698 OFFCURVE",
"171 698 CURVE SMOOTH",
"152 698 OFFCURVE",
"132 708 OFFCURVE",
"132 731 CURVE SMOOTH",
"132 735 OFFCURVE",
"132 742 OFFCURVE",
"135 753 CURVE SMOOTH",
"152 810 OFFCURVE",
"191 877 OFFCURVE",
"269 877 CURVE SMOOTH",
"308 877 OFFCURVE",
"334 860 OFFCURVE",
"356 829 CURVE SMOOTH",
"372 807 OFFCURVE",
"383 793 OFFCURVE",
"398 793 CURVE SMOOTH",
"419 793 OFFCURVE",
"445 817 OFFCURVE",
"459 871 CURVE SMOOTH"
);
},
{
closed = 1;
nodes = (
"578 67 LINE SMOOTH",
"580 61 OFFCURVE",
"581 53 OFFCURVE",
"581 48 CURVE SMOOTH",
"581 22 OFFCURVE",
"561 -1 OFFCURVE",
"531 -1 CURVE SMOOTH",
"507 -1 OFFCURVE",
"493 8 OFFCURVE",
"484 33 CURVE SMOOTH",
"412 241 LINE",
"208 196 LINE",
"143 32 LINE SMOOTH",
"136 15 OFFCURVE",
"121 0 OFFCURVE",
"97 0 CURVE SMOOTH",
"67 0 OFFCURVE",
"47 25 OFFCURVE",
"47 49 CURVE SMOOTH",
"47 56 OFFCURVE",
"48 62 OFFCURVE",
"50 67 CURVE SMOOTH",
"94 177 LINE",
"73 184 OFFCURVE",
"59 201 OFFCURVE",
"59 225 CURVE SMOOTH",
"59 249 OFFCURVE",
"75 268 OFFCURVE",
"97 273 CURVE SMOOTH",
"134 281 LINE",
"282 657 LINE SMOOTH",
"290 677 OFFCURVE",
"309 688 OFFCURVE",
"329 688 CURVE SMOOTH",
"349 688 OFFCURVE",
"367 679 OFFCURVE",
"375 655 CURVE SMOOTH"
);
},
{
closed = 1;
nodes = (
"379 334 LINE",
"325 495 LINE",
"250 306 LINE"
);
}
);
userData = {
com.fontlab.hintData = {
hhints = (
{
position = 0;
width = 20;
},
{
position = 668;
width = 20;
},
{
position = 705;
width = 88;
},
{
position = 788;
width = 89;
}
);
vhints = (
{
position = 132;
width = 68;
},
{
position = 459;
width = 70;
}
);
};
};
width = 650;
}
);
unicode = 00C3;
},
{
glyphname = AE;
layers = (
{
layerId = master01;
paths = (
{
closed = 1;
nodes = (
"480 660 LINE SMOOTH",
"486 668 OFFCURVE",
"497 681 OFFCURVE",
"516 681 CURVE SMOOTH",
"918 681 LINE SMOOTH",
"947 681 OFFCURVE",
"967 661 OFFCURVE",
"967 632 CURVE SMOOTH",
"967 607 OFFCURVE",
"947 584 OFFCURVE",
"918 584 CURVE SMOOTH",
"567 584 LINE",
"567 386 LINE",
"872 386 LINE SMOOTH",
"899 386 OFFCURVE",
"920 362 OFFCURVE",
"920 337 CURVE SMOOTH",
"920 309 OFFCURVE",
"899 288 OFFCURVE",
"872 288 CURVE SMOOTH",
"567 289 LINE",
"567 97 LINE",
"918 97 LINE SMOOTH",
"947 97 OFFCURVE",
"967 77 OFFCURVE",
"967 48 CURVE SMOOTH",
"967 21 OFFCURVE",
"947 0 OFFCURVE",
"918 0 CURVE SMOOTH",
"519 0 LINE SMOOTH",
"492 0 OFFCURVE",
"470 21 OFFCURVE",
"470 48 CURVE SMOOTH",
"470 279 LINE",
"301 243 LINE",
"141 17 LINE SMOOTH",
"131 3 OFFCURVE",
"116 -3 OFFCURVE",
"102 -3 CURVE SMOOTH",
"77 -3 OFFCURVE",
"54 20 OFFCURVE",
"54 45 CURVE SMOOTH",
"54 55 OFFCURVE",
"55 62 OFFCURVE",
"63 73 CURVE SMOOTH",
"173 229 LINE",
"159 238 OFFCURVE",
"149 254 OFFCURVE",
"149 272 CURVE SMOOTH",
"149 295 OFFCURVE",
"165 314 OFFCURVE",
"189 319 CURVE SMOOTH",
"246 331 LINE"
);
},
{
closed = 1;
nodes = (
"470 376 LINE",
"470 481 LINE",
"384 359 LINE"
);
}
);
userData = {
com.fontlab.hintData = {
hhints = (
{
position = 0;
width = 97;
},
{
position = 289;
width = 97;
},
{
position = 584;
width = 97;
}
);
vhints = (
{
position = 470;
width = 97;
}
);
};
};
width = 1066;
}
);
unicode = 00C6;
},
{
glyphname = B;
layers = (
{
layerId = master01;
paths = (
{
closed = 1;
nodes = (
"85 -2 OFFCURVE",
"61 7 OFFCURVE",
"61 53 CURVE SMOOTH",
"61 632 LINE SMOOTH",
"61 658 OFFCURVE",
"84 681 OFFCURVE",
"110 681 CURVE SMOOTH",
"280 681 LINE SMOOTH",
"484 681 OFFCURVE",
"507 533 OFFCURVE",
"507 501 CURVE SMOOTH",
"507 443 OFFCURVE",
"487 402 OFFCURVE",
"461 374 CURVE",
"529 342 OFFCURVE",
"562 290 OFFCURVE",
"562 213 CURVE SMOOTH",
"562 77 OFFCURVE",
"419 -2 OFFCURVE",
"120 -2 CURVE SMOOTH"
);
},
{
closed = 1;
nodes = (
"161 97 LINE",
"325 100 OFFCURVE",
"463 135 OFFCURVE",
"463 213 CURVE SMOOTH",
"463 280 OFFCURVE",
"390 307 OFFCURVE",
"329 307 CURVE SMOOTH",
"161 307 LINE"
);
},
{
closed = 1;
nodes = (
"161 407 LINE",
"320 407 LINE SMOOTH",
"371 407 OFFCURVE",
"408 453 OFFCURVE",
"408 498 CURVE SMOOTH",
"408 511 OFFCURVE",
"400 581 OFFCURVE",
"280 581 CURVE SMOOTH",
"161 581 LINE"
);
}
);
userData = {
com.fontlab.hintData = {
hhints = (
{
position = -2;
width = 99;
},
{
position = 307;
width = 100;
},
{
position = 581;
width = 100;
}
);
vhints = (
{
position = 61;
width = 100;
},
{
position = 408;
width = 99;
},
{
position = 463;
width = 99;
}
);
};
};
width = 629;
}
);
unicode = 0042;
},
{
glyphname = C;
layers = (
{
layerId = master01;
paths = (
{
closed = 1;
nodes = (
"521 41 OFFCURVE",
"436 -2 OFFCURVE",
"339 -2 CURVE SMOOTH",
"179 -2 OFFCURVE",
"47 128 OFFCURVE",
"47 299 CURVE SMOOTH",
"47 501 OFFCURVE",
"206 684 OFFCURVE",
"346 684 CURVE SMOOTH",
"404 684 OFFCURVE",
"449 669 OFFCURVE",
"479 653 CURVE",
"488 659 OFFCURVE",
"495 660 OFFCURVE",
"505 660 CURVE SMOOTH",
"533 660 OFFCURVE",
"555 639 OFFCURVE",
"555 611 CURVE SMOOTH",
"555 551 LINE SMOOTH",
"555 524 OFFCURVE",
"533 501 OFFCURVE",
"505 501 CURVE SMOOTH",
"478 501 OFFCURVE",
"457 521 OFFCURVE",
"455 547 CURVE",
"437 564 OFFCURVE",
"408 584 OFFCURVE",
"346 584 CURVE SMOOTH",
"253 584 OFFCURVE",
"147 441 OFFCURVE",
"147 299 CURVE SMOOTH",
"147 156 OFFCURVE",
"264 98 OFFCURVE",
"339 98 CURVE SMOOTH",
"399 98 OFFCURVE",
"455 119 OFFCURVE",
"499 177 CURVE SMOOTH",
"511 193 OFFCURVE",
"523 197 OFFCURVE",
"538 197 CURVE SMOOTH",
"564 197 OFFCURVE",
"588 179 OFFCURVE",
"588 147 CURVE SMOOTH",
"588 137 OFFCURVE",
"586 127 OFFCURVE",
"579 117 CURVE SMOOTH"
);
}
);
userData = {
com.fontlab.hintData = {
hhints = (
{
position = -2;
width = 100;
},
{
position = 501;
width = 159;
},
{
position = 584;
width = 100;
}
);
vhints = (
{
position = 47;
width = 100;
}
);
};
};
width = 658;
}
);
unicode = 0043;
},
{
glyphname = Cacute;
layers = (
{
layerId = master01;
paths = (
{
closed = 1;
nodes = (
"521 41 OFFCURVE",
"436 -2 OFFCURVE",
"339 -2 CURVE SMOOTH",
"179 -2 OFFCURVE",
"47 128 OFFCURVE",
"47 299 CURVE SMOOTH",
"47 501 OFFCURVE",
"206 684 OFFCURVE",
"346 684 CURVE SMOOTH",
"404 684 OFFCURVE",
"449 669 OFFCURVE",
"479 653 CURVE",
"488 659 OFFCURVE",
"495 660 OFFCURVE",
"505 660 CURVE SMOOTH",
"533 660 OFFCURVE",
"555 639 OFFCURVE",
"555 611 CURVE SMOOTH",
"555 551 LINE SMOOTH",
"555 524 OFFCURVE",
"533 501 OFFCURVE",
"505 501 CURVE SMOOTH",
"478 501 OFFCURVE",
"457 521 OFFCURVE",
"455 547 CURVE",
"437 564 OFFCURVE",
"408 584 OFFCURVE",
"346 584 CURVE SMOOTH",
"253 584 OFFCURVE",
"147 441 OFFCURVE",
"147 299 CURVE SMOOTH",
"147 156 OFFCURVE",
"264 98 OFFCURVE",
"339 98 CURVE SMOOTH",
"399 98 OFFCURVE",
"455 119 OFFCURVE",
"499 177 CURVE SMOOTH",
"511 193 OFFCURVE",
"523 197 OFFCURVE",
"538 197 CURVE SMOOTH",
"564 197 OFFCURVE",
"588 179 OFFCURVE",
"588 147 CURVE SMOOTH",
"588 137 OFFCURVE",
"586 127 OFFCURVE",
"579 117 CURVE SMOOTH"
);
},
{
closed = 1;
nodes = (
"365 883 LINE SMOOTH",
"375 891 OFFCURVE",
"389 902 OFFCURVE",
"406 902 CURVE SMOOTH",
"436 902 OFFCURVE",
"459 878 OFFCURVE",
"459 847 CURVE SMOOTH",
"459 832 OFFCURVE",
"454 817 OFFCURVE",
"440 807 CURVE SMOOTH",
"316 722 LINE SMOOTH",
"306 715 OFFCURVE",
"294 709 OFFCURVE",
"283 709 CURVE SMOOTH",
"259 709 OFFCURVE",
"237 730 OFFCURVE",
"237 757 CURVE SMOOTH",
"237 768 OFFCURVE",
"239 781 OFFCURVE",
"250 790 CURVE SMOOTH"
);
}
);
userData = {
com.fontlab.hintData = {
hhints = (
{
position = -2;
width = 100;
},
{
position = 501;
width = 159;
},
{
position = 584;
width = 100;
}
);
vhints = (
{
position = 47;
width = 100;
}
);
};
};
width = 658;
}
);
unicode = 0106;
},
{
glyphname = Ccaron;
layers = (
{
layerId = master01;
paths = (
{
closed = 1;
nodes = (
"521 41 OFFCURVE",
"436 -2 OFFCURVE",
"339 -2 CURVE SMOOTH",
"179 -2 OFFCURVE",
"47 128 OFFCURVE",
"47 299 CURVE SMOOTH",
"47 501 OFFCURVE",
"206 684 OFFCURVE",
"346 684 CURVE SMOOTH",
"404 684 OFFCURVE",
"449 669 OFFCURVE",
"479 653 CURVE",
"488 659 OFFCURVE",
"495 660 OFFCURVE",
"505 660 CURVE SMOOTH",
"533 660 OFFCURVE",
"555 639 OFFCURVE",
"555 611 CURVE SMOOTH",
"555 551 LINE SMOOTH",
"555 524 OFFCURVE",
"533 501 OFFCURVE",
"505 501 CURVE SMOOTH",
"478 501 OFFCURVE",
"457 521 OFFCURVE",
"455 547 CURVE",
"437 564 OFFCURVE",
"408 584 OFFCURVE",
"346 584 CURVE SMOOTH",
"253 584 OFFCURVE",
"147 441 OFFCURVE",
"147 299 CURVE SMOOTH",
"147 156 OFFCURVE",
"264 98 OFFCURVE",
"339 98 CURVE SMOOTH",
"399 98 OFFCURVE",
"455 119 OFFCURVE",
"499 177 CURVE SMOOTH",
"511 193 OFFCURVE",
"523 197 OFFCURVE",
"538 197 CURVE SMOOTH",
"564 197 OFFCURVE",
"588 179 OFFCURVE",
"588 147 CURVE SMOOTH",
"588 137 OFFCURVE",
"586 127 OFFCURVE",
"579 117 CURVE SMOOTH"
);
},
{
closed = 1;
nodes = (
"384 721 LINE SMOOTH",
"373 712 OFFCURVE",
"361 709 OFFCURVE",
"352 709 CURVE SMOOTH",
"340 709 OFFCURVE",
"326 715 OFFCURVE",
"314 727 CURVE SMOOTH",
"218 823 LINE SMOOTH",
"208 833 OFFCURVE",
"204 844 OFFCURVE",
"204 857 CURVE SMOOTH",
"204 882 OFFCURVE",
"225 904 OFFCURVE",
"250 904 CURVE SMOOTH",
"262 904 OFFCURVE",
"272 902 OFFCURVE",
"283 892 CURVE SMOOTH",
"356 826 LINE",
"445 895 LINE SMOOTH",
"456 903 OFFCURVE",
"464 904 OFFCURVE",
"474 904 CURVE SMOOTH",
"499 904 OFFCURVE",
"521 884 OFFCURVE",
"521 857 CURVE SMOOTH",
"521 844 OFFCURVE",
"515 831 OFFCURVE",
"503 821 CURVE SMOOTH"
);
}
);
userData = {
com.fontlab.hintData = {
hhints = (
{
position = -2;
width = 100;
},
{
position = 501;
width = 159;
},
{
position = 584;
width = 100;
}
);
vhints = (
{
position = 47;
width = 100;
}
);
};
};
width = 658;
}
);
unicode = 010C;
},
{
glyphname = Ccedilla;
layers = (
{
layerId = master01;
paths = (
{
closed = 1;
nodes = (
"340 -11 OFFCURVE",
"340 -18 OFFCURVE",
"340 -27 CURVE",
"400 -37 OFFCURVE",
"431 -61 OFFCURVE",
"431 -110 CURVE SMOOTH",
"431 -168 OFFCURVE",
"384 -196 OFFCURVE",
"326 -196 CURVE SMOOTH",
"288 -196 OFFCURVE",
"247 -180 OFFCURVE",
"247 -148 CURVE SMOOTH",
"247 -131 OFFCURVE",
"260 -109 OFFCURVE",
"283 -109 CURVE SMOOTH",
"300 -109 OFFCURVE",
"307 -118 OFFCURVE",
"317 -126 CURVE SMOOTH",
"322 -130 OFFCURVE",
"328 -132 OFFCURVE",
"337 -132 CURVE SMOOTH",
"353 -132 OFFCURVE",
"360 -118 OFFCURVE",
"360 -106 CURVE SMOOTH",
"360 -94 OFFCURVE",
"352 -86 OFFCURVE",
"336 -83 CURVE SMOOTH",
"287 -73 LINE SMOOTH",
"273.605 -70.18 OFFCURVE",
"268.659 -61.395 OFFCURVE",
"268.659 -50.151 CURVE SMOOTH",
"268.659 -45.446 OFFCURVE",
"269.525 -40.31 OFFCURVE",
"271 -35 CURVE SMOOTH",
"275 -20 OFFCURVE",
"278 -7 OFFCURVE",
"282 3 CURVE",
"149 30 OFFCURVE",
"47 148 OFFCURVE",
"47 299 CURVE SMOOTH",
"47 501 OFFCURVE",
"206 684 OFFCURVE",
"346 684 CURVE SMOOTH",
"404 684 OFFCURVE",
"449 669 OFFCURVE",
"479 653 CURVE",
"488 659 OFFCURVE",
"495 660 OFFCURVE",
"505 660 CURVE SMOOTH",
"533 660 OFFCURVE",
"555 639 OFFCURVE",
"555 611 CURVE SMOOTH",
"555 551 LINE SMOOTH",
"555 524 OFFCURVE",
"533 501 OFFCURVE",
"505 501 CURVE SMOOTH",
"478 501 OFFCURVE",
"457 521 OFFCURVE",
"455 547 CURVE",
"437 564 OFFCURVE",
"408 584 OFFCURVE",
"346 584 CURVE SMOOTH",
"253 584 OFFCURVE",
"147 441 OFFCURVE",
"147 299 CURVE SMOOTH",
"147 156 OFFCURVE",
"264 98 OFFCURVE",
"339 98 CURVE SMOOTH",
"399 98 OFFCURVE",
"455 119 OFFCURVE",
"499 177 CURVE SMOOTH",
"511 193 OFFCURVE",
"523 197 OFFCURVE",
"538 197 CURVE SMOOTH",
"564 197 OFFCURVE",
"588 179 OFFCURVE",
"588 147 CURVE SMOOTH",
"588 137 OFFCURVE",
"586 127 OFFCURVE",
"579 117 CURVE SMOOTH",
"521 41 OFFCURVE",
"436 -2 OFFCURVE",
"339 -2 CURVE"
);
}
);
userData = {
com.fontlab.hintData = {
hhints = (
{
position = -196;
width = 64;
},
{
position = -2;
width = 100;
},
{
position = 501;
width = 159;
},
{
position = 584;
width = 100;
}
);
vhints = (
{
position = 47;
width = 100;
},
{
position = 269;
width = 71;
},
{
position = 360;
width = 71;
}
);
};
};
width = 658;
}
);
unicode = 00C7;
},
{
glyphname = Ccircumflex;
layers = (
{
layerId = master01;
paths = (
{
closed = 1;
nodes = (
"521 41 OFFCURVE",
"436 -2 OFFCURVE",
"339 -2 CURVE SMOOTH",
"179 -2 OFFCURVE",
"47 128 OFFCURVE",
"47 299 CURVE SMOOTH",
"47 501 OFFCURVE",
"206 684 OFFCURVE",
"346 684 CURVE SMOOTH",
"404 684 OFFCURVE",
"449 669 OFFCURVE",
"479 653 CURVE",
"488 659 OFFCURVE",
"495 660 OFFCURVE",
"505 660 CURVE SMOOTH",
"533 660 OFFCURVE",
"555 639 OFFCURVE",
"555 611 CURVE SMOOTH",
"555 551 LINE SMOOTH",
"555 524 OFFCURVE",
"533 501 OFFCURVE",
"505 501 CURVE SMOOTH",
"478 501 OFFCURVE",
"457 521 OFFCURVE",
"455 547 CURVE",
"437 564 OFFCURVE",
"408 584 OFFCURVE",
"346 584 CURVE SMOOTH",
"253 584 OFFCURVE",
"147 441 OFFCURVE",
"147 299 CURVE SMOOTH",
"147 156 OFFCURVE",
"264 98 OFFCURVE",
"339 98 CURVE SMOOTH",
"399 98 OFFCURVE",
"455 119 OFFCURVE",
"499 177 CURVE SMOOTH",
"511 193 OFFCURVE",
"523 197 OFFCURVE",
"538 197 CURVE SMOOTH",
"564 197 OFFCURVE",
"588 179 OFFCURVE",
"588 147 CURVE SMOOTH",
"588 137 OFFCURVE",
"586 127 OFFCURVE",
"579 117 CURVE SMOOTH"
);
},
{
closed = 1;
nodes = (
"335 886 LINE SMOOTH",
"346 895 OFFCURVE",
"358 898 OFFCURVE",
"367 898 CURVE SMOOTH",
"379 898 OFFCURVE",
"393 892 OFFCURVE",
"405 880 CURVE SMOOTH",
"501 784 LINE SMOOTH",
"511 774 OFFCURVE",
"515 763 OFFCURVE",
"515 750 CURVE SMOOTH",
"515 725 OFFCURVE",
"494 703 OFFCURVE",
"469 703 CURVE SMOOTH",
"457 703 OFFCURVE",
"447 705 OFFCURVE",
"436 715 CURVE SMOOTH",
"363 781 LINE",
"274 712 LINE SMOOTH",
"263 704 OFFCURVE",
"255 703 OFFCURVE",
"245 703 CURVE SMOOTH",
"220 703 OFFCURVE",
"198 723 OFFCURVE",
"198 750 CURVE SMOOTH",
"198 763 OFFCURVE",
"204 776 OFFCURVE",
"216 786 CURVE SMOOTH"
);
}
);
userData = {
com.fontlab.hintData = {
hhints = (
{
position = -2;
width = 100;
},
{
position = 501;
width = 159;
},
{
position = 584;
width = 100;
}
);
vhints = (
{
position = 47;
width = 100;
}
);
};
};
width = 658;
}
);
unicode = 0108;
},
{
glyphname = D;
layers = (
{
layerId = master01;
paths = (
{
closed = 1;
nodes = (
"164 -19 OFFCURVE",
"108 -5 OFFCURVE",
"99 -2 CURVE SMOOTH",
"78 4 OFFCURVE",
"61 25 OFFCURVE",
"61 47 CURVE SMOOTH",
"61 632 LINE SMOOTH",
"61 660 OFFCURVE",
"83 681 OFFCURVE",
"111 681 CURVE SMOOTH",
"271 681 OFFCURVE",
"569 626 OFFCURVE",
"569 303 CURVE SMOOTH",
"569 79 OFFCURVE",
"412 -19 OFFCURVE",
"219 -19 CURVE SMOOTH"
);
},
{
closed = 1;
nodes = (
"161 87 LINE",
"178 84 OFFCURVE",
"199 81 OFFCURVE",
"219 81 CURVE SMOOTH",
"371 81 OFFCURVE",
"469 154 OFFCURVE",
"469 303 CURVE SMOOTH",
"469 494 OFFCURVE",
"328 566 OFFCURVE",
"161 579 CURVE"
);
}
);
userData = {
com.fontlab.hintData = {
hhints = (
{
position = -19;
width = 100;
},
{
position = 661;
width = 20;
}
);
vhints = (
{
position = 61;
width = 100;
},
{
position = 469;
width = 100;
}
);
};
};
width = 646;
}
);
unicode = 0044;
},
{
glyphname = Eth;
layers = (
{
layerId = master01;
paths = (
{
closed = 1;
nodes = (
"221 -19 OFFCURVE",
"165 -5 OFFCURVE",
"156 -2 CURVE SMOOTH",
"135 4 OFFCURVE",
"118 25 OFFCURVE",
"118 47 CURVE SMOOTH",
"118 262 LINE",
"83 262 LINE SMOOTH",
"57 262 OFFCURVE",
"33 285 OFFCURVE",
"33 311 CURVE SMOOTH",
"33 339 OFFCURVE",
"57 361 OFFCURVE",
"83 361 CURVE SMOOTH",
"118 361 LINE",
"118 632 LINE SMOOTH",
"118 660 OFFCURVE",
"140 681 OFFCURVE",
"168 681 CURVE SMOOTH",
"328 681 OFFCURVE",
"626 626 OFFCURVE",
"626 303 CURVE SMOOTH",
"626 79 OFFCURVE",
"469 -19 OFFCURVE",
"276 -19 CURVE SMOOTH"
);
},
{
closed = 1;
nodes = (
"218 361 LINE",
"288 361 LINE SMOOTH",
"315 361 OFFCURVE",
"338 339 OFFCURVE",
"338 311 CURVE SMOOTH",
"338 285 OFFCURVE",
"315 262 OFFCURVE",
"288 262 CURVE SMOOTH",
"218 262 LINE",
"218 87 LINE",
"235 84 OFFCURVE",
"256 81 OFFCURVE",
"276 81 CURVE SMOOTH",
"428 81 OFFCURVE",
"526 154 OFFCURVE",
"526 303 CURVE SMOOTH",
"526 494 OFFCURVE",
"385 566 OFFCURVE",
"218 579 CURVE"
);
}
);
userData = {
com.fontlab.hintData = {
hhints = (
{
position = -19;
width = 100;
},
{
position = 262;
width = 99;
},
{
position = 661;
width = 20;
}
);
vhints = (
{
position = 118;
width = 100;
},
{
position = 526;
width = 100;
}
);
};
};
width = 681;
}
);
unicode = 00D0;
},
{
glyphname = Dcaron;
layers = (
{
layerId = master01;
paths = (
{
closed = 1;
nodes = (
"304 721 LINE SMOOTH",
"293 712 OFFCURVE",
"281 709 OFFCURVE",
"272 709 CURVE SMOOTH",
"260 709 OFFCURVE",
"246 715 OFFCURVE",
"234 727 CURVE SMOOTH",
"138 823 LINE SMOOTH",
"128 833 OFFCURVE",
"124 844 OFFCURVE",
"124 857 CURVE SMOOTH",
"124 882 OFFCURVE",
"145 904 OFFCURVE",
"170 904 CURVE SMOOTH",
"182 904 OFFCURVE",
"192 902 OFFCURVE",
"203 892 CURVE SMOOTH",
"276 826 LINE",
"365 895 LINE SMOOTH",
"376 903 OFFCURVE",
"384 904 OFFCURVE",
"394 904 CURVE SMOOTH",
"419 904 OFFCURVE",
"441 884 OFFCURVE",
"441 857 CURVE SMOOTH",
"441 844 OFFCURVE",
"435 831 OFFCURVE",
"423 821 CURVE SMOOTH"
);
},
{
closed = 1;
nodes = (
"164 -19 OFFCURVE",
"108 -5 OFFCURVE",
"99 -2 CURVE SMOOTH",
"78 4 OFFCURVE",
"61 25 OFFCURVE",
"61 47 CURVE SMOOTH",
"61 632 LINE SMOOTH",
"61 660 OFFCURVE",
"83 681 OFFCURVE",
"111 681 CURVE SMOOTH",
"271 681 OFFCURVE",
"569 626 OFFCURVE",
"569 303 CURVE SMOOTH",
"569 79 OFFCURVE",
"412 -19 OFFCURVE",
"219 -19 CURVE SMOOTH"
);
},
{
closed = 1;
nodes = (
"161 87 LINE",
"178 84 OFFCURVE",
"199 81 OFFCURVE",
"219 81 CURVE SMOOTH",
"371 81 OFFCURVE",
"469 154 OFFCURVE",
"469 303 CURVE SMOOTH",
"469 494 OFFCURVE",
"328 566 OFFCURVE",
"161 579 CURVE"
);
}
);
userData = {
com.fontlab.hintData = {
hhints = (
{
position = -19;
width = 100;
},
{
position = 661;
width = 20;
}
);
vhints = (
{
position = 61;
width = 100;
},
{
position = 469;
width = 100;
}
);
};
};
width = 646;
}
);
unicode = 010E;
},
{
glyphname = Dcroat;
layers = (
{
layerId = master01;
paths = (
{
closed = 1;
nodes = (
"221 -19 OFFCURVE",
"165 -5 OFFCURVE",
"156 -2 CURVE SMOOTH",
"135 4 OFFCURVE",
"118 25 OFFCURVE",
"118 47 CURVE SMOOTH",
"118 262 LINE",
"83 262 LINE SMOOTH",
"57 262 OFFCURVE",
"33 285 OFFCURVE",
"33 311 CURVE SMOOTH",
"33 339 OFFCURVE",
"57 361 OFFCURVE",
"83 361 CURVE SMOOTH",
"118 361 LINE",
"118 632 LINE SMOOTH",
"118 660 OFFCURVE",
"140 681 OFFCURVE",
"168 681 CURVE SMOOTH",
"328 681 OFFCURVE",
"626 626 OFFCURVE",
"626 303 CURVE SMOOTH",
"626 79 OFFCURVE",
"469 -19 OFFCURVE",
"276 -19 CURVE SMOOTH"
);
},
{
closed = 1;
nodes = (
"218 361 LINE",
"288 361 LINE SMOOTH",
"315 361 OFFCURVE",
"338 339 OFFCURVE",
"338 311 CURVE SMOOTH",
"338 285 OFFCURVE",
"315 262 OFFCURVE",
"288 262 CURVE SMOOTH",
"218 262 LINE",
"218 87 LINE",
"235 84 OFFCURVE",
"256 81 OFFCURVE",
"276 81 CURVE SMOOTH",
"428 81 OFFCURVE",
"526 154 OFFCURVE",
"526 303 CURVE SMOOTH",
"526 494 OFFCURVE",
"385 566 OFFCURVE",
"218 579 CURVE"
);
}
);
userData = {
com.fontlab.hintData = {
hhints = (
{
position = -19;
width = 100;
},
{
position = 262;
width = 99;
},
{
position = 661;
width = 20;
}
);
vhints = (
{
position = 118;
width = 100;
},
{
position = 526;
width = 100;
}
);
};
};
width = 681;
}
);
unicode = 0110;
},
{
glyphname = E;
layers = (
{
layerId = master01;
paths = (
{
closed = 1;
nodes = (
"508 100 LINE SMOOTH",
"536 100 OFFCURVE",
"557 78 OFFCURVE",
"557 50 CURVE SMOOTH",
"557 22 OFFCURVE",
"536 0 OFFCURVE",
"508 0 CURVE SMOOTH",
"111 0 LINE SMOOTH",
"83 0 OFFCURVE",
"61 22 OFFCURVE",
"61 50 CURVE SMOOTH",
"61 632 LINE SMOOTH",
"61 660 OFFCURVE",
"83 682 OFFCURVE",
"111 682 CURVE SMOOTH",
"510 682 LINE SMOOTH",
"538 682 OFFCURVE",
"559 660 OFFCURVE",
"559 632 CURVE SMOOTH",
"559 605 OFFCURVE",
"538 582 OFFCURVE",
"510 582 CURVE SMOOTH",
"160 582 LINE",
"160 401 LINE",
"464 401 LINE SMOOTH",
"492 401 OFFCURVE",
"513 380 OFFCURVE",
"513 352 CURVE SMOOTH",
"513 324 OFFCURVE",
"492 302 OFFCURVE",
"464 302 CURVE SMOOTH",
"160 302 LINE",
"160 100 LINE"
);
}
);
userData = {
com.fontlab.hintData = {
hhints = (
{
position = 0;
width = 100;
},
{
position = 302;
width = 99;
},
{
position = 582;
width = 100;
}
);
vhints = (
{
position = 61;
width = 99;
}
);
};
};
width = 636;
}
);
unicode = 0045;
},
{
glyphname = Eacute;
layers = (
{
layerId = master01;
paths = (
{
closed = 1;
nodes = (
"508 100 LINE SMOOTH",
"536 100 OFFCURVE",
"557 78 OFFCURVE",
"557 50 CURVE SMOOTH",
"557 22 OFFCURVE",
"536 0 OFFCURVE",
"508 0 CURVE SMOOTH",
"111 0 LINE SMOOTH",
"83 0 OFFCURVE",
"61 22 OFFCURVE",
"61 50 CURVE SMOOTH",
"61 632 LINE SMOOTH",
"61 660 OFFCURVE",
"83 682 OFFCURVE",
"111 682 CURVE SMOOTH",
"510 682 LINE SMOOTH",
"538 682 OFFCURVE",
"559 660 OFFCURVE",
"559 632 CURVE SMOOTH",
"559 605 OFFCURVE",
"538 582 OFFCURVE",
"510 582 CURVE SMOOTH",
"160 582 LINE",
"160 401 LINE",
"464 401 LINE SMOOTH",
"492 401 OFFCURVE",
"513 380 OFFCURVE",
"513 352 CURVE SMOOTH",
"513 324 OFFCURVE",
"492 302 OFFCURVE",
"464 302 CURVE SMOOTH",
"160 302 LINE",
"160 100 LINE"
);
},
{
closed = 1;
nodes = (
"333 883 LINE SMOOTH",
"343 891 OFFCURVE",
"357 902 OFFCURVE",
"374 902 CURVE SMOOTH",
"404 902 OFFCURVE",
"427 878 OFFCURVE",
"427 847 CURVE SMOOTH",
"427 832 OFFCURVE",
"422 817 OFFCURVE",
"408 807 CURVE SMOOTH",
"284 722 LINE SMOOTH",
"274 715 OFFCURVE",
"262 709 OFFCURVE",
"251 709 CURVE SMOOTH",
"227 709 OFFCURVE",
"205 730 OFFCURVE",
"205 757 CURVE SMOOTH",
"205 768 OFFCURVE",
"207 781 OFFCURVE",
"218 790 CURVE SMOOTH"
);
}
);
userData = {
com.fontlab.hintData = {
hhints = (
{
position = 0;
width = 100;
},
{
position = 302;
width = 99;
},
{
position = 582;
width = 100;
}
);
vhints = (
{
position = 61;
width = 99;
}
);
};
};
width = 636;
}
);
unicode = 00C9;
},
{
glyphname = Ecaron;
layers = (
{
layerId = master01;
paths = (
{
closed = 1;
nodes = (
"336 721 LINE SMOOTH",
"325 712 OFFCURVE",
"313 709 OFFCURVE",
"304 709 CURVE SMOOTH",
"292 709 OFFCURVE",
"278 715 OFFCURVE",
"266 727 CURVE SMOOTH",
"170 823 LINE SMOOTH",
"160 833 OFFCURVE",
"156 844 OFFCURVE",
"156 857 CURVE SMOOTH",
"156 882 OFFCURVE",
"177 904 OFFCURVE",
"202 904 CURVE SMOOTH",
"214 904 OFFCURVE",
"224 902 OFFCURVE",
"235 892 CURVE SMOOTH",
"308 826 LINE",
"397 895 LINE SMOOTH",
"408 903 OFFCURVE",
"416 904 OFFCURVE",
"426 904 CURVE SMOOTH",
"451 904 OFFCURVE",
"473 884 OFFCURVE",
"473 857 CURVE SMOOTH",
"473 844 OFFCURVE",
"467 831 OFFCURVE",
"455 821 CURVE SMOOTH"
);
},
{
closed = 1;
nodes = (
"508 100 LINE SMOOTH",
"536 100 OFFCURVE",
"557 78 OFFCURVE",
"557 50 CURVE SMOOTH",
"557 22 OFFCURVE",
"536 0 OFFCURVE",
"508 0 CURVE SMOOTH",
"111 0 LINE SMOOTH",
"83 0 OFFCURVE",
"61 22 OFFCURVE",
"61 50 CURVE SMOOTH",
"61 632 LINE SMOOTH",
"61 660 OFFCURVE",
"83 682 OFFCURVE",
"111 682 CURVE SMOOTH",
"510 682 LINE SMOOTH",
"538 682 OFFCURVE",
"559 660 OFFCURVE",
"559 632 CURVE SMOOTH",
"559 605 OFFCURVE",
"538 582 OFFCURVE",
"510 582 CURVE SMOOTH",
"160 582 LINE",
"160 401 LINE",
"464 401 LINE SMOOTH",
"492 401 OFFCURVE",
"513 380 OFFCURVE",
"513 352 CURVE SMOOTH",
"513 324 OFFCURVE",
"492 302 OFFCURVE",
"464 302 CURVE SMOOTH",
"160 302 LINE",
"160 100 LINE"
);
}
);
userData = {
com.fontlab.hintData = {
hhints = (
{
position = 0;
width = 100;
},
{
position = 302;
width = 99;
},
{
position = 582;
width = 100;
}
);
vhints = (
{
position = 61;
width = 99;
}
);
};
};
width = 636;
}
);
unicode = 011A;
},
{
glyphname = Ecircumflex;
layers = (
{
layerId = master01;
paths = (
{
closed = 1;
nodes = (
"508 100 LINE SMOOTH",
"536 100 OFFCURVE",
"557 78 OFFCURVE",
"557 50 CURVE SMOOTH",
"557 22 OFFCURVE",
"536 0 OFFCURVE",
"508 0 CURVE SMOOTH",
"111 0 LINE SMOOTH",
"83 0 OFFCURVE",
"61 22 OFFCURVE",
"61 50 CURVE SMOOTH",
"61 632 LINE SMOOTH",
"61 660 OFFCURVE",
"83 682 OFFCURVE",
"111 682 CURVE SMOOTH",
"510 682 LINE SMOOTH",
"538 682 OFFCURVE",
"559 660 OFFCURVE",
"559 632 CURVE SMOOTH",
"559 605 OFFCURVE",
"538 582 OFFCURVE",
"510 582 CURVE SMOOTH",
"160 582 LINE",
"160 401 LINE",
"464 401 LINE SMOOTH",
"492 401 OFFCURVE",
"513 380 OFFCURVE",
"513 352 CURVE SMOOTH",
"513 324 OFFCURVE",
"492 302 OFFCURVE",
"464 302 CURVE SMOOTH",
"160 302 LINE",
"160 100 LINE"
);
},
{
closed = 1;
nodes = (
"300 886 LINE SMOOTH",
"311 895 OFFCURVE",
"323 898 OFFCURVE",
"332 898 CURVE SMOOTH",
"344 898 OFFCURVE",
"358 892 OFFCURVE",
"370 880 CURVE SMOOTH",
"466 784 LINE SMOOTH",
"476 774 OFFCURVE",
"480 763 OFFCURVE",
"480 750 CURVE SMOOTH",
"480 725 OFFCURVE",
"459 703 OFFCURVE",
"434 703 CURVE SMOOTH",
"422 703 OFFCURVE",
"412 705 OFFCURVE",
"401 715 CURVE SMOOTH",
"328 781 LINE",
"239 712 LINE SMOOTH",
"228 704 OFFCURVE",
"220 703 OFFCURVE",
"210 703 CURVE SMOOTH",
"185 703 OFFCURVE",
"163 723 OFFCURVE",
"163 750 CURVE SMOOTH",
"163 763 OFFCURVE",
"169 776 OFFCURVE",
"181 786 CURVE SMOOTH"
);
}
);
userData = {
com.fontlab.hintData = {
hhints = (
{
position = 0;
width = 100;
},
{
position = 302;
width = 99;
},
{
position = 582;
width = 100;
}
);
vhints = (
{
position = 61;
width = 99;
}
);
};
};
width = 636;
}
);
unicode = 00CA;
},
{
glyphname = Edieresis;
layers = (
{
layerId = master01;
paths = (
{
closed = 1;
nodes = (
"289 732 OFFCURVE",
"258 703 OFFCURVE",
"218 703 CURVE SMOOTH",
"181 703 OFFCURVE",
"153 727 OFFCURVE",
"153 762 CURVE SMOOTH",
"153 796 OFFCURVE",
"184 827 OFFCURVE",
"223 827 CURVE SMOOTH",
"257 827 OFFCURVE",
"289 801 OFFCURVE",
"289 767 CURVE SMOOTH"
);
},
{
closed = 1;
nodes = (
"477 732 OFFCURVE",
"446 703 OFFCURVE",
"406 703 CURVE SMOOTH",
"370 703 OFFCURVE",
"341 727 OFFCURVE",
"341 762 CURVE SMOOTH",
"341 796 OFFCURVE",
"372 827 OFFCURVE",
"411 827 CURVE SMOOTH",
"445 827 OFFCURVE",
"477 801 OFFCURVE",
"477 767 CURVE SMOOTH"
);
},
{
closed = 1;
nodes = (
"508 100 LINE SMOOTH",
"536 100 OFFCURVE",
"557 78 OFFCURVE",
"557 50 CURVE SMOOTH",
"557 22 OFFCURVE",
"536 0 OFFCURVE",
"508 0 CURVE SMOOTH",
"111 0 LINE SMOOTH",
"83 0 OFFCURVE",
"61 22 OFFCURVE",
"61 50 CURVE SMOOTH",
"61 632 LINE SMOOTH",
"61 660 OFFCURVE",
"83 682 OFFCURVE",
"111 682 CURVE SMOOTH",
"510 682 LINE SMOOTH",
"538 682 OFFCURVE",
"559 660 OFFCURVE",
"559 632 CURVE SMOOTH",
"559 605 OFFCURVE",
"538 582 OFFCURVE",
"510 582 CURVE SMOOTH",
"160 582 LINE",
"160 401 LINE",
"464 401 LINE SMOOTH",
"492 401 OFFCURVE",
"513 380 OFFCURVE",
"513 352 CURVE SMOOTH",
"513 324 OFFCURVE",
"492 302 OFFCURVE",
"464 302 CURVE SMOOTH",
"160 302 LINE",
"160 100 LINE"
);
}
);
userData = {
com.fontlab.hintData = {
hhints = (
{
position = 0;
width = 100;
},
{
position = 302;
width = 99;
},
{
position = 582;
width = 100;
},
{
position = 703;
width = 124;
}
);
vhints = (
{
position = 61;
width = 99;
},
{
position = 153;
width = 136;
},
{
position = 341;
width = 136;
}
);
};
};
width = 636;
}
);
unicode = 00CB;
},
{
glyphname = Egrave;
layers = (
{
layerId = master01;
paths = (
{
closed = 1;
nodes = (
"508 100 LINE SMOOTH",
"536 100 OFFCURVE",
"557 78 OFFCURVE",
"557 50 CURVE SMOOTH",
"557 22 OFFCURVE",
"536 0 OFFCURVE",
"508 0 CURVE SMOOTH",
"111 0 LINE SMOOTH",
"83 0 OFFCURVE",
"61 22 OFFCURVE",
"61 50 CURVE SMOOTH",
"61 632 LINE SMOOTH",
"61 660 OFFCURVE",
"83 682 OFFCURVE",
"111 682 CURVE SMOOTH",
"510 682 LINE SMOOTH",
"538 682 OFFCURVE",
"559 660 OFFCURVE",
"559 632 CURVE SMOOTH",
"559 605 OFFCURVE",
"538 582 OFFCURVE",
"510 582 CURVE SMOOTH",
"160 582 LINE",
"160 401 LINE",
"464 401 LINE SMOOTH",
"492 401 OFFCURVE",
"513 380 OFFCURVE",
"513 352 CURVE SMOOTH",
"513 324 OFFCURVE",
"492 302 OFFCURVE",
"464 302 CURVE SMOOTH",
"160 302 LINE",
"160 100 LINE"
);
},
{
closed = 1;
nodes = (
"198 824 LINE SMOOTH",
"188 834 OFFCURVE",
"182 846 OFFCURVE",
"182 862 CURVE SMOOTH",
"182 890 OFFCURVE",
"208 916 OFFCURVE",
"236 916 CURVE SMOOTH",
"254 916 OFFCURVE",
"270 906 OFFCURVE",
"280 894 CURVE SMOOTH",
"375 775 LINE SMOOTH",
"384 763 OFFCURVE",
"387 755 OFFCURVE",
"387 745 CURVE SMOOTH",
"387 718 OFFCURVE",
"363 698 OFFCURVE",
"339 698 CURVE SMOOTH",
"324 698 OFFCURVE",
"313 704 OFFCURVE",
"305 713 CURVE SMOOTH"
);
}
);
userData = {
com.fontlab.hintData = {
hhints = (
{
position = 0;
width = 100;
},
{
position = 302;
width = 99;
},
{
position = 582;
width = 100;
}
);
vhints = (
{
position = 61;
width = 99;
}
);
};
};
width = 636;
}
);
unicode = 00C8;
},
{
glyphname = Eogonek;
layers = (
{
layerId = master01;
paths = (
{
closed = 1;
nodes = (
"393 -196 OFFCURVE",
"342 -147 OFFCURVE",
"342 -79 CURVE SMOOTH",
"342 -49 OFFCURVE",
"353 -22 OFFCURVE",
"369 0 CURVE",
"111 0 LINE SMOOTH",
"83 0 OFFCURVE",
"61 22 OFFCURVE",
"61 50 CURVE SMOOTH",
"61 632 LINE SMOOTH",
"61 660 OFFCURVE",
"83 682 OFFCURVE",
"111 682 CURVE SMOOTH",
"510 682 LINE SMOOTH",
"538 682 OFFCURVE",
"559 660 OFFCURVE",
"559 632 CURVE SMOOTH",
"559 605 OFFCURVE",
"538 582 OFFCURVE",
"510 582 CURVE SMOOTH",
"160 582 LINE",
"160 401 LINE",
"464 401 LINE SMOOTH",
"492 401 OFFCURVE",
"513 380 OFFCURVE",
"513 352 CURVE SMOOTH",
"513 324 OFFCURVE",
"492 302 OFFCURVE",
"464 302 CURVE SMOOTH",
"160 302 LINE",
"160 100 LINE",
"508 100 LINE SMOOTH",
"536 100 OFFCURVE",
"557 78 OFFCURVE",
"557 50 CURVE SMOOTH",
"557 4 OFFCURVE",
"525 8 OFFCURVE",
"478 -21 CURVE SMOOTH",
"452 -37 OFFCURVE",
"433 -51 OFFCURVE",
"433 -76 CURVE SMOOTH",
"433 -95 OFFCURVE",
"446 -104 OFFCURVE",
"461 -104 CURVE SMOOTH",
"474 -104 OFFCURVE",
"489 -100 OFFCURVE",
"501 -90 CURVE SMOOTH",
"512 -82 OFFCURVE",
"520 -80 OFFCURVE",
"530 -80 CURVE SMOOTH",
"551 -80 OFFCURVE",
"574 -102 OFFCURVE",
"574 -126 CURVE SMOOTH",
"574 -168 OFFCURVE",
"500 -196 OFFCURVE",
"461 -196 CURVE SMOOTH"
);
}
);
userData = {
com.fontlab.hintData = {
hhints = (
{
position = -196;
width = 92;
},
{
position = 0;
width = 100;
},
{
position = 302;
width = 99;
},
{
position = 582;
width = 100;
}
);
vhints = (
{
position = 61;
width = 99;
},
{
position = 342;
width = 91;
}
);
};
};
width = 636;
}
);
unicode = 0118;
},
{
glyphname = F;
layers = (
{
layerId = master01;
paths = (
{
closed = 1;
nodes = (
"156 49 LINE SMOOTH",
"156 21 OFFCURVE",
"134 -1 OFFCURVE",
"106 -1 CURVE SMOOTH",
"78 -1 OFFCURVE",
"56 21 OFFCURVE",
"56 49 CURVE SMOOTH",
"56 631 LINE SMOOTH",
"56 659 OFFCURVE",
"78 681 OFFCURVE",
"106 681 CURVE SMOOTH",
"505 681 LINE SMOOTH",
"533 681 OFFCURVE",
"554 659 OFFCURVE",
"554 631 CURVE SMOOTH",
"554 605 OFFCURVE",
"533 581 OFFCURVE",
"505 581 CURVE SMOOTH",
"156 581 LINE",
"156 401 LINE",
"422 401 LINE SMOOTH",
"450 401 OFFCURVE",
"471 378 OFFCURVE",
"471 350 CURVE SMOOTH",
"471 324 OFFCURVE",
"450 301 OFFCURVE",
"422 301 CURVE SMOOTH",
"156 301 LINE"
);
}
);
userData = {
com.fontlab.hintData = {
hhints = (
{
position = -1;
width = 21;
},
{
position = 301;
width = 100;
},
{
position = 581;
width = 100;
}
);
vhints = (
{
position = 56;
width = 100;
}
);
};
};
width = 571;
}
);
unicode = 0046;
},
{
glyphname = G;
layers = (
{
layerId = master01;
paths = (
{
closed = 1;
nodes = (
"683 298 OFFCURVE",
"692 279 OFFCURVE",
"692 258 CURVE SMOOTH",
"692 229 OFFCURVE",
"669 210 OFFCURVE",
"645 209 CURVE",
"609 90 OFFCURVE",
"509 -1 OFFCURVE",
"362 -1 CURVE SMOOTH",
"175 -1 OFFCURVE",
"58 162 OFFCURVE",
"58 332 CURVE SMOOTH",
"58 498 OFFCURVE",
"181 683 OFFCURVE",
"377 683 CURVE SMOOTH",
"570 683 OFFCURVE",
"646 527 OFFCURVE",
"646 484 CURVE SMOOTH",
"646 456 OFFCURVE",
"627 438 OFFCURVE",
"598 438 CURVE SMOOTH",
"575 438 OFFCURVE",
"559 448 OFFCURVE",
"550 470 CURVE SMOOTH",
"530 524 OFFCURVE",
"481 583 OFFCURVE",
"377 583 CURVE SMOOTH",
"215 583 OFFCURVE",
"158 409 OFFCURVE",
"158 332 CURVE SMOOTH",
"158 231 OFFCURVE",
"223 99 OFFCURVE",
"362 99 CURVE SMOOTH",
"448 99 OFFCURVE",
"515 145 OFFCURVE",
"545 223 CURVE",
"501 222 OFFCURVE",
"472 215 OFFCURVE",
"453 210 CURVE SMOOTH",
"444 208 OFFCURVE",
"437 206 OFFCURVE",
"428 206 CURVE SMOOTH",
"403 206 OFFCURVE",
"379 224 OFFCURVE",
"379 256 CURVE SMOOTH",
"379 277 OFFCURVE",
"391 296 OFFCURVE",
"414 304 CURVE",
"434 314 OFFCURVE",
"494 322 OFFCURVE",
"549 322 CURVE SMOOTH",
"585 322 OFFCURVE",
"622 317 OFFCURVE",
"660 305 CURVE SMOOTH"
);
}
);
userData = {
com.fontlab.hintData = {
hhints = (
{
position = -1;
width = 100;
},
{
position = 223;
width = 99;
},
{
position = 583;
width = 100;
}
);
vhints = (
{
position = 58;
width = 100;
},
{
position = 550;
width = 96;
}
);
};
};
width = 777;
}
);
unicode = 0047;
},
{
glyphname = Gcircumflex;
layers = (
{
layerId = master01;
paths = (
{
closed = 1;
nodes = (
"683 298 OFFCURVE",
"692 279 OFFCURVE",
"692 258 CURVE SMOOTH",
"692 229 OFFCURVE",
"669 210 OFFCURVE",
"645 209 CURVE",
"609 90 OFFCURVE",
"509 -1 OFFCURVE",
"362 -1 CURVE SMOOTH",
"175 -1 OFFCURVE",
"58 162 OFFCURVE",
"58 332 CURVE SMOOTH",
"58 498 OFFCURVE",
"181 683 OFFCURVE",
"377 683 CURVE SMOOTH",
"570 683 OFFCURVE",
"646 527 OFFCURVE",
"646 484 CURVE SMOOTH",
"646 456 OFFCURVE",
"627 438 OFFCURVE",
"598 438 CURVE SMOOTH",
"575 438 OFFCURVE",
"559 448 OFFCURVE",
"550 470 CURVE SMOOTH",
"530 524 OFFCURVE",
"481 583 OFFCURVE",
"377 583 CURVE SMOOTH",
"215 583 OFFCURVE",
"158 409 OFFCURVE",
"158 332 CURVE SMOOTH",
"158 231 OFFCURVE",
"223 99 OFFCURVE",
"362 99 CURVE SMOOTH",
"448 99 OFFCURVE",
"515 145 OFFCURVE",
"545 223 CURVE",
"501 222 OFFCURVE",
"472 215 OFFCURVE",
"453 210 CURVE SMOOTH",
"444 208 OFFCURVE",
"437 206 OFFCURVE",
"428 206 CURVE SMOOTH",
"403 206 OFFCURVE",
"379 224 OFFCURVE",
"379 256 CURVE SMOOTH",
"379 277 OFFCURVE",
"391 296 OFFCURVE",
"414 304 CURVE SMOOTH",
"434 314 OFFCURVE",
"494 322 OFFCURVE",
"549 322 CURVE SMOOTH",
"585 322 OFFCURVE",
"622 317 OFFCURVE",
"660 305 CURVE SMOOTH"
);
},
{
closed = 1;
nodes = (
"355 886 LINE SMOOTH",
"366 895 OFFCURVE",
"378 898 OFFCURVE",
"387 898 CURVE SMOOTH",
"399 898 OFFCURVE",
"413 892 OFFCURVE",
"425 880 CURVE SMOOTH",
"521 784 LINE SMOOTH",
"531 774 OFFCURVE",
"535 763 OFFCURVE",
"535 750 CURVE SMOOTH",
"535 725 OFFCURVE",
"514 703 OFFCURVE",
"489 703 CURVE SMOOTH",
"477 703 OFFCURVE",
"467 705 OFFCURVE",
"456 715 CURVE SMOOTH",
"383 781 LINE",
"294 712 LINE SMOOTH",
"283 704 OFFCURVE",
"275 703 OFFCURVE",
"265 703 CURVE SMOOTH",
"240 703 OFFCURVE",
"218 723 OFFCURVE",
"218 750 CURVE SMOOTH",
"218 763 OFFCURVE",
"224 776 OFFCURVE",
"236 786 CURVE SMOOTH"
);
}
);
userData = {
com.fontlab.hintData = {
hhints = (
{
position = -1;
width = 100;
},
{
position = 223;
width = 99;
},
{
position = 583;
width = 100;
}
);
vhints = (
{
position = 58;
width = 100;
},
{
position = 550;
width = 96;
}
);
};
};
width = 777;
}
);
unicode = 011C;
},
{
glyphname = H;
lastChange = "2019-10-15 22:50:42 +0000";
layers = (
{
layerId = master01;
paths = (
{
closed = 1;
nodes = (
"139 0 OFFCURVE",
"162 23 OFFCURVE",
"162 49 CURVE SMOOTH",
"162 271 LINE",
"526 322 LINE",
"526 49 LINE SMOOTH",
"526 23 OFFCURVE",
"548 0 OFFCURVE",
"576 0 CURVE SMOOTH",
"602 0 OFFCURVE",
"626 23 OFFCURVE",
"626 49 CURVE SMOOTH",
"626 632 LINE SMOOTH",
"626 660 OFFCURVE",
"602 681 OFFCURVE",
"576 681 CURVE SMOOTH",
"548 681 OFFCURVE",
"526 660 OFFCURVE",
"526 632 CURVE SMOOTH",
"526 423 LINE",
"162 372 LINE",
"162 632 LINE SMOOTH",
"162 660 OFFCURVE",
"139 681 OFFCURVE",
"111 681 CURVE SMOOTH",
"83 681 OFFCURVE",
"62 660 OFFCURVE",
"62 632 CURVE SMOOTH",
"62 49 LINE SMOOTH",
"62 23 OFFCURVE",
"83 0 OFFCURVE",
"111 0 CURVE SMOOTH"
);
}
);
userData = {
com.fontlab.hintData = {
hhints = (
{
position = 0;
width = 21;
},
{
position = 661;
width = 20;
}
);
vhints = (
{
position = 62;
width = 100;
},
{
position = 526;
width = 100;
}
);
};
};
width = 711;
}
);
unicode = 0048;
},
{
glyphname = Hcircumflex;
layers = (
{
layerId = master01;
paths = (
{
closed = 1;
nodes = (
"602 681 OFFCURVE",
"626 660 OFFCURVE",
"626 632 CURVE SMOOTH",
"626 49 LINE SMOOTH",
"626 23 OFFCURVE",
"602 0 OFFCURVE",
"576 0 CURVE SMOOTH",
"548 0 OFFCURVE",
"526 23 OFFCURVE",
"526 49 CURVE SMOOTH",
"526 322 LINE",
"162 271 LINE",
"162 49 LINE SMOOTH",
"162 23 OFFCURVE",
"139 0 OFFCURVE",
"111 0 CURVE SMOOTH",
"83 0 OFFCURVE",
"62 23 OFFCURVE",
"62 49 CURVE SMOOTH",
"62 632 LINE SMOOTH",
"62 660 OFFCURVE",
"83 681 OFFCURVE",
"111 681 CURVE SMOOTH",
"139 681 OFFCURVE",
"162 660 OFFCURVE",
"162 632 CURVE SMOOTH",
"162 372 LINE",
"526 423 LINE",
"526 632 LINE SMOOTH",
"526 660 OFFCURVE",
"548 681 OFFCURVE",
"576 681 CURVE SMOOTH"
);
},
{
closed = 1;
nodes = (
"321 886 LINE SMOOTH",
"332 895 OFFCURVE",
"344 898 OFFCURVE",
"353 898 CURVE SMOOTH",
"365 898 OFFCURVE",
"379 892 OFFCURVE",
"391 880 CURVE SMOOTH",
"487 784 LINE SMOOTH",
"497 774 OFFCURVE",
"501 763 OFFCURVE",
"501 750 CURVE SMOOTH",
"501 725 OFFCURVE",
"480 703 OFFCURVE",
"455 703 CURVE SMOOTH",
"443 703 OFFCURVE",
"433 705 OFFCURVE",
"422 715 CURVE SMOOTH",
"349 781 LINE",
"260 712 LINE SMOOTH",
"249 704 OFFCURVE",
"241 703 OFFCURVE",
"231 703 CURVE SMOOTH",
"206 703 OFFCURVE",
"184 723 OFFCURVE",
"184 750 CURVE SMOOTH",
"184 763 OFFCURVE",
"190 776 OFFCURVE",
"202 786 CURVE SMOOTH"
);
}
);
userData = {
com.fontlab.hintData = {
hhints = (
{
position = 0;
width = 21;
},
{
position = 661;
width = 20;
}
);
vhints = (
{
position = 62;
width = 100;
},
{
position = 526;
width = 100;
}
);
};
};
width = 711;
}
);
unicode = 0124;
},
{
glyphname = I;
layers = (
{
layerId = master01;
paths = (
{
closed = 1;
nodes = (
"342 99 LINE SMOOTH",
"372 99 OFFCURVE",
"391 77 OFFCURVE",
"391 49 CURVE SMOOTH",
"391 21 OFFCURVE",
"370 -1 OFFCURVE",
"342 -1 CURVE SMOOTH",
"103 -1 LINE SMOOTH",
"75 -1 OFFCURVE",
"53 21 OFFCURVE",
"53 49 CURVE SMOOTH",
"53 77 OFFCURVE",
"75 99 OFFCURVE",
"103 99 CURVE SMOOTH",
"173 99 LINE",
"173 581 LINE",
"103 581 LINE SMOOTH",
"75 581 OFFCURVE",
"53 604 OFFCURVE",
"53 632 CURVE SMOOTH",
"53 660 OFFCURVE",
"75 681 OFFCURVE",
"103 681 CURVE SMOOTH",
"342 681 LINE SMOOTH",
"370 681 OFFCURVE",
"391 660 OFFCURVE",
"391 632 CURVE SMOOTH",
"391 604 OFFCURVE",
"370 581 OFFCURVE",
"342 581 CURVE SMOOTH",
"273 581 LINE",
"273 99 LINE"
);
}
);
userData = {
com.fontlab.hintData = {
hhints = (
{
position = -1;
width = 100;
},
{
position = 581;
width = 100;
}
);
vhints = (
{
position = 173;
width = 100;
}
);
};
};
width = 459;
}
);
unicode = 0049;
},
{
glyphname = Iacute;
layers = (
{
layerId = master01;
paths = (
{
closed = 1;
nodes = (
"342 99 LINE SMOOTH",
"372 99 OFFCURVE",
"391 77 OFFCURVE",
"391 49 CURVE SMOOTH",
"391 21 OFFCURVE",
"370 -1 OFFCURVE",
"342 -1 CURVE SMOOTH",
"103 -1 LINE SMOOTH",
"75 -1 OFFCURVE",
"53 21 OFFCURVE",
"53 49 CURVE SMOOTH",
"53 77 OFFCURVE",
"75 99 OFFCURVE",
"103 99 CURVE SMOOTH",
"173 99 LINE",
"173 581 LINE",
"103 581 LINE SMOOTH",
"75 581 OFFCURVE",
"53 604 OFFCURVE",
"53 632 CURVE SMOOTH",
"53 660 OFFCURVE",
"75 681 OFFCURVE",
"103 681 CURVE SMOOTH",
"342 681 LINE SMOOTH",
"370 681 OFFCURVE",
"391 660 OFFCURVE",
"391 632 CURVE SMOOTH",
"391 604 OFFCURVE",
"370 581 OFFCURVE",
"342 581 CURVE SMOOTH",
"273 581 LINE",
"273 99 LINE"
);
},
{
closed = 1;
nodes = (
"258 883 LINE SMOOTH",
"268 891 OFFCURVE",
"282 902 OFFCURVE",
"299 902 CURVE SMOOTH",
"329 902 OFFCURVE",
"352 878 OFFCURVE",
"352 847 CURVE SMOOTH",
"352 832 OFFCURVE",
"347 817 OFFCURVE",
"333 807 CURVE SMOOTH",
"209 722 LINE SMOOTH",
"199 715 OFFCURVE",
"187 709 OFFCURVE",
"176 709 CURVE SMOOTH",
"152 709 OFFCURVE",
"130 730 OFFCURVE",
"130 757 CURVE SMOOTH",
"130 768 OFFCURVE",
"132 781 OFFCURVE",
"143 790 CURVE SMOOTH"
);
}
);
userData = {
com.fontlab.hintData = {
hhints = (
{
position = -1;
width = 100;
},
{
position = 581;
width = 100;
}
);
vhints = (
{
position = 173;
width = 100;
}
);
};
};
width = 459;
}
);
unicode = 00CD;
},
{
glyphname = Icircumflex;
layers = (
{
layerId = master01;
paths = (
{
closed = 1;
nodes = (
"342 99 LINE SMOOTH",
"372 99 OFFCURVE",
"391 77 OFFCURVE",
"391 49 CURVE SMOOTH",
"391 21 OFFCURVE",
"370 -1 OFFCURVE",
"342 -1 CURVE SMOOTH",
"103 -1 LINE SMOOTH",
"75 -1 OFFCURVE",
"53 21 OFFCURVE",
"53 49 CURVE SMOOTH",
"53 77 OFFCURVE",
"75 99 OFFCURVE",
"103 99 CURVE SMOOTH",
"173 99 LINE",
"173 581 LINE",
"103 581 LINE SMOOTH",
"75 581 OFFCURVE",
"53 604 OFFCURVE",
"53 632 CURVE SMOOTH",
"53 660 OFFCURVE",
"75 681 OFFCURVE",
"103 681 CURVE SMOOTH",
"342 681 LINE SMOOTH",
"370 681 OFFCURVE",
"391 660 OFFCURVE",
"391 632 CURVE SMOOTH",
"391 604 OFFCURVE",
"370 581 OFFCURVE",
"342 581 CURVE SMOOTH",
"273 581 LINE",
"273 99 LINE"
);
},
{
closed = 1;
nodes = (
"205 886 LINE SMOOTH",
"216 895 OFFCURVE",
"228 898 OFFCURVE",
"237 898 CURVE SMOOTH",
"249 898 OFFCURVE",
"263 892 OFFCURVE",
"275 880 CURVE SMOOTH",
"371 784 LINE SMOOTH",
"381 774 OFFCURVE",
"385 763 OFFCURVE",
"385 750 CURVE SMOOTH",
"385 725 OFFCURVE",
"364 703 OFFCURVE",
"339 703 CURVE SMOOTH",
"327 703 OFFCURVE",
"317 705 OFFCURVE",
"306 715 CURVE SMOOTH",
"233 781 LINE",
"144 712 LINE SMOOTH",
"133 704 OFFCURVE",
"125 703 OFFCURVE",
"115 703 CURVE SMOOTH",
"90 703 OFFCURVE",
"68 723 OFFCURVE",
"68 750 CURVE SMOOTH",
"68 763 OFFCURVE",
"74 776 OFFCURVE",
"86 786 CURVE SMOOTH"
);
}
);
userData = {
com.fontlab.hintData = {
hhints = (
{
position = -1;
width = 100;
},
{
position = 581;
width = 100;
}
);
vhints = (
{
position = 173;
width = 100;
}
);
};
};
width = 459;
}
);
unicode = 00CE;
},
{
glyphname = Idieresis;
layers = (
{
layerId = master01;
paths = (
{
closed = 1;
nodes = (
"201 732 OFFCURVE",
"170 703 OFFCURVE",
"130 703 CURVE SMOOTH",
"94 703 OFFCURVE",
"65 727 OFFCURVE",
"65 762 CURVE SMOOTH",
"65 796 OFFCURVE",
"96 827 OFFCURVE",
"135 827 CURVE SMOOTH",
"169 827 OFFCURVE",
"201 801 OFFCURVE",
"201 767 CURVE SMOOTH"
);
},
{
closed = 1;
nodes = (
"389 732 OFFCURVE",
"358 703 OFFCURVE",
"318 703 CURVE SMOOTH",
"282 703 OFFCURVE",
"253 727 OFFCURVE",
"253 762 CURVE SMOOTH",
"253 796 OFFCURVE",
"284 827 OFFCURVE",
"324 827 CURVE SMOOTH",
"357 827 OFFCURVE",
"389 801 OFFCURVE",
"389 767 CURVE SMOOTH"
);
},
{
closed = 1;
nodes = (
"342 99 LINE SMOOTH",
"372 99 OFFCURVE",
"391 77 OFFCURVE",
"391 49 CURVE SMOOTH",
"391 21 OFFCURVE",
"370 -1 OFFCURVE",
"342 -1 CURVE SMOOTH",
"103 -1 LINE SMOOTH",
"75 -1 OFFCURVE",
"53 21 OFFCURVE",
"53 49 CURVE SMOOTH",
"53 77 OFFCURVE",
"75 99 OFFCURVE",
"103 99 CURVE SMOOTH",
"173 99 LINE",
"173 581 LINE",
"103 581 LINE SMOOTH",
"75 581 OFFCURVE",
"53 604 OFFCURVE",
"53 632 CURVE SMOOTH",
"53 660 OFFCURVE",
"75 681 OFFCURVE",
"103 681 CURVE SMOOTH",
"342 681 LINE SMOOTH",
"370 681 OFFCURVE",
"391 660 OFFCURVE",
"391 632 CURVE SMOOTH",
"391 604 OFFCURVE",
"370 581 OFFCURVE",
"342 581 CURVE SMOOTH",
"273 581 LINE",
"273 99 LINE"
);
}
);
userData = {
com.fontlab.hintData = {
hhints = (
{
position = -1;
width = 100;
},
{
position = 581;
width = 100;
},
{
position = 703;
width = 124;
}
);
vhints = (
{
position = 65;
width = 136;
},
{
position = 173;
width = 100;
},
{
position = 253;
width = 136;
}
);
};
};
width = 459;
}
);
unicode = 00CF;
},
{
glyphname = Igrave;
layers = (
{
layerId = master01;
paths = (
{
closed = 1;
nodes = (
"342 99 LINE SMOOTH",
"372 99 OFFCURVE",
"391 77 OFFCURVE",
"391 49 CURVE SMOOTH",
"391 21 OFFCURVE",
"370 -1 OFFCURVE",
"342 -1 CURVE SMOOTH",
"103 -1 LINE SMOOTH",
"75 -1 OFFCURVE",
"53 21 OFFCURVE",
"53 49 CURVE SMOOTH",
"53 77 OFFCURVE",
"75 99 OFFCURVE",
"103 99 CURVE SMOOTH",
"173 99 LINE",
"173 581 LINE",
"103 581 LINE SMOOTH",
"75 581 OFFCURVE",
"53 604 OFFCURVE",
"53 632 CURVE SMOOTH",
"53 660 OFFCURVE",
"75 681 OFFCURVE",
"103 681 CURVE SMOOTH",
"342 681 LINE SMOOTH",
"370 681 OFFCURVE",
"391 660 OFFCURVE",
"391 632 CURVE SMOOTH",
"391 604 OFFCURVE",
"370 581 OFFCURVE",
"342 581 CURVE SMOOTH",
"273 581 LINE",
"273 99 LINE"
);
},
{
closed = 1;
nodes = (
"130 824 LINE SMOOTH",
"120 834 OFFCURVE",
"114 846 OFFCURVE",
"114 862 CURVE SMOOTH",
"114 890 OFFCURVE",
"140 916 OFFCURVE",
"168 916 CURVE SMOOTH",
"186 916 OFFCURVE",
"202 906 OFFCURVE",
"212 894 CURVE SMOOTH",
"307 775 LINE SMOOTH",
"316 763 OFFCURVE",
"319 755 OFFCURVE",
"319 745 CURVE SMOOTH",
"319 718 OFFCURVE",
"295 698 OFFCURVE",
"271 698 CURVE SMOOTH",
"256 698 OFFCURVE",
"245 704 OFFCURVE",
"237 713 CURVE SMOOTH"
);
}
);
userData = {
com.fontlab.hintData = {
hhints = (
{
position = -1;
width = 100;
},
{
position = 581;
width = 100;
}
);
vhints = (
{
position = 173;
width = 100;
}
);
};
};
width = 459;
}
);
unicode = 00CC;
},
{
glyphname = J;
layers = (
{
layerId = master01;
paths = (
{
closed = 1;
nodes = (
"417 677 LINE SMOOTH",
"443 677 OFFCURVE",
"466 654 OFFCURVE",
"466 628 CURVE SMOOTH",
"466 600 OFFCURVE",
"443 578 OFFCURVE",
"417 578 CURVE",
"417 171 LINE SMOOTH",
"417 93 OFFCURVE",
"368 0 OFFCURVE",
"234 0 CURVE SMOOTH",
"67 0 OFFCURVE",
"45 137 OFFCURVE",
"45 181 CURVE SMOOTH",
"45 210 OFFCURVE",
"64 233 OFFCURVE",
"95 233 CURVE SMOOTH",
"123 233 OFFCURVE",
"145 211 OFFCURVE",
"145 183 CURVE SMOOTH",
"145 124 OFFCURVE",
"181 100 OFFCURVE",
"234 100 CURVE SMOOTH",
"308 100 OFFCURVE",
"317 150 OFFCURVE",
"317 171 CURVE SMOOTH",
"317 578 LINE",
"226 578 LINE SMOOTH",
"198 578 OFFCURVE",
"175 600 OFFCURVE",
"175 628 CURVE SMOOTH",
"175 654 OFFCURVE",
"198 677 OFFCURVE",
"226 677 CURVE SMOOTH"
);
}
);
userData = {
com.fontlab.hintData = {
hhints = (
{
position = 0;
width = 100;
},
{
position = 578;
width = 99;
}
);
vhints = (
{
position = 45;
width = 100;
},
{
position = 175;
width = 291;
},
{
position = 317;
width = 100;
}
);
};
};
width = 498;
}
);
unicode = 004A;
},
{
glyphname = Jcircumflex;
layers = (
{
layerId = master01;
paths = (
{
closed = 1;
nodes = (
"417 677 LINE SMOOTH",
"443 677 OFFCURVE",
"466 654 OFFCURVE",
"466 628 CURVE SMOOTH",
"466 600 OFFCURVE",
"443 578 OFFCURVE",
"417 578 CURVE",
"417 171 LINE SMOOTH",
"417 93 OFFCURVE",
"368 0 OFFCURVE",
"234 0 CURVE SMOOTH",
"67 0 OFFCURVE",
"45 137 OFFCURVE",
"45 181 CURVE SMOOTH",
"45 210 OFFCURVE",
"64 233 OFFCURVE",
"95 233 CURVE SMOOTH",
"123 233 OFFCURVE",
"145 211 OFFCURVE",
"145 183 CURVE SMOOTH",
"145 124 OFFCURVE",
"181 100 OFFCURVE",
"234 100 CURVE SMOOTH",
"308 100 OFFCURVE",
"317 150 OFFCURVE",
"317 171 CURVE SMOOTH",
"317 578 LINE",
"226 578 LINE SMOOTH",
"198 578 OFFCURVE",
"175 600 OFFCURVE",
"175 628 CURVE SMOOTH",
"175 654 OFFCURVE",
"198 677 OFFCURVE",
"226 677 CURVE SMOOTH"
);
},
{
closed = 1;
nodes = (
"303 886 LINE SMOOTH",
"314 895 OFFCURVE",
"326 898 OFFCURVE",
"335 898 CURVE SMOOTH",
"347 898 OFFCURVE",
"361 892 OFFCURVE",
"373 880 CURVE SMOOTH",
"469 784 LINE SMOOTH",
"479 774 OFFCURVE",
"483 763 OFFCURVE",
"483 750 CURVE SMOOTH",
"483 725 OFFCURVE",
"462 703 OFFCURVE",
"437 703 CURVE SMOOTH",
"425 703 OFFCURVE",
"415 705 OFFCURVE",
"404 715 CURVE SMOOTH",
"331 781 LINE",
"242 712 LINE SMOOTH",
"231 704 OFFCURVE",
"223 703 OFFCURVE",
"213 703 CURVE SMOOTH",
"188 703 OFFCURVE",
"166 723 OFFCURVE",
"166 750 CURVE SMOOTH",
"166 763 OFFCURVE",
"172 776 OFFCURVE",
"184 786 CURVE SMOOTH"
);
}
);
userData = {
com.fontlab.hintData = {
hhints = (
{
position = 0;
width = 100;
},
{
position = 578;
width = 99;
}
);
vhints = (
{
position = 45;
width = 100;
},
{
position = 175;
width = 291;
},
{
position = 317;
width = 100;
}
);
};
};
width = 498;
}
);
unicode = 0134;
},
{
glyphname = K;
layers = (
{
layerId = master01;
paths = (
{
closed = 1;
nodes = (
"158 238 LINE",
"158 49 LINE SMOOTH",
"158 23 OFFCURVE",
"135 0 OFFCURVE",
"109 0 CURVE SMOOTH",
"82 0 OFFCURVE",
"60 23 OFFCURVE",
"60 49 CURVE SMOOTH",
"60 632 LINE SMOOTH",
"60 660 OFFCURVE",
"82 681 OFFCURVE",
"109 681 CURVE SMOOTH",
"135 681 OFFCURVE",
"158 660 OFFCURVE",
"158 632 CURVE SMOOTH",
"158 436 LINE",
"431 670 LINE SMOOTH",
"439 677 OFFCURVE",
"450 682 OFFCURVE",
"463 682 CURVE SMOOTH",
"488 682 OFFCURVE",
"511 657 OFFCURVE",
"511 632 CURVE SMOOTH",
"511 618 OFFCURVE",
"507 606 OFFCURVE",
"494 595 CURVE SMOOTH",
"192 336 LINE",
"511 87 LINE SMOOTH",
"527 75 OFFCURVE",
"530 61 OFFCURVE",
"530 48 CURVE SMOOTH",
"530 20 OFFCURVE",
"508 -1 OFFCURVE",
"481 -1 CURVE SMOOTH",
"469 -1 OFFCURVE",
"459 3 OFFCURVE",
"451 9 CURVE SMOOTH"
);
}
);
userData = {
com.fontlab.hintData = {
hhints = (
{
position = 0;
width = 21;
},
{
position = 661;
width = 20;
}
);
vhints = (
{
position = 60;
width = 98;
}
);
};
};
width = 596;
}
);
unicode = 004B;
},
{
glyphname = L;
layers = (
{
layerId = master01;
paths = (
{
closed = 1;
nodes = (
"111 0 LINE SMOOTH",
"109.943 -0.078 OFFCURVE",
"108.89 -0.117 OFFCURVE",
"107.84 -0.117 CURVE SMOOTH",
"82.081 -0.117 OFFCURVE",
"59 23.057 OFFCURVE",
"59 49 CURVE SMOOTH",
"59 632 LINE SMOOTH",
"59 658 OFFCURVE",
"81 681 OFFCURVE",
"109 681 CURVE SMOOTH",
"135 681 OFFCURVE",
"158 658 OFFCURVE",
"158 632 CURVE SMOOTH",
"158 102 LINE",
"426 121 LINE SMOOTH",
"427.379 121.092 OFFCURVE",
"428.744 121.137 OFFCURVE",
"430.093 121.137 CURVE SMOOTH",
"458.067 121.137 OFFCURVE",
"479 101.575 OFFCURVE",
"479 72 CURVE SMOOTH",
"479 48 OFFCURVE",
"459 24 OFFCURVE",
"434 22 CURVE SMOOTH"
);
}
);
userData = {
com.fontlab.hintData = {
hhints = (
{
position = 0;
width = 121;
},
{
position = 661;
width = 20;
}
);
vhints = (
{
position = 59;
width = 99;
}
);
};
};
width = 503;
}
);
unicode = 004C;
},
{
glyphname = Lacute;
layers = (
{
layerId = master01;
paths = (
{
closed = 1;
nodes = (
"111 0 LINE SMOOTH",
"109.943 -0.078 OFFCURVE",
"108.89 -0.117 OFFCURVE",
"107.84 -0.117 CURVE SMOOTH",
"82.081 -0.117 OFFCURVE",
"59 23.057 OFFCURVE",
"59 49 CURVE SMOOTH",
"59 632 LINE SMOOTH",
"59 658 OFFCURVE",
"81 681 OFFCURVE",
"109 681 CURVE SMOOTH",
"135 681 OFFCURVE",
"158 658 OFFCURVE",
"158 632 CURVE SMOOTH",
"158 102 LINE",
"426 121 LINE SMOOTH",
"427.379 121.092 OFFCURVE",
"428.744 121.137 OFFCURVE",
"430.093 121.137 CURVE SMOOTH",
"458.067 121.137 OFFCURVE",
"479 101.575 OFFCURVE",
"479 72 CURVE SMOOTH",
"479 48 OFFCURVE",
"459 24 OFFCURVE",
"434 22 CURVE SMOOTH"
);
},
{
closed = 1;
nodes = (
"268 883 LINE SMOOTH",
"278 891 OFFCURVE",
"292 902 OFFCURVE",
"309 902 CURVE SMOOTH",
"339 902 OFFCURVE",
"362 878 OFFCURVE",
"362 847 CURVE SMOOTH",
"362 832 OFFCURVE",
"357 817 OFFCURVE",
"343 807 CURVE SMOOTH",
"219 722 LINE SMOOTH",
"209 715 OFFCURVE",
"197 709 OFFCURVE",
"186 709 CURVE SMOOTH",
"162 709 OFFCURVE",
"140 730 OFFCURVE",
"140 757 CURVE SMOOTH",
"140 768 OFFCURVE",
"142 781 OFFCURVE",
"153 790 CURVE SMOOTH"
);
}
);
userData = {
com.fontlab.hintData = {
hhints = (
{
position = 0;
width = 121;
},
{
position = 661;
width = 20;
}
);
vhints = (
{
position = 59;
width = 99;
}
);
};
};
width = 503;
}
);
unicode = 0139;
},
{
glyphname = Lcaron;
layers = (
{
layerId = master01;
paths = (
{
closed = 1;
nodes = (
"192 721 LINE SMOOTH",
"181 712 OFFCURVE",
"169 709 OFFCURVE",
"160 709 CURVE SMOOTH",
"148 709 OFFCURVE",
"134 715 OFFCURVE",
"122 727 CURVE SMOOTH",
"26 823 LINE SMOOTH",
"16 833 OFFCURVE",
"12 844 OFFCURVE",
"12 857 CURVE SMOOTH",
"12 882 OFFCURVE",
"33 904 OFFCURVE",
"58 904 CURVE SMOOTH",
"70 904 OFFCURVE",
"80 902 OFFCURVE",
"91 892 CURVE SMOOTH",
"164 826 LINE",
"253 895 LINE SMOOTH",
"264 903 OFFCURVE",
"272 904 OFFCURVE",
"282 904 CURVE SMOOTH",
"307 904 OFFCURVE",
"329 884 OFFCURVE",
"329 857 CURVE SMOOTH",
"329 844 OFFCURVE",
"323 831 OFFCURVE",
"311 821 CURVE SMOOTH"
);
},
{
closed = 1;
nodes = (
"111 0 LINE SMOOTH",
"109.943 -0.078 OFFCURVE",
"108.89 -0.117 OFFCURVE",
"107.84 -0.117 CURVE SMOOTH",
"82.081 -0.117 OFFCURVE",
"59 23.057 OFFCURVE",
"59 49 CURVE SMOOTH",
"59 632 LINE SMOOTH",
"59 658 OFFCURVE",
"81 681 OFFCURVE",
"109 681 CURVE SMOOTH",
"135 681 OFFCURVE",
"158 658 OFFCURVE",
"158 632 CURVE SMOOTH",
"158 102 LINE",
"426 121 LINE SMOOTH",
"427.379 121.092 OFFCURVE",
"428.744 121.137 OFFCURVE",
"430.093 121.137 CURVE SMOOTH",
"458.067 121.137 OFFCURVE",
"479 101.575 OFFCURVE",
"479 72 CURVE SMOOTH",
"479 48 OFFCURVE",
"459 24 OFFCURVE",
"434 22 CURVE SMOOTH"
);
}
);
userData = {
com.fontlab.hintData = {
hhints = (
{
position = 0;
width = 121;
},
{
position = 661;
width = 20;
}
);
vhints = (
{
position = 59;
width = 99;
}
);
};
};
width = 503;
}
);
unicode = 013D;
},
{
glyphname = Lslash;
layers = (
{
layerId = master01;
paths = (
{
closed = 1;
nodes = (
"107 373 LINE",
"107 632 LINE SMOOTH",
"107 658 OFFCURVE",
"129 681 OFFCURVE",
"157 681 CURVE SMOOTH",
"183 681 OFFCURVE",
"206 658 OFFCURVE",
"206 632 CURVE SMOOTH",
"206 435 LINE",
"221 445 LINE SMOOTH",
"232 452 OFFCURVE",
"240 453 OFFCURVE",
"248 453 CURVE SMOOTH",
"275 453 OFFCURVE",
"299 432 OFFCURVE",
"299 402 CURVE SMOOTH",
"299 387 OFFCURVE",
"293 373 OFFCURVE",
"276 362 CURVE SMOOTH",
"206 317 LINE",
"206 102 LINE",
"474 121 LINE SMOOTH",
"475.379 121.092 OFFCURVE",
"476.744 121.137 OFFCURVE",
"478.093 121.137 CURVE SMOOTH",
"506.067 121.137 OFFCURVE",
"527 101.575 OFFCURVE",
"527 72 CURVE SMOOTH",
"527 48 OFFCURVE",
"507 24 OFFCURVE",
"482 22 CURVE SMOOTH",
"159 0 LINE SMOOTH",
"157.943 -0.078 OFFCURVE",
"156.89 -0.117 OFFCURVE",
"155.84 -0.117 CURVE SMOOTH",
"130.081 -0.117 OFFCURVE",
"107 23.057 OFFCURVE",
"107 49 CURVE SMOOTH",
"107 255 LINE",
"91 245 LINE SMOOTH",
"83 240 OFFCURVE",
"74 238 OFFCURVE",
"64 238 CURVE SMOOTH",
"41 238 OFFCURVE",
"15 253 OFFCURVE",
"15 286 CURVE SMOOTH",
"15 304 OFFCURVE",
"22 319 OFFCURVE",
"37 329 CURVE SMOOTH"
);
}
);
userData = {
com.fontlab.hintData = {
hhints = (
{
position = 0;
width = 121;
},
{
position = 661;
width = 20;
}
);
vhints = (
{
position = 107;
width = 99;
}
);
};
};
width = 554;
}
);
unicode = 0141;
},
{
glyphname = M;
layers = (
{
layerId = master01;
paths = (
{
closed = 1;
nodes = (
"797 76 LINE SMOOTH",
"800 62 OFFCURVE",
"802 53 OFFCURVE",
"802 46 CURVE SMOOTH",
"802 22 OFFCURVE",
"782 0 OFFCURVE",
"753 0 CURVE SMOOTH",
"727 0 OFFCURVE",
"710 16 OFFCURVE",
"705 38 CURVE SMOOTH",
"613 456 LINE",
"459 32 LINE SMOOTH",
"452 12 OFFCURVE",
"434 0 OFFCURVE",
"412 0 CURVE SMOOTH",
"392 0 OFFCURVE",
"374 10 OFFCURVE",
"366 34 CURVE SMOOTH",
"236 441 LINE",
"148 39 LINE SMOOTH",
"143 15 OFFCURVE",
"126 0 OFFCURVE",
"99 0 CURVE SMOOTH",
"67 0 OFFCURVE",
"52 23 OFFCURVE",
"52 42 CURVE SMOOTH",
"52 47 OFFCURVE",
"52 58 OFFCURVE",
"56 75 CURVE SMOOTH",
"180 642 LINE SMOOTH",
"185 667 OFFCURVE",
"205 681 OFFCURVE",
"229 681 CURVE SMOOTH",
"253 681 OFFCURVE",
"268 668 OFFCURVE",
"275 647 CURVE SMOOTH",
"416 204 LINE",
"576 649 LINE SMOOTH",
"584 671 OFFCURVE",
"601 681 OFFCURVE",
"626 681 CURVE SMOOTH",
"650 681 OFFCURVE",
"665 665 OFFCURVE",
"670 642 CURVE SMOOTH"
);
}
);
userData = {
com.fontlab.hintData = {
hhints = (
{
position = 0;
width = 21;
},
{
position = 661;
width = 20;
}
);
vhints = (
{
position = 52;
width = 96;
},
{
position = 705;
width = 97;
}
);
};
};
width = 883;
}
);
unicode = 004D;
},
{
glyphname = N;
layers = (
{
layerId = master01;
paths = (
{
closed = 1;
nodes = (
"161 473 LINE",
"160 49 LINE SMOOTH",
"160 21 OFFCURVE",
"138 0 OFFCURVE",
"110 0 CURVE SMOOTH",
"84 0 OFFCURVE",
"61 23 OFFCURVE",
"61 49 CURVE SMOOTH",
"62 632 LINE SMOOTH",
"62 658 OFFCURVE",
"81 681 OFFCURVE",
"110 681 CURVE SMOOTH",
"125 681 OFFCURVE",
"142 673 OFFCURVE",
"151 660 CURVE SMOOTH",
"464 207 LINE",
"464 632 LINE SMOOTH",
"464 659 OFFCURVE",
"486 682 OFFCURVE",
"514 682 CURVE SMOOTH",
"540 682 OFFCURVE",
"563 659 OFFCURVE",
"563 632 CURVE SMOOTH",
"563 49 LINE SMOOTH",
"563 20 OFFCURVE",
"541 0 OFFCURVE",
"514 0 CURVE SMOOTH",
"499 0 OFFCURVE",
"483 8 OFFCURVE",
"473 22 CURVE SMOOTH"
);
}
);
userData = {
com.fontlab.hintData = {
hhints = (
{
position = 0;
width = 21;
},
{
position = 661;
width = 20;
}
);
vhints = (
{
position = 61;
width = 99;
},
{
position = 464;
width = 99;
}
);
};
};
width = 645;
}
);
unicode = 004E;
},
{
glyphname = Nacute;
layers = (
{
layerId = master01;
paths = (
{
closed = 1;
nodes = (
"161 473 LINE",
"160 49 LINE SMOOTH",
"160 21 OFFCURVE",
"138 0 OFFCURVE",
"110 0 CURVE SMOOTH",
"84 0 OFFCURVE",
"61 23 OFFCURVE",
"61 49 CURVE SMOOTH",
"62 632 LINE SMOOTH",
"62 658 OFFCURVE",
"81 681 OFFCURVE",
"110 681 CURVE SMOOTH",
"125 681 OFFCURVE",
"142 673 OFFCURVE",
"151 660 CURVE SMOOTH",
"464 207 LINE",
"464 632 LINE SMOOTH",
"464 659 OFFCURVE",
"486 682 OFFCURVE",
"514 682 CURVE SMOOTH",
"540 682 OFFCURVE",
"563 659 OFFCURVE",
"563 632 CURVE SMOOTH",
"563 49 LINE SMOOTH",
"563 20 OFFCURVE",
"541 0 OFFCURVE",
"514 0 CURVE SMOOTH",
"499 0 OFFCURVE",
"483 8 OFFCURVE",
"473 22 CURVE SMOOTH"
);
},
{
closed = 1;
nodes = (
"348 883 LINE SMOOTH",
"358 891 OFFCURVE",
"372 902 OFFCURVE",
"389 902 CURVE SMOOTH",
"419 902 OFFCURVE",
"442 878 OFFCURVE",
"442 847 CURVE SMOOTH",
"442 832 OFFCURVE",
"437 817 OFFCURVE",
"423 807 CURVE SMOOTH",
"299 722 LINE SMOOTH",
"289 715 OFFCURVE",
"277 709 OFFCURVE",
"266 709 CURVE SMOOTH",
"242 709 OFFCURVE",
"220 730 OFFCURVE",
"220 757 CURVE SMOOTH",
"220 768 OFFCURVE",
"222 781 OFFCURVE",
"233 790 CURVE SMOOTH"
);
}
);
userData = {
com.fontlab.hintData = {
hhints = (
{
position = 0;
width = 21;
},
{
position = 661;
width = 20;
}
);
vhints = (
{
position = 61;
width = 99;
},
{
position = 464;
width = 99;
}
);
};
};
width = 645;
}
);
unicode = 0143;
},
{
glyphname = Ncaron;
layers = (
{
layerId = master01;
paths = (
{
closed = 1;
nodes = (
"343 721 LINE SMOOTH",
"332 712 OFFCURVE",
"320 709 OFFCURVE",
"311 709 CURVE SMOOTH",
"299 709 OFFCURVE",
"285 715 OFFCURVE",
"273 727 CURVE SMOOTH",
"177 823 LINE SMOOTH",
"167 833 OFFCURVE",
"163 844 OFFCURVE",
"163 857 CURVE SMOOTH",
"163 882 OFFCURVE",
"184 904 OFFCURVE",
"209 904 CURVE SMOOTH",
"221 904 OFFCURVE",
"231 902 OFFCURVE",
"242 892 CURVE SMOOTH",
"315 826 LINE",
"404 895 LINE SMOOTH",
"415 903 OFFCURVE",
"423 904 OFFCURVE",
"433 904 CURVE SMOOTH",
"458 904 OFFCURVE",
"480 884 OFFCURVE",
"480 857 CURVE SMOOTH",
"480 844 OFFCURVE",
"474 831 OFFCURVE",
"462 821 CURVE SMOOTH"
);
},
{
closed = 1;
nodes = (
"161 473 LINE",
"160 49 LINE SMOOTH",
"160 21 OFFCURVE",
"138 0 OFFCURVE",
"110 0 CURVE SMOOTH",
"84 0 OFFCURVE",
"61 23 OFFCURVE",
"61 49 CURVE SMOOTH",
"62 632 LINE SMOOTH",
"62 658 OFFCURVE",
"81 681 OFFCURVE",
"110 681 CURVE SMOOTH",
"125 681 OFFCURVE",
"142 673 OFFCURVE",
"151 660 CURVE SMOOTH",
"464 207 LINE",
"464 632 LINE SMOOTH",
"464 659 OFFCURVE",
"486 682 OFFCURVE",
"514 682 CURVE SMOOTH",
"540 682 OFFCURVE",
"563 659 OFFCURVE",
"563 632 CURVE SMOOTH",
"563 49 LINE SMOOTH",
"563 20 OFFCURVE",
"541 0 OFFCURVE",
"514 0 CURVE SMOOTH",
"499 0 OFFCURVE",
"483 8 OFFCURVE",
"473 22 CURVE SMOOTH"
);
}
);
userData = {
com.fontlab.hintData = {
hhints = (
{
position = 0;
width = 21;
},
{
position = 661;
width = 20;
}
);
vhints = (
{
position = 61;
width = 99;
},
{
position = 464;
width = 99;
}
);
};
};
width = 645;
}
);
unicode = 0147;
},
{
glyphname = Ntilde;
layers = (
{
layerId = master01;
paths = (
{
closed = 1;
nodes = (
"161 473 LINE",
"160 49 LINE SMOOTH",
"160 21 OFFCURVE",
"138 0 OFFCURVE",
"110 0 CURVE SMOOTH",
"84 0 OFFCURVE",
"61 23 OFFCURVE",
"61 49 CURVE SMOOTH",
"62 632 LINE SMOOTH",
"62 658 OFFCURVE",
"81 681 OFFCURVE",
"110 681 CURVE SMOOTH",
"125 681 OFFCURVE",
"142 673 OFFCURVE",
"151 660 CURVE SMOOTH",
"464 207 LINE",
"464 632 LINE SMOOTH",
"464 659 OFFCURVE",
"486 682 OFFCURVE",
"514 682 CURVE SMOOTH",
"540 682 OFFCURVE",
"563 659 OFFCURVE",
"563 632 CURVE SMOOTH",
"563 49 LINE SMOOTH",
"563 20 OFFCURVE",
"541 0 OFFCURVE",
"514 0 CURVE SMOOTH",
"499 0 OFFCURVE",
"483 8 OFFCURVE",
"473 22 CURVE SMOOTH"
);
},
{
closed = 1;
nodes = (
"453 886 OFFCURVE",
"465 893 OFFCURVE",
"480 893 CURVE SMOOTH",
"499 893 OFFCURVE",
"519 883 OFFCURVE",
"519 860 CURVE SMOOTH",
"519 856 OFFCURVE",
"519 849 OFFCURVE",
"516 838 CURVE SMOOTH",
"506 807 OFFCURVE",
"471 705 OFFCURVE",
"370 705 CURVE SMOOTH",
"338 705 OFFCURVE",
"311 722 OFFCURVE",
"289 753 CURVE SMOOTH",
"273 776 OFFCURVE",
"262 788 OFFCURVE",
"247 788 CURVE SMOOTH",
"212 788 OFFCURVE",
"195 736 OFFCURVE",
"190 720 CURVE SMOOTH",
"185 705 OFFCURVE",
"176 698 OFFCURVE",
"161 698 CURVE SMOOTH",
"142 698 OFFCURVE",
"122 708 OFFCURVE",
"122 731 CURVE SMOOTH",
"122 735 OFFCURVE",
"122 742 OFFCURVE",
"125 753 CURVE SMOOTH",
"142 810 OFFCURVE",
"181 877 OFFCURVE",
"259 877 CURVE SMOOTH",
"298 877 OFFCURVE",
"324 860 OFFCURVE",
"346 829 CURVE SMOOTH",
"362 807 OFFCURVE",
"373 793 OFFCURVE",
"388 793 CURVE SMOOTH",
"409 793 OFFCURVE",
"435 817 OFFCURVE",
"449 871 CURVE SMOOTH"
);
}
);
userData = {
com.fontlab.hintData = {
hhints = (
{
position = 0;
width = 21;
},
{
position = 661;
width = 20;
},
{
position = 705;
width = 88;
},
{
position = 788;
width = 89;
}
);
vhints = (
{
position = 61;
width = 99;
},
{
position = 122;
width = 68;
},
{
position = 449;
width = 70;
},
{
position = 464;
width = 99;
}
);
};
};
width = 645;
}
);
unicode = 00D1;
},
{
glyphname = O;
lastChange = "2019-10-15 22:50:45 +0000";
layers = (
{
layerId = master01;
paths = (
{
closed = 1;
nodes = (
"470 -2 OFFCURVE",
"606 166 OFFCURVE",
"606 365 CURVE SMOOTH",
"606 538 OFFCURVE",
"498 682 OFFCURVE",
"351 682 CURVE SMOOTH",
"194 682 OFFCURVE",
"57 514 OFFCURVE",
"57 315 CURVE SMOOTH",
"57 144 OFFCURVE",
"163 -2 OFFCURVE",
"312 -2 CURVE SMOOTH"
);
},
{
closed = 1;
nodes = (
"220 93 OFFCURVE",
"153 194 OFFCURVE",
"153 315 CURVE SMOOTH",
"153 466 OFFCURVE",
"242 587 OFFCURVE",
"345 587 CURVE SMOOTH",
"442 587 OFFCURVE",
"511 475 OFFCURVE",
"511 361 CURVE SMOOTH",
"511 216 OFFCURVE",
"415 93 OFFCURVE",
"312 93 CURVE SMOOTH"
);
}
);
userData = {
com.fontlab.hintData = {
hhints = (
{
position = -2;
width = 95;
},
{
position = 587;
width = 95;
}
);
vhints = (
{
position = 57;
width = 96;
},
{
position = 511;
width = 95;
}
);
};
};
width = 686;
}
);
unicode = 004F;
},
{
glyphname = Oacute;
layers = (
{
layerId = master01;
paths = (
{
closed = 1;
nodes = (
"163 -2 OFFCURVE",
"57 144 OFFCURVE",
"57 315 CURVE SMOOTH",
"57 514 OFFCURVE",
"194 682 OFFCURVE",
"351 682 CURVE SMOOTH",
"498 682 OFFCURVE",
"606 538 OFFCURVE",
"606 365 CURVE SMOOTH",
"606 166 OFFCURVE",
"470 -2 OFFCURVE",
"312 -2 CURVE SMOOTH"
);
},
{
closed = 1;
nodes = (
"242 587 OFFCURVE",
"153 466 OFFCURVE",
"153 315 CURVE SMOOTH",
"153 194 OFFCURVE",
"220 93 OFFCURVE",
"312 93 CURVE SMOOTH",
"415 93 OFFCURVE",
"511 216 OFFCURVE",
"511 361 CURVE SMOOTH",
"511 475 OFFCURVE",
"442 587 OFFCURVE",
"345 587 CURVE SMOOTH"
);
},
{
closed = 1;
nodes = (
"383 883 LINE SMOOTH",
"393 891 OFFCURVE",
"407 902 OFFCURVE",
"424 902 CURVE SMOOTH",
"454 902 OFFCURVE",
"477 878 OFFCURVE",
"477 847 CURVE SMOOTH",
"477 832 OFFCURVE",
"472 817 OFFCURVE",
"458 807 CURVE SMOOTH",
"334 722 LINE SMOOTH",
"324 715 OFFCURVE",
"312 709 OFFCURVE",
"301 709 CURVE SMOOTH",
"277 709 OFFCURVE",
"255 730 OFFCURVE",
"255 757 CURVE SMOOTH",
"255 768 OFFCURVE",
"257 781 OFFCURVE",
"268 790 CURVE SMOOTH"
);
}
);
userData = {
com.fontlab.hintData = {
hhints = (
{
position = -2;
width = 95;
},
{
position = 587;
width = 95;
}
);
vhints = (
{
position = 57;
width = 96;
},
{
position = 511;
width = 95;
}
);
};
};
width = 686;
}
);
unicode = 00D3;
},
{
glyphname = Ocircumflex;
layers = (
{
layerId = master01;
paths = (
{
closed = 1;
nodes = (
"163 -2 OFFCURVE",
"57 144 OFFCURVE",
"57 315 CURVE SMOOTH",
"57 514 OFFCURVE",
"194 682 OFFCURVE",
"351 682 CURVE SMOOTH",
"498 682 OFFCURVE",
"606 538 OFFCURVE",
"606 365 CURVE SMOOTH",
"606 166 OFFCURVE",
"470 -2 OFFCURVE",
"312 -2 CURVE SMOOTH"
);
},
{
closed = 1;
nodes = (
"242 587 OFFCURVE",
"153 466 OFFCURVE",
"153 315 CURVE SMOOTH",
"153 194 OFFCURVE",
"220 93 OFFCURVE",
"312 93 CURVE SMOOTH",
"415 93 OFFCURVE",
"511 216 OFFCURVE",
"511 361 CURVE SMOOTH",
"511 475 OFFCURVE",
"442 587 OFFCURVE",
"345 587 CURVE SMOOTH"
);
},
{
closed = 1;
nodes = (
"335 886 LINE SMOOTH",
"346 895 OFFCURVE",
"358 898 OFFCURVE",
"367 898 CURVE SMOOTH",
"379 898 OFFCURVE",
"393 892 OFFCURVE",
"405 880 CURVE SMOOTH",
"501 784 LINE SMOOTH",
"511 774 OFFCURVE",
"515 763 OFFCURVE",
"515 750 CURVE SMOOTH",
"515 725 OFFCURVE",
"494 703 OFFCURVE",
"469 703 CURVE SMOOTH",
"457 703 OFFCURVE",
"447 705 OFFCURVE",
"436 715 CURVE SMOOTH",
"363 781 LINE",
"274 712 LINE SMOOTH",
"263 704 OFFCURVE",
"255 703 OFFCURVE",
"245 703 CURVE SMOOTH",
"220 703 OFFCURVE",
"198 723 OFFCURVE",
"198 750 CURVE SMOOTH",
"198 763 OFFCURVE",
"204 776 OFFCURVE",
"216 786 CURVE SMOOTH"
);
}
);
userData = {
com.fontlab.hintData = {
hhints = (
{
position = -2;
width = 95;
},
{
position = 587;
width = 95;
}
);
vhints = (
{
position = 57;
width = 96;
},
{
position = 511;
width = 95;
}
);
};
};
width = 686;
}
);
unicode = 00D4;
},
{
glyphname = Odieresis;
layers = (
{
layerId = master01;
paths = (
{
closed = 1;
nodes = (
"336 732 OFFCURVE",
"305 703 OFFCURVE",
"265 703 CURVE SMOOTH",
"229 703 OFFCURVE",
"200 727 OFFCURVE",
"200 762 CURVE SMOOTH",
"200 796 OFFCURVE",
"232 827 OFFCURVE",
"271 827 CURVE SMOOTH",
"304 827 OFFCURVE",
"336 801 OFFCURVE",
"336 767 CURVE SMOOTH"
);
},
{
closed = 1;
nodes = (
"524 732 OFFCURVE",
"493 703 OFFCURVE",
"453 703 CURVE SMOOTH",
"417 703 OFFCURVE",
"388 727 OFFCURVE",
"388 762 CURVE SMOOTH",
"388 796 OFFCURVE",
"420 827 OFFCURVE",
"459 827 CURVE SMOOTH",
"492 827 OFFCURVE",
"524 801 OFFCURVE",
"524 767 CURVE SMOOTH"
);
},
{
closed = 1;
nodes = (
"163 -2 OFFCURVE",
"57 144 OFFCURVE",
"57 315 CURVE SMOOTH",
"57 514 OFFCURVE",
"194 682 OFFCURVE",
"351 682 CURVE SMOOTH",
"498 682 OFFCURVE",
"606 538 OFFCURVE",
"606 365 CURVE SMOOTH",
"606 166 OFFCURVE",
"470 -2 OFFCURVE",
"312 -2 CURVE SMOOTH"
);
},
{
closed = 1;
nodes = (
"242 587 OFFCURVE",
"153 466 OFFCURVE",
"153 315 CURVE SMOOTH",
"153 194 OFFCURVE",
"220 93 OFFCURVE",
"312 93 CURVE SMOOTH",
"415 93 OFFCURVE",
"511 216 OFFCURVE",
"511 361 CURVE SMOOTH",
"511 475 OFFCURVE",
"442 587 OFFCURVE",
"345 587 CURVE SMOOTH"
);
}
);
userData = {
com.fontlab.hintData = {
hhints = (
{
position = -2;
width = 95;
},
{
position = 587;
width = 95;
},
{
position = 703;
width = 124;
}
);
vhints = (
{
position = 57;
width = 96;
},
{
position = 200;
width = 136;
},
{
position = 388;
width = 136;
},
{
position = 511;
width = 95;
}
);
};
};
width = 686;
}
);
unicode = 00D6;
},
{
glyphname = Ograve;
layers = (
{
layerId = master01;
paths = (
{
closed = 1;
nodes = (
"163 -2 OFFCURVE",
"57 144 OFFCURVE",
"57 315 CURVE SMOOTH",
"57 514 OFFCURVE",
"194 682 OFFCURVE",
"351 682 CURVE SMOOTH",
"498 682 OFFCURVE",
"606 538 OFFCURVE",
"606 365 CURVE SMOOTH",
"606 166 OFFCURVE",
"470 -2 OFFCURVE",
"312 -2 CURVE SMOOTH"
);
},
{
closed = 1;
nodes = (
"242 587 OFFCURVE",
"153 466 OFFCURVE",
"153 315 CURVE SMOOTH",
"153 194 OFFCURVE",
"220 93 OFFCURVE",
"312 93 CURVE SMOOTH",
"415 93 OFFCURVE",
"511 216 OFFCURVE",
"511 361 CURVE SMOOTH",
"511 475 OFFCURVE",
"442 587 OFFCURVE",
"345 587 CURVE SMOOTH"
);
},
{
closed = 1;
nodes = (
"258 824 LINE SMOOTH",
"248 834 OFFCURVE",
"242 846 OFFCURVE",
"242 862 CURVE SMOOTH",
"242 890 OFFCURVE",
"268 916 OFFCURVE",
"296 916 CURVE SMOOTH",
"314 916 OFFCURVE",
"330 906 OFFCURVE",
"340 894 CURVE SMOOTH",
"435 775 LINE SMOOTH",
"444 763 OFFCURVE",
"447 755 OFFCURVE",
"447 745 CURVE SMOOTH",
"447 718 OFFCURVE",
"423 698 OFFCURVE",
"399 698 CURVE SMOOTH",
"384 698 OFFCURVE",
"373 704 OFFCURVE",
"365 713 CURVE SMOOTH"
);
}
);
userData = {
com.fontlab.hintData = {
hhints = (
{
position = -2;
width = 95;
},
{
position = 587;
width = 95;
}
);
vhints = (
{
position = 57;
width = 96;
},
{
position = 511;
width = 95;
}
);
};
};
width = 686;
}
);
unicode = 00D2;
},
{
glyphname = Ohungarumlaut;
layers = (
{
layerId = master01;
paths = (
{
closed = 1;
nodes = (
"163 -2 OFFCURVE",
"57 144 OFFCURVE",
"57 315 CURVE SMOOTH",
"57 514 OFFCURVE",
"194 682 OFFCURVE",
"351 682 CURVE SMOOTH",
"498 682 OFFCURVE",
"607 538 OFFCURVE",
"607 365 CURVE SMOOTH",
"607 166 OFFCURVE",
"470 -2 OFFCURVE",
"312 -2 CURVE SMOOTH"
);
},
{
closed = 1;
nodes = (
"242 587 OFFCURVE",
"153 466 OFFCURVE",
"153 315 CURVE SMOOTH",
"153 194 OFFCURVE",
"220 93 OFFCURVE",
"312 93 CURVE SMOOTH",
"415 93 OFFCURVE",
"511 216 OFFCURVE",
"511 361 CURVE SMOOTH",
"511 475 OFFCURVE",
"442 587 OFFCURVE",
"345 587 CURVE SMOOTH"
);
},
{
closed = 1;
nodes = (
"285 704 LINE SMOOTH",
"275 697 OFFCURVE",
"264 692 OFFCURVE",
"253 692 CURVE SMOOTH",
"229 692 OFFCURVE",
"207 713 OFFCURVE",
"207 740 CURVE SMOOTH",
"207 751 OFFCURVE",
"210 763 OFFCURVE",
"221 772 CURVE SMOOTH",
"335 866 LINE SMOOTH",
"345 875 OFFCURVE",
"360 885 OFFCURVE",
"376 885 CURVE SMOOTH",
"406 885 OFFCURVE",
"430 861 OFFCURVE",
"430 830 CURVE SMOOTH",
"430 815 OFFCURVE",
"425 799 OFFCURVE",
"411 790 CURVE SMOOTH"
);
},
{
closed = 1;
nodes = (
"490 704 LINE SMOOTH",
"480 697 OFFCURVE",
"469 692 OFFCURVE",
"458 692 CURVE SMOOTH",
"434 692 OFFCURVE",
"412 713 OFFCURVE",
"412 740 CURVE SMOOTH",
"412 751 OFFCURVE",
"415 763 OFFCURVE",
"426 772 CURVE SMOOTH",
"540 866 LINE SMOOTH",
"550 875 OFFCURVE",
"565 885 OFFCURVE",
"581 885 CURVE SMOOTH",
"611 885 OFFCURVE",
"635 861 OFFCURVE",
"635 830 CURVE SMOOTH",
"635 815 OFFCURVE",
"630 799 OFFCURVE",
"616 790 CURVE SMOOTH"
);
}
);
userData = {
com.fontlab.hintData = {
hhints = (
{
position = -2;
width = 95;
},
{
position = 587;
width = 95;
}
);
vhints = (
{
position = 57;
width = 96;
},
{
position = 511;
width = 96;
}
);
};
};
width = 686;
}
);
unicode = 0150;
},
{
glyphname = Oslash;
layers = (
{
layerId = master01;
paths = (
{
closed = 1;
nodes = (
"464 714 LINE SMOOTH",
"474 732 OFFCURVE",
"488 739 OFFCURVE",
"506 739 CURVE SMOOTH",
"528 739 OFFCURVE",
"553 721 OFFCURVE",
"553 692 CURVE SMOOTH",
"553 686 OFFCURVE",
"553 677 OFFCURVE",
"548 668 CURVE SMOOTH",
"515 610 LINE",
"572 551 OFFCURVE",
"606 464 OFFCURVE",
"606 365 CURVE SMOOTH",
"606 166 OFFCURVE",
"470 -2 OFFCURVE",
"312 -2 CURVE SMOOTH",
"269 -2 OFFCURVE",
"228 11 OFFCURVE",
"194 33 CURVE",
"173 -6 LINE SMOOTH",
"164 -21 OFFCURVE",
"150 -30 OFFCURVE",
"132 -30 CURVE SMOOTH",
"100 -30 OFFCURVE",
"84 -9 OFFCURVE",
"84 18 CURVE SMOOTH",
"84 24 OFFCURVE",
"86 33 OFFCURVE",
"90 40 CURVE SMOOTH",
"122 100 LINE",
"80 156 OFFCURVE",
"57 232 OFFCURVE",
"57 315 CURVE SMOOTH",
"57 514 OFFCURVE",
"194 682 OFFCURVE",
"351 682 CURVE SMOOTH",
"383 682 OFFCURVE",
"408 676 OFFCURVE",
"436 664 CURVE"
);
},
{
closed = 1;
nodes = (
"415 93 OFFCURVE",
"511 216 OFFCURVE",
"511 361 CURVE SMOOTH",
"511 419 OFFCURVE",
"495 474 OFFCURVE",
"464 517 CURVE",
"241 115 LINE",
"263 100 OFFCURVE",
"285 93 OFFCURVE",
"312 93 CURVE SMOOTH"
);
},
{
closed = 1;
nodes = (
"242 587 OFFCURVE",
"153 466 OFFCURVE",
"153 315 CURVE SMOOTH",
"153 268 OFFCURVE",
"158 234 OFFCURVE",
"176 197 CURVE",
"250 329 OFFCURVE",
"315 444 OFFCURVE",
"389 578 CURVE",
"376 584 OFFCURVE",
"359 587 OFFCURVE",
"345 587 CURVE SMOOTH"
);
}
);
userData = {
com.fontlab.hintData = {
hhints = (
{
position = -2;
width = 95;
},
{
position = 587;
width = 95;
}
);
vhints = (
{
position = 57;
width = 96;
},
{
position = 511;
width = 95;
}
);
};
};
width = 686;
}
);
unicode = 00D8;
},
{
glyphname = Otilde;
layers = (
{
layerId = master01;
paths = (
{
closed = 1;
nodes = (
"163 -2 OFFCURVE",
"57 144 OFFCURVE",
"57 315 CURVE SMOOTH",
"57 514 OFFCURVE",
"194 682 OFFCURVE",
"351 682 CURVE SMOOTH",
"498 682 OFFCURVE",
"606 538 OFFCURVE",
"606 365 CURVE SMOOTH",
"606 166 OFFCURVE",
"470 -2 OFFCURVE",
"312 -2 CURVE SMOOTH"
);
},
{
closed = 1;
nodes = (
"242 587 OFFCURVE",
"153 466 OFFCURVE",
"153 315 CURVE SMOOTH",
"153 194 OFFCURVE",
"220 93 OFFCURVE",
"312 93 CURVE SMOOTH",
"415 93 OFFCURVE",
"511 216 OFFCURVE",
"511 361 CURVE SMOOTH",
"511 475 OFFCURVE",
"442 587 OFFCURVE",
"345 587 CURVE SMOOTH"
);
},
{
closed = 1;
nodes = (
"498 886 OFFCURVE",
"510 893 OFFCURVE",
"525 893 CURVE SMOOTH",
"544 893 OFFCURVE",
"564 883 OFFCURVE",
"564 860 CURVE SMOOTH",
"564 856 OFFCURVE",
"564 849 OFFCURVE",
"561 838 CURVE SMOOTH",
"551 807 OFFCURVE",
"516 705 OFFCURVE",
"415 705 CURVE SMOOTH",
"383 705 OFFCURVE",
"356 722 OFFCURVE",
"334 753 CURVE SMOOTH",
"318 776 OFFCURVE",
"307 788 OFFCURVE",
"292 788 CURVE SMOOTH",
"257 788 OFFCURVE",
"240 736 OFFCURVE",
"235 720 CURVE SMOOTH",
"230 705 OFFCURVE",
"221 698 OFFCURVE",
"206 698 CURVE SMOOTH",
"187 698 OFFCURVE",
"167 708 OFFCURVE",
"167 731 CURVE SMOOTH",
"167 735 OFFCURVE",
"167 742 OFFCURVE",
"170 753 CURVE SMOOTH",
"187 810 OFFCURVE",
"226 877 OFFCURVE",
"304 877 CURVE SMOOTH",
"343 877 OFFCURVE",
"369 860 OFFCURVE",
"391 829 CURVE SMOOTH",
"407 807 OFFCURVE",
"418 793 OFFCURVE",
"433 793 CURVE SMOOTH",
"454 793 OFFCURVE",
"480 817 OFFCURVE",
"494 871 CURVE SMOOTH"
);
}
);
userData = {
com.fontlab.hintData = {
hhints = (
{
position = -2;
width = 95;
},
{
position = 587;
width = 95;
},
{
position = 705;
width = 88;
},
{
position = 788;
width = 89;
}
);
vhints = (
{
position = 57;
width = 96;
},
{
position = 167;
width = 68;
},
{
position = 494;
width = 70;
},
{
position = 511;
width = 95;
}
);
};
};
width = 686;
}
);
unicode = 00D5;
},
{
glyphname = OE;
layers = (
{
layerId = master01;
paths = (
{
closed = 1;
nodes = (
"971 100 LINE SMOOTH",
"999 100 OFFCURVE",
"1020 78 OFFCURVE",
"1020 50 CURVE SMOOTH",
"1020 22 OFFCURVE",
"999 0 OFFCURVE",
"971 0 CURVE SMOOTH",
"574 0 LINE SMOOTH",
"546 0 OFFCURVE",
"524 22 OFFCURVE",
"524 50 CURVE SMOOTH",
"524 106 LINE",
"471 40 OFFCURVE",
"399 0 OFFCURVE",
"320 0 CURVE SMOOTH",
"171 0 OFFCURVE",
"64 146 OFFCURVE",
"64 317 CURVE SMOOTH",
"64 516 OFFCURVE",
"201 684 OFFCURVE",
"359 684 CURVE SMOOTH",
"418 684 OFFCURVE",
"478 658 OFFCURVE",
"524 612 CURVE",
"524 632 LINE SMOOTH",
"524 660 OFFCURVE",
"546 682 OFFCURVE",
"574 682 CURVE SMOOTH",
"973 682 LINE SMOOTH",
"1001 682 OFFCURVE",
"1022 660 OFFCURVE",
"1022 632 CURVE SMOOTH",
"1022 605 OFFCURVE",
"1001 582 OFFCURVE",
"973 582 CURVE SMOOTH",
"623 582 LINE",
"623 401 LINE",
"927 401 LINE SMOOTH",
"955 401 OFFCURVE",
"976 380 OFFCURVE",
"976 352 CURVE SMOOTH",
"976 324 OFFCURVE",
"955 302 OFFCURVE",
"927 302 CURVE SMOOTH",
"623 302 LINE",
"623 100 LINE"
);
},
{
closed = 1;
nodes = (
"445 95 OFFCURVE",
"518 250 OFFCURVE",
"518 363 CURVE SMOOTH",
"518 477 OFFCURVE",
"449 589 OFFCURVE",
"352 589 CURVE SMOOTH",
"250 589 OFFCURVE",
"160 468 OFFCURVE",
"160 317 CURVE SMOOTH",
"160 196 OFFCURVE",
"227 95 OFFCURVE",
"320 95 CURVE SMOOTH"
);
}
);
userData = {
com.fontlab.hintData = {
hhints = (
{
position = 0;
width = 95;
},
{
position = 302;
width = 99;
},
{
position = 582;
width = 100;
},
{
position = 589;
width = 95;
}
);
vhints = (
{
position = 64;
width = 96;
},
{
position = 524;
width = 99;
}
);
};
};
width = 1124;
}
);
unicode = 0152;
},
{
glyphname = P;
layers = (
{
layerId = master01;
paths = (
{
closed = 1;
nodes = (
"84 0 OFFCURVE",
"60 21 OFFCURVE",
"60 49 CURVE SMOOTH",
"60 620 LINE SMOOTH",
"60 665 OFFCURVE",
"63 682 OFFCURVE",
"157 682 CURVE SMOOTH",
"408 682 OFFCURVE",
"528 605 OFFCURVE",
"528 468 CURVE SMOOTH",
"528 286 OFFCURVE",
"301 228 OFFCURVE",
"159 223 CURVE",
"159 49 LINE SMOOTH",
"159 21 OFFCURVE",
"138 0 OFFCURVE",
"110 0 CURVE SMOOTH"
);
},
{
closed = 1;
nodes = (
"159 321 LINE",
"248 326 OFFCURVE",
"429 355 OFFCURVE",
"429 468 CURVE SMOOTH",
"429 542 OFFCURVE",
"337 583 OFFCURVE",
"173 583 CURVE SMOOTH",
"159 583 LINE"
);
}
);
userData = {
com.fontlab.hintData = {
hhints = (
{
position = 0;
width = 21;
},
{
position = 223;
width = 98;
},
{
position = 583;
width = 99;
}
);
vhints = (
{
position = 60;
width = 99;
},
{
position = 429;
width = 99;
}
);
};
};
width = 573;
}
);
unicode = 0050;
},
{
glyphname = Thorn;
layers = (
{
layerId = master01;
paths = (
{
closed = 1;
nodes = (
"155 579 LINE",
"300 577 OFFCURVE",
"487 550 OFFCURVE",
"487 373 CURVE SMOOTH",
"487 198 OFFCURVE",
"294 142 OFFCURVE",
"154 134 CURVE",
"154 47 LINE SMOOTH",
"154 20 OFFCURVE",
"133 0 OFFCURVE",
"106 0 CURVE SMOOTH",
"80 0 OFFCURVE",
"59 20 OFFCURVE",
"59 48 CURVE SMOOTH",
"61 633 LINE SMOOTH",
"61 660 OFFCURVE",
"82 680 OFFCURVE",
"108 680 CURVE SMOOTH",
"133 680 OFFCURVE",
"155 660 OFFCURVE",
"155 632 CURVE SMOOTH"
);
},
{
closed = 1;
nodes = (
"246 238 OFFCURVE",
"393 270 OFFCURVE",
"393 373 CURVE SMOOTH",
"393 442 OFFCURVE",
"309 483 OFFCURVE",
"166 483 CURVE SMOOTH",
"155 483 LINE",
"155 483 OFFCURVE",
"154 316 OFFCURVE",
"154 232 CURVE"
);
}
);
userData = {
com.fontlab.hintData = {
hhints = (
{
position = 0;
width = 21;
},
{
position = 134;
width = 98;
},
{
position = 483;
width = 96;
}
);
vhints = (
{
position = 59;
width = 95;
},
{
position = 393;
width = 94;
}
);
};
};
width = 573;
}
);
unicode = 00DE;
},
{
glyphname = Q;
layers = (
{
layerId = master01;
paths = (
{
closed = 1;
nodes = (
"645 68 LINE SMOOTH",
"661 58 OFFCURVE",
"666 42 OFFCURVE",
"666 26 CURVE SMOOTH",
"666 -5 OFFCURVE",
"641 -22 OFFCURVE",
"617 -22 CURVE SMOOTH",
"607 -22 OFFCURVE",
"598 -20 OFFCURVE",
"590 -15 CURVE SMOOTH",
"497 48 LINE",
"448 16 OFFCURVE",
"393 -2 OFFCURVE",
"335 -2 CURVE SMOOTH",
"169 -2 OFFCURVE",
"49 143 OFFCURVE",
"49 313 CURVE SMOOTH",
"49 513 OFFCURVE",
"203 680 OFFCURVE",
"379 680 CURVE SMOOTH",
"544 680 OFFCURVE",
"665 536 OFFCURVE",
"665 364 CURVE SMOOTH",
"665 266 OFFCURVE",
"632 180 OFFCURVE",
"573 114 CURVE"
);
},
{
closed = 1;
nodes = (
"363 135 LINE SMOOTH",
"344 148 OFFCURVE",
"341 160 OFFCURVE",
"341 176 CURVE SMOOTH",
"341 204 OFFCURVE",
"364 225 OFFCURVE",
"389 225 CURVE SMOOTH",
"400 225 OFFCURVE",
"411 222 OFFCURVE",
"421 215 CURVE SMOOTH",
"489 170 LINE",
"532 219 OFFCURVE",
"562 288 OFFCURVE",
"562 361 CURVE SMOOTH",
"562 474 OFFCURVE",
"482 583 OFFCURVE",
"372 583 CURVE SMOOTH",
"256 583 OFFCURVE",
"152 464 OFFCURVE",
"152 317 CURVE SMOOTH",
"152 193 OFFCURVE",
"229 95 OFFCURVE",
"335 95 CURVE SMOOTH",
"359 95 OFFCURVE",
"382 100 OFFCURVE",
"403 108 CURVE"
);
}
);
userData = {
com.fontlab.hintData = {
hhints = (
{
position = -2;
width = 97;
},
{
position = 583;
width = 97;
}
);
vhints = (
{
position = 49;
width = 103;
},
{
position = 562;
width = 103;
}
);
};
};
width = 740;
}
);
unicode = 0051;
},
{
glyphname = R;
layers = (
{
layerId = master01;
paths = (
{
closed = 1;
nodes = (
"554 64 OFFCURVE",
"555 56 OFFCURVE",
"555 49 CURVE SMOOTH",
"555 24 OFFCURVE",
"536 0 OFFCURVE",
"506 0 CURVE SMOOTH",
"487 0 OFFCURVE",
"472 10 OFFCURVE",
"462 26 CURVE SMOOTH",
"345 225 OFFCURVE",
"261 233 OFFCURVE",
"226 233 CURVE SMOOTH",
"207 233 OFFCURVE",
"183 231 OFFCURVE",
"159 227 CURVE",
"159 49 LINE SMOOTH",
"159 21 OFFCURVE",
"136 0 OFFCURVE",
"110 0 CURVE SMOOTH",
"82 0 OFFCURVE",
"61 21 OFFCURVE",
"61 49 CURVE SMOOTH",
"61 627 LINE SMOOTH",
"61 685.242 OFFCURVE",
"76.884 687.007 OFFCURVE",
"164.194 687.007 CURVE SMOOTH",
"169.827 687.007 OFFCURVE",
"175.758 687 OFFCURVE",
"182 687 CURVE SMOOTH",
"406 687 OFFCURVE",
"532 607 OFFCURVE",
"532 469 CURVE SMOOTH",
"532 368 OFFCURVE",
"463 310 OFFCURVE",
"384 275 CURVE",
"431 238 OFFCURVE",
"499 171 OFFCURVE",
"550 72 CURVE SMOOTH"
);
},
{
closed = 1;
nodes = (
"159 324 LINE",
"281 332 OFFCURVE",
"433 374 OFFCURVE",
"433 469 CURVE SMOOTH",
"433 548 OFFCURVE",
"339 589 OFFCURVE",
"179 589 CURVE SMOOTH",
"159 589 LINE"
);
}
);
userData = {
com.fontlab.hintData = {
hhints = (
{
position = 0;
width = 21;
},
{
position = 233;
width = 91;
},
{
position = 589;
width = 98;
}
);
vhints = (
{
position = 61;
width = 98;
},
{
position = 433;
width = 99;
}
);
};
};
width = 623;
}
);
unicode = 0052;
},
{
glyphname = Racute;
layers = (
{
layerId = master01;
paths = (
{
closed = 1;
nodes = (
"554 64 OFFCURVE",
"555 56 OFFCURVE",
"555 49 CURVE SMOOTH",
"555 24 OFFCURVE",
"536 0 OFFCURVE",
"506 0 CURVE SMOOTH",
"487 0 OFFCURVE",
"472 10 OFFCURVE",
"462 26 CURVE SMOOTH",
"345 225 OFFCURVE",
"261 233 OFFCURVE",
"226 233 CURVE SMOOTH",
"207 233 OFFCURVE",
"183 231 OFFCURVE",
"159 227 CURVE",
"159 49 LINE SMOOTH",
"159 21 OFFCURVE",
"136 0 OFFCURVE",
"110 0 CURVE SMOOTH",
"82 0 OFFCURVE",
"61 21 OFFCURVE",
"61 49 CURVE SMOOTH",
"61 627 LINE SMOOTH",
"61 685.242 OFFCURVE",
"76.884 687.007 OFFCURVE",
"164.194 687.007 CURVE SMOOTH",
"169.827 687.007 OFFCURVE",
"175.758 687 OFFCURVE",
"182 687 CURVE SMOOTH",
"406 687 OFFCURVE",
"532 607 OFFCURVE",
"532 469 CURVE SMOOTH",
"532 368 OFFCURVE",
"463 310 OFFCURVE",
"384 275 CURVE",
"431 238 OFFCURVE",
"499 171 OFFCURVE",
"550 72 CURVE SMOOTH"
);
},
{
closed = 1;
nodes = (
"159 324 LINE",
"281 332 OFFCURVE",
"433 374 OFFCURVE",
"433 469 CURVE SMOOTH",
"433 548 OFFCURVE",
"339 589 OFFCURVE",
"179 589 CURVE SMOOTH",
"159 589 LINE"
);
},
{
closed = 1;
nodes = (
"333 883 LINE SMOOTH",
"343 891 OFFCURVE",
"357 902 OFFCURVE",
"374 902 CURVE SMOOTH",
"404 902 OFFCURVE",
"427 878 OFFCURVE",
"427 847 CURVE SMOOTH",
"427 832 OFFCURVE",
"422 817 OFFCURVE",
"408 807 CURVE SMOOTH",
"284 722 LINE SMOOTH",
"274 715 OFFCURVE",
"262 709 OFFCURVE",
"251 709 CURVE SMOOTH",
"227 709 OFFCURVE",
"205 730 OFFCURVE",
"205 757 CURVE SMOOTH",
"205 768 OFFCURVE",
"207 781 OFFCURVE",
"218 790 CURVE SMOOTH"
);
}
);
userData = {
com.fontlab.hintData = {
hhints = (
{
position = 0;
width = 21;
},
{
position = 233;
width = 91;
},
{
position = 589;
width = 98;
}
);
vhints = (
{
position = 61;
width = 98;
},
{
position = 433;
width = 99;
}
);
};
};
width = 623;
}
);
unicode = 0154;
},
{
glyphname = Rcaron;
layers = (
{
layerId = master01;
paths = (
{
closed = 1;
nodes = (
"322 721 LINE SMOOTH",
"311 712 OFFCURVE",
"299 709 OFFCURVE",
"290 709 CURVE SMOOTH",
"278 709 OFFCURVE",
"264 715 OFFCURVE",
"252 727 CURVE SMOOTH",
"156 823 LINE SMOOTH",
"146 833 OFFCURVE",
"142 844 OFFCURVE",
"142 857 CURVE SMOOTH",
"142 882 OFFCURVE",
"163 904 OFFCURVE",
"188 904 CURVE SMOOTH",
"200 904 OFFCURVE",
"210 902 OFFCURVE",
"221 892 CURVE SMOOTH",
"294 826 LINE",
"383 895 LINE SMOOTH",
"394 903 OFFCURVE",
"402 904 OFFCURVE",
"412 904 CURVE SMOOTH",
"437 904 OFFCURVE",
"459 884 OFFCURVE",
"459 857 CURVE SMOOTH",
"459 844 OFFCURVE",
"453 831 OFFCURVE",
"441 821 CURVE SMOOTH"
);
},
{
closed = 1;
nodes = (
"554 64 OFFCURVE",
"555 56 OFFCURVE",
"555 49 CURVE SMOOTH",
"555 24 OFFCURVE",
"536 0 OFFCURVE",
"506 0 CURVE SMOOTH",
"487 0 OFFCURVE",
"472 10 OFFCURVE",
"462 26 CURVE SMOOTH",
"345 225 OFFCURVE",
"261 233 OFFCURVE",
"226 233 CURVE SMOOTH",
"207 233 OFFCURVE",
"183 231 OFFCURVE",
"159 227 CURVE",
"159 49 LINE SMOOTH",
"159 21 OFFCURVE",
"136 0 OFFCURVE",
"110 0 CURVE SMOOTH",
"82 0 OFFCURVE",
"61 21 OFFCURVE",
"61 49 CURVE SMOOTH",
"61 627 LINE SMOOTH",
"61 685.242 OFFCURVE",
"76.884 687.007 OFFCURVE",
"164.194 687.007 CURVE SMOOTH",
"169.827 687.007 OFFCURVE",
"175.758 687 OFFCURVE",
"182 687 CURVE SMOOTH",
"406 687 OFFCURVE",
"532 607 OFFCURVE",
"532 469 CURVE SMOOTH",
"532 368 OFFCURVE",
"463 310 OFFCURVE",
"384 275 CURVE",
"431 238 OFFCURVE",
"499 171 OFFCURVE",
"550 72 CURVE SMOOTH"
);
},
{
closed = 1;
nodes = (
"159 324 LINE",
"281 332 OFFCURVE",
"433 374 OFFCURVE",
"433 469 CURVE SMOOTH",
"433 548 OFFCURVE",
"339 589 OFFCURVE",
"179 589 CURVE SMOOTH",
"159 589 LINE"
);
}
);
userData = {
com.fontlab.hintData = {
hhints = (
{
position = 0;
width = 21;
},
{
position = 233;
width = 91;
},
{
position = 589;
width = 98;
}
);
vhints = (
{
position = 61;
width = 98;
},
{
position = 433;
width = 99;
}
);
};
};
width = 623;
}
);
unicode = 0158;
},
{
glyphname = S;
layers = (
{
layerId = master01;
paths = (
{
closed = 1;
nodes = (
"202 335 OFFCURVE",
"88 387 OFFCURVE",
"88 500 CURVE SMOOTH",
"88 640 OFFCURVE",
"210 682 OFFCURVE",
"328 682 CURVE SMOOTH",
"405 682 OFFCURVE",
"544 655 OFFCURVE",
"544 535 CURVE SMOOTH",
"544 505 OFFCURVE",
"523 483 OFFCURVE",
"495 483 CURVE SMOOTH",
"470 483 OFFCURVE",
"451 502 OFFCURVE",
"447 525 CURVE SMOOTH",
"440 567 OFFCURVE",
"380 589 OFFCURVE",
"325 589 CURVE SMOOTH",
"256 589 OFFCURVE",
"195 566 OFFCURVE",
"195 504 CURVE SMOOTH",
"195 460 OFFCURVE",
"239 431 OFFCURVE",
"326 407 CURVE SMOOTH",
"474 366 OFFCURVE",
"547 299 OFFCURVE",
"547 201 CURVE SMOOTH",
"547 63 OFFCURVE",
"413 0 OFFCURVE",
"306 0 CURVE SMOOTH",
"194 0 OFFCURVE",
"97 62 OFFCURVE",
"61 145 CURVE SMOOTH",
"58 152 OFFCURVE",
"56 162 OFFCURVE",
"56 170 CURVE SMOOTH",
"56 197 OFFCURVE",
"78 220 OFFCURVE",
"107 220 CURVE SMOOTH",
"132 220 OFFCURVE",
"149 205 OFFCURVE",
"157 183 CURVE SMOOTH",
"178 123 OFFCURVE",
"248 96 OFFCURVE",
"305 96 CURVE SMOOTH",
"365 96 OFFCURVE",
"441 127 OFFCURVE",
"441 196 CURVE SMOOTH",
"441 229 OFFCURVE",
"432 274 OFFCURVE",
"301 309 CURVE SMOOTH"
);
}
);
userData = {
com.fontlab.hintData = {
hhints = (
{
position = 0;
width = 96;
},
{
position = 589;
width = 93;
}
);
vhints = (
{
position = 88;
width = 107;
},
{
position = 441;
width = 106;
}
);
};
};
width = 624;
}
);
unicode = 0053;
},
{
glyphname = Sacute;
layers = (
{
layerId = master01;
paths = (
{
closed = 1;
nodes = (
"202 335 OFFCURVE",
"88 387 OFFCURVE",
"88 500 CURVE SMOOTH",
"88 640 OFFCURVE",
"210 682 OFFCURVE",
"328 682 CURVE SMOOTH",
"405 682 OFFCURVE",
"544 655 OFFCURVE",
"544 535 CURVE SMOOTH",
"544 505 OFFCURVE",
"523 483 OFFCURVE",
"495 483 CURVE SMOOTH",
"470 483 OFFCURVE",
"451 502 OFFCURVE",
"447 525 CURVE SMOOTH",
"440 567 OFFCURVE",
"380 589 OFFCURVE",
"325 589 CURVE SMOOTH",
"256 589 OFFCURVE",
"195 566 OFFCURVE",
"195 504 CURVE SMOOTH",
"195 460 OFFCURVE",
"239 431 OFFCURVE",
"326 407 CURVE SMOOTH",
"474 366 OFFCURVE",
"547 299 OFFCURVE",
"547 201 CURVE SMOOTH",
"547 63 OFFCURVE",
"413 0 OFFCURVE",
"306 0 CURVE SMOOTH",
"194 0 OFFCURVE",
"97 62 OFFCURVE",
"61 145 CURVE SMOOTH",
"58 152 OFFCURVE",
"56 162 OFFCURVE",
"56 170 CURVE SMOOTH",
"56 197 OFFCURVE",
"78 220 OFFCURVE",
"107 220 CURVE SMOOTH",
"132 220 OFFCURVE",
"149 205 OFFCURVE",
"157 183 CURVE SMOOTH",
"178 123 OFFCURVE",
"248 96 OFFCURVE",
"305 96 CURVE SMOOTH",
"365 96 OFFCURVE",
"441 127 OFFCURVE",
"441 196 CURVE SMOOTH",
"441 229 OFFCURVE",
"432 274 OFFCURVE",
"301 309 CURVE SMOOTH"
);
},
{
closed = 1;
nodes = (
"355 883 LINE SMOOTH",
"365 891 OFFCURVE",
"379 902 OFFCURVE",
"396 902 CURVE SMOOTH",
"426 902 OFFCURVE",
"449 878 OFFCURVE",
"449 847 CURVE SMOOTH",
"449 832 OFFCURVE",
"444 817 OFFCURVE",
"430 807 CURVE SMOOTH",
"306 722 LINE SMOOTH",
"296 715 OFFCURVE",
"284 709 OFFCURVE",
"273 709 CURVE SMOOTH",
"249 709 OFFCURVE",
"227 730 OFFCURVE",
"227 757 CURVE SMOOTH",
"227 768 OFFCURVE",
"229 781 OFFCURVE",
"240 790 CURVE SMOOTH"
);
}
);
userData = {
com.fontlab.hintData = {
hhints = (
{
position = 0;
width = 96;
},
{
position = 589;
width = 93;
}
);
vhints = (
{
position = 88;
width = 107;
},
{
position = 441;
width = 106;
}
);
};
};
width = 624;
}
);
unicode = 015A;
},
{
glyphname = Scaron;
layers = (
{
layerId = master01;
paths = (
{
closed = 1;
nodes = (
"202 335 OFFCURVE",
"88 387 OFFCURVE",
"88 500 CURVE SMOOTH",
"88 640 OFFCURVE",
"210 682 OFFCURVE",
"328 682 CURVE SMOOTH",
"405 682 OFFCURVE",
"544 655 OFFCURVE",
"544 535 CURVE SMOOTH",
"544 505 OFFCURVE",
"523 483 OFFCURVE",
"495 483 CURVE SMOOTH",
"470 483 OFFCURVE",
"451 502 OFFCURVE",
"447 525 CURVE SMOOTH",
"440 567 OFFCURVE",
"380 589 OFFCURVE",
"325 589 CURVE SMOOTH",
"256 589 OFFCURVE",
"195 566 OFFCURVE",
"195 504 CURVE SMOOTH",
"195 460 OFFCURVE",
"239 431 OFFCURVE",
"326 407 CURVE SMOOTH",
"474 366 OFFCURVE",
"547 299 OFFCURVE",
"547 201 CURVE SMOOTH",
"547 63 OFFCURVE",
"413 0 OFFCURVE",
"306 0 CURVE SMOOTH",
"194 0 OFFCURVE",
"97 62 OFFCURVE",
"61 145 CURVE SMOOTH",
"58 152 OFFCURVE",
"56 162 OFFCURVE",
"56 170 CURVE SMOOTH",
"56 197 OFFCURVE",
"78 220 OFFCURVE",
"107 220 CURVE SMOOTH",
"132 220 OFFCURVE",
"149 205 OFFCURVE",
"157 183 CURVE SMOOTH",
"178 123 OFFCURVE",
"248 96 OFFCURVE",
"305 96 CURVE SMOOTH",
"365 96 OFFCURVE",
"441 127 OFFCURVE",
"441 196 CURVE SMOOTH",
"441 229 OFFCURVE",
"432 274 OFFCURVE",
"301 309 CURVE SMOOTH"
);
},
{
closed = 1;
nodes = (
"355 721 LINE SMOOTH",
"344 712 OFFCURVE",
"332 709 OFFCURVE",
"323 709 CURVE SMOOTH",
"311 709 OFFCURVE",
"297 715 OFFCURVE",
"285 727 CURVE SMOOTH",
"189 823 LINE SMOOTH",
"179 833 OFFCURVE",
"175 844 OFFCURVE",
"175 857 CURVE SMOOTH",
"175 882 OFFCURVE",
"196 904 OFFCURVE",
"221 904 CURVE SMOOTH",
"233 904 OFFCURVE",
"243 902 OFFCURVE",
"254 892 CURVE SMOOTH",
"327 826 LINE",
"416 895 LINE SMOOTH",
"427 903 OFFCURVE",
"435 904 OFFCURVE",
"445 904 CURVE SMOOTH",
"470 904 OFFCURVE",
"492 884 OFFCURVE",
"492 857 CURVE SMOOTH",
"492 844 OFFCURVE",
"486 831 OFFCURVE",
"474 821 CURVE SMOOTH"
);
}
);
userData = {
com.fontlab.hintData = {
hhints = (
{
position = 0;
width = 96;
},
{
position = 589;
width = 93;
}
);
vhints = (
{
position = 88;
width = 107;
},
{
position = 441;
width = 106;
}
);
};
};
width = 624;
}
);
unicode = 0160;
},
{
glyphname = Scedilla;
layers = (
{
layerId = master01;
paths = (
{
closed = 1;
nodes = (
"302 -130 OFFCURVE",
"308 -132 OFFCURVE",
"317 -132 CURVE SMOOTH",
"333 -132 OFFCURVE",
"340 -118 OFFCURVE",
"340 -106 CURVE SMOOTH",
"340 -94 OFFCURVE",
"332 -86 OFFCURVE",
"316 -83 CURVE SMOOTH",
"267 -73 LINE SMOOTH",
"253.605 -70.18 OFFCURVE",
"248.659 -61.395 OFFCURVE",
"248.659 -50.151 CURVE SMOOTH",
"248.659 -45.446 OFFCURVE",
"249.525 -40.31 OFFCURVE",
"251 -35 CURVE SMOOTH",
"255 -20 OFFCURVE",
"258 -7 OFFCURVE",
"262 3 CURVE",
"169 17 OFFCURVE",
"92 73 OFFCURVE",
"61 145 CURVE SMOOTH",
"58 152 OFFCURVE",
"56 162 OFFCURVE",
"56 170 CURVE SMOOTH",
"56 197 OFFCURVE",
"78 220 OFFCURVE",
"107 220 CURVE SMOOTH",
"132 220 OFFCURVE",
"149 205 OFFCURVE",
"157 183 CURVE SMOOTH",
"178 123 OFFCURVE",
"248 96 OFFCURVE",
"305 96 CURVE SMOOTH",
"365 96 OFFCURVE",
"441 127 OFFCURVE",
"441 196 CURVE SMOOTH",
"441 229 OFFCURVE",
"432 274 OFFCURVE",
"301 309 CURVE SMOOTH",
"202 335 OFFCURVE",
"88 387 OFFCURVE",
"88 500 CURVE SMOOTH",
"88 640 OFFCURVE",
"210 682 OFFCURVE",
"328 682 CURVE SMOOTH",
"405 682 OFFCURVE",
"544 655 OFFCURVE",
"544 535 CURVE SMOOTH",
"544 505 OFFCURVE",
"523 483 OFFCURVE",
"495 483 CURVE SMOOTH",
"470 483 OFFCURVE",
"451 502 OFFCURVE",
"447 525 CURVE SMOOTH",
"440 567 OFFCURVE",
"380 589 OFFCURVE",
"325 589 CURVE SMOOTH",
"256 589 OFFCURVE",
"195 566 OFFCURVE",
"195 504 CURVE SMOOTH",
"195 460 OFFCURVE",
"239 431 OFFCURVE",
"326 407 CURVE SMOOTH",
"474 366 OFFCURVE",
"547 299 OFFCURVE",
"547 201 CURVE SMOOTH",
"547 68 OFFCURVE",
"423 5 OFFCURVE",
"318 0 CURVE",
"319 -9 OFFCURVE",
"320 -20 OFFCURVE",
"320 -27 CURVE",
"380 -37 OFFCURVE",
"411 -61 OFFCURVE",
"411 -110 CURVE SMOOTH",
"411 -168 OFFCURVE",
"364 -196 OFFCURVE",
"306 -196 CURVE SMOOTH",
"268 -196 OFFCURVE",
"227 -180 OFFCURVE",
"227 -148 CURVE SMOOTH",
"227 -131 OFFCURVE",
"240 -109 OFFCURVE",
"263 -109 CURVE SMOOTH",
"280 -109 OFFCURVE",
"287 -118 OFFCURVE",
"297 -126 CURVE SMOOTH"
);
}
);
userData = {
com.fontlab.hintData = {
hhints = (
{
position = -196;
width = 64;
},
{
position = 0;
width = 96;
},
{
position = 589;
width = 93;
}
);
vhints = (
{
position = 88;
width = 107;
},
{
position = 249;
width = 71;
},
{
position = 340;
width = 71;
},
{
position = 441;
width = 106;
}
);
};
};
width = 624;
}
);
unicode = 015E;
},
{
glyphname = Scircumflex;
layers = (
{
layerId = master01;
paths = (
{
closed = 1;
nodes = (
"202 335 OFFCURVE",
"88 387 OFFCURVE",
"88 500 CURVE SMOOTH",
"88 640 OFFCURVE",
"210 682 OFFCURVE",
"328 682 CURVE SMOOTH",
"405 682 OFFCURVE",
"544 655 OFFCURVE",
"544 535 CURVE SMOOTH",
"544 505 OFFCURVE",
"523 483 OFFCURVE",
"495 483 CURVE SMOOTH",
"470 483 OFFCURVE",
"451 502 OFFCURVE",
"447 525 CURVE SMOOTH",
"440 567 OFFCURVE",
"380 589 OFFCURVE",
"325 589 CURVE SMOOTH",
"256 589 OFFCURVE",
"195 566 OFFCURVE",
"195 504 CURVE SMOOTH",
"195 460 OFFCURVE",
"239 431 OFFCURVE",
"326 407 CURVE SMOOTH",
"474 366 OFFCURVE",
"547 299 OFFCURVE",
"547 201 CURVE SMOOTH",
"547 63 OFFCURVE",
"413 0 OFFCURVE",
"306 0 CURVE SMOOTH",
"194 0 OFFCURVE",
"97 62 OFFCURVE",
"61 145 CURVE SMOOTH",
"58 152 OFFCURVE",
"56 162 OFFCURVE",
"56 170 CURVE SMOOTH",
"56 197 OFFCURVE",
"78 220 OFFCURVE",
"107 220 CURVE SMOOTH",
"132 220 OFFCURVE",
"149 205 OFFCURVE",
"157 183 CURVE SMOOTH",
"178 123 OFFCURVE",
"248 96 OFFCURVE",
"305 96 CURVE SMOOTH",
"365 96 OFFCURVE",
"441 127 OFFCURVE",
"441 196 CURVE SMOOTH",
"441 229 OFFCURVE",
"432 274 OFFCURVE",
"301 309 CURVE SMOOTH"
);
},
{
closed = 1;
nodes = (
"305 886 LINE SMOOTH",
"316 895 OFFCURVE",
"328 898 OFFCURVE",
"337 898 CURVE SMOOTH",
"349 898 OFFCURVE",
"363 892 OFFCURVE",
"375 880 CURVE SMOOTH",
"471 784 LINE SMOOTH",
"481 774 OFFCURVE",
"485 763 OFFCURVE",
"485 750 CURVE SMOOTH",
"485 725 OFFCURVE",
"464 703 OFFCURVE",
"439 703 CURVE SMOOTH",
"427 703 OFFCURVE",
"417 705 OFFCURVE",
"406 715 CURVE SMOOTH",
"333 781 LINE",
"244 712 LINE SMOOTH",
"233 704 OFFCURVE",
"225 703 OFFCURVE",
"215 703 CURVE SMOOTH",
"190 703 OFFCURVE",
"168 723 OFFCURVE",
"168 750 CURVE SMOOTH",
"168 763 OFFCURVE",
"174 776 OFFCURVE",
"186 786 CURVE SMOOTH"
);
}
);
userData = {
com.fontlab.hintData = {
hhints = (
{
position = 0;
width = 96;
},
{
position = 589;
width = 93;
}
);
vhints = (
{
position = 88;
width = 107;
},
{
position = 441;
width = 106;
}
);
};
};
width = 624;
}
);
unicode = 015C;
},
{
glyphname = T;
layers = (
{
layerId = master01;
paths = (
{
closed = 1;
nodes = (
"500 681 OFFCURVE",
"521 660 OFFCURVE",
"521 632 CURVE SMOOTH",
"521 605 OFFCURVE",
"500 582 OFFCURVE",
"472 582 CURVE SMOOTH",
"308 582 LINE",
"308 49 LINE SMOOTH",
"308 23 OFFCURVE",
"286 0 OFFCURVE",
"259 0 CURVE SMOOTH",
"232 0 OFFCURVE",
"209 23 OFFCURVE",
"209 49 CURVE SMOOTH",
"209 582 LINE",
"58 582 LINE SMOOTH",
"32 582 OFFCURVE",
"9 605 OFFCURVE",
"9 632 CURVE SMOOTH",
"9 660 OFFCURVE",
"32 681 OFFCURVE",
"58 681 CURVE SMOOTH",
"472 681 LINE"
);
}
);
userData = {
com.fontlab.hintData = {
hhints = (
{
position = 0;
width = 21;
},
{
position = 582;
width = 99;
}
);
vhints = (
{
position = 209;
width = 99;
}
);
};
};
width = 548;
}
);
unicode = 0054;
},
{
glyphname = Tcaron;
layers = (
{
layerId = master01;
paths = (
{
closed = 1;
nodes = (
"295 721 LINE SMOOTH",
"284 712 OFFCURVE",
"272 709 OFFCURVE",
"263 709 CURVE SMOOTH",
"251 709 OFFCURVE",
"237 715 OFFCURVE",
"225 727 CURVE SMOOTH",
"129 823 LINE SMOOTH",
"119 833 OFFCURVE",
"115 844 OFFCURVE",
"115 857 CURVE SMOOTH",
"115 882 OFFCURVE",
"136 904 OFFCURVE",
"161 904 CURVE SMOOTH",
"173 904 OFFCURVE",
"183 902 OFFCURVE",
"194 892 CURVE SMOOTH",
"267 826 LINE",
"356 895 LINE SMOOTH",
"367 903 OFFCURVE",
"375 904 OFFCURVE",
"385 904 CURVE SMOOTH",
"410 904 OFFCURVE",
"432 884 OFFCURVE",
"432 857 CURVE SMOOTH",
"432 844 OFFCURVE",
"426 831 OFFCURVE",
"414 821 CURVE SMOOTH"
);
},
{
closed = 1;
nodes = (
"500 681 OFFCURVE",
"521 660 OFFCURVE",
"521 632 CURVE SMOOTH",
"521 605 OFFCURVE",
"500 582 OFFCURVE",
"472 582 CURVE SMOOTH",
"308 582 LINE",
"308 49 LINE SMOOTH",
"308 23 OFFCURVE",
"286 0 OFFCURVE",
"259 0 CURVE SMOOTH",
"232 0 OFFCURVE",
"209 23 OFFCURVE",
"209 49 CURVE SMOOTH",
"209 582 LINE",
"58 582 LINE SMOOTH",
"32 582 OFFCURVE",
"9 605 OFFCURVE",
"9 632 CURVE SMOOTH",
"9 660 OFFCURVE",
"32 681 OFFCURVE",
"58 681 CURVE SMOOTH",
"472 681 LINE"
);
}
);
userData = {
com.fontlab.hintData = {
hhints = (
{
position = 0;
width = 21;
},
{
position = 582;
width = 99;
}
);
vhints = (
{
position = 209;
width = 99;
}
);
};
};
width = 548;
}
);
unicode = 0164;
},
{
glyphname = U;
layers = (
{
layerId = master01;
paths = (
{
closed = 1;
nodes = (
"623.851 574.691 OFFCURVE",
"625.916 520.452 OFFCURVE",
"625.916 466.118 CURVE SMOOTH",
"625.916 403.042 OFFCURVE",
"623.133 339.84 OFFCURVE",
"614 270 CURVE SMOOTH",
"593 110 OFFCURVE",
"511 0 OFFCURVE",
"334 0 CURVE SMOOTH",
"165 0 OFFCURVE",
"70 151 OFFCURVE",
"63 367 CURVE SMOOTH",
"61.823 408.984 OFFCURVE",
"61.416 446.042 OFFCURVE",
"61.416 480.71 CURVE SMOOTH",
"61.416 534.396 OFFCURVE",
"62.392 582.352 OFFCURVE",
"63 634 CURVE SMOOTH",
"63 650 OFFCURVE",
"74 681 OFFCURVE",
"115 681 CURVE SMOOTH",
"155 681 OFFCURVE",
"163 649 OFFCURVE",
"163 633 CURVE SMOOTH",
"161.903 584.176 OFFCURVE",
"161.107 541.07 OFFCURVE",
"161.107 496.748 CURVE SMOOTH",
"161.107 460.277 OFFCURVE",
"161.646 422.982 OFFCURVE",
"163 381 CURVE SMOOTH",
"168 236 OFFCURVE",
"205 92 OFFCURVE",
"336 92 CURVE SMOOTH",
"419 92 OFFCURVE",
"499 139 OFFCURVE",
"515 277 CURVE SMOOTH",
"522.348 344.826 OFFCURVE",
"523.945 406.582 OFFCURVE",
"523.945 471.478 CURVE SMOOTH",
"523.945 521.397 OFFCURVE",
"523 573.174 OFFCURVE",
"523 631 CURVE SMOOTH",
"523 647 OFFCURVE",
"530 681 OFFCURVE",
"573 681 CURVE SMOOTH",
"616 681 OFFCURVE",
"622 648 OFFCURVE",
"622 633 CURVE SMOOTH"
);
}
);
userData = {
com.fontlab.hintData = {
hhints = (
{
position = 0;
width = 92;
},
{
position = 661;
width = 20;
}
);
vhints = (
{
position = 61;
width = 100;
},
{
position = 524;
width = 102;
}
);
};
};
width = 709;
}
);
unicode = 0055;
},
{
glyphname = Uacute;
layers = (
{
layerId = master01;
paths = (
{
closed = 1;
nodes = (
"623.851 574.691 OFFCURVE",
"625.916 520.452 OFFCURVE",
"625.916 466.118 CURVE SMOOTH",
"625.916 403.042 OFFCURVE",
"623.133 339.84 OFFCURVE",
"614 270 CURVE SMOOTH",
"593 110 OFFCURVE",
"511 0 OFFCURVE",
"334 0 CURVE SMOOTH",
"165 0 OFFCURVE",
"70 151 OFFCURVE",
"63 367 CURVE SMOOTH",
"61.823 408.984 OFFCURVE",
"61.416 446.042 OFFCURVE",
"61.416 480.71 CURVE SMOOTH",
"61.416 534.396 OFFCURVE",
"62.392 582.352 OFFCURVE",
"63 634 CURVE SMOOTH",
"63 650 OFFCURVE",
"74 681 OFFCURVE",
"115 681 CURVE SMOOTH",
"155 681 OFFCURVE",
"163 649 OFFCURVE",
"163 633 CURVE SMOOTH",
"161.903 584.176 OFFCURVE",
"161.107 541.07 OFFCURVE",
"161.107 496.748 CURVE SMOOTH",
"161.107 460.277 OFFCURVE",
"161.646 422.982 OFFCURVE",
"163 381 CURVE SMOOTH",
"168 236 OFFCURVE",
"205 92 OFFCURVE",
"336 92 CURVE SMOOTH",
"419 92 OFFCURVE",
"499 139 OFFCURVE",
"515 277 CURVE SMOOTH",
"522.348 344.826 OFFCURVE",
"523.945 406.582 OFFCURVE",
"523.945 471.478 CURVE SMOOTH",
"523.945 521.397 OFFCURVE",
"523 573.174 OFFCURVE",
"523 631 CURVE SMOOTH",
"523 647 OFFCURVE",
"530 681 OFFCURVE",
"573 681 CURVE SMOOTH",
"616 681 OFFCURVE",
"622 648 OFFCURVE",
"622 633 CURVE SMOOTH"
);
},
{
closed = 1;
nodes = (
"383 883 LINE SMOOTH",
"393 891 OFFCURVE",
"407 902 OFFCURVE",
"424 902 CURVE SMOOTH",
"454 902 OFFCURVE",
"477 878 OFFCURVE",
"477 847 CURVE SMOOTH",
"477 832 OFFCURVE",
"472 817 OFFCURVE",
"458 807 CURVE SMOOTH",
"334 722 LINE SMOOTH",
"324 715 OFFCURVE",
"312 709 OFFCURVE",
"301 709 CURVE SMOOTH",
"277 709 OFFCURVE",
"255 730 OFFCURVE",
"255 757 CURVE SMOOTH",
"255 768 OFFCURVE",
"257 781 OFFCURVE",
"268 790 CURVE SMOOTH"
);
}
);
userData = {
com.fontlab.hintData = {
hhints = (
{
position = 0;
width = 92;
},
{
position = 661;
width = 20;
}
);
vhints = (
{
position = 61;
width = 100;
},
{
position = 524;
width = 102;
}
);
};
};
width = 709;
}
);
unicode = 00DA;
},
{
glyphname = Ubreve;
layers = (
{
layerId = master01;
paths = (
{
closed = 1;
nodes = (
"623.851 574.691 OFFCURVE",
"625.916 520.452 OFFCURVE",
"625.916 466.118 CURVE SMOOTH",
"625.916 403.042 OFFCURVE",
"623.133 339.84 OFFCURVE",
"614 270 CURVE SMOOTH",
"593 110 OFFCURVE",
"511 0 OFFCURVE",
"334 0 CURVE SMOOTH",
"165 0 OFFCURVE",
"70 151 OFFCURVE",
"63 367 CURVE SMOOTH",
"61.823 408.984 OFFCURVE",
"61.416 446.042 OFFCURVE",
"61.416 480.71 CURVE SMOOTH",
"61.416 534.396 OFFCURVE",
"62.392 582.352 OFFCURVE",
"63 634 CURVE SMOOTH",
"63 650 OFFCURVE",
"74 681 OFFCURVE",
"115 681 CURVE SMOOTH",
"155 681 OFFCURVE",
"163 649 OFFCURVE",
"163 633 CURVE SMOOTH",
"161.903 584.176 OFFCURVE",
"161.107 541.07 OFFCURVE",
"161.107 496.748 CURVE SMOOTH",
"161.107 460.277 OFFCURVE",
"161.646 422.982 OFFCURVE",
"163 381 CURVE SMOOTH",
"168 236 OFFCURVE",
"205 92 OFFCURVE",
"336 92 CURVE SMOOTH",
"419 92 OFFCURVE",
"499 139 OFFCURVE",
"515 277 CURVE SMOOTH",
"522.348 344.826 OFFCURVE",
"523.945 406.582 OFFCURVE",
"523.945 471.478 CURVE SMOOTH",
"523.945 521.397 OFFCURVE",
"523 573.174 OFFCURVE",
"523 631 CURVE SMOOTH",
"523 647 OFFCURVE",
"530 681 OFFCURVE",
"573 681 CURVE SMOOTH",
"616 681 OFFCURVE",
"622 648 OFFCURVE",
"622 633 CURVE SMOOTH"
);
},
{
closed = 1;
nodes = (
"182 851 OFFCURVE",
"184 873 OFFCURVE",
"221 873 CURVE SMOOTH",
"242 873 OFFCURVE",
"255 856 OFFCURVE",
"261 844 CURVE SMOOTH",
"278 808 OFFCURVE",
"322 796 OFFCURVE",
"350 796 CURVE SMOOTH",
"386 796 OFFCURVE",
"411 810 OFFCURVE",
"425 844 CURVE SMOOTH",
"433 863 OFFCURVE",
"441 878 OFFCURVE",
"467 878 CURVE SMOOTH",
"487 878 OFFCURVE",
"505 860 OFFCURVE",
"505 840 CURVE SMOOTH",
"505 791 OFFCURVE",
"449 709 OFFCURVE",
"348 709 CURVE SMOOTH",
"224 709 OFFCURVE",
"182 810 OFFCURVE",
"182 836 CURVE SMOOTH"
);
}
);
userData = {
com.fontlab.hintData = {
hhints = (
{
position = 0;
width = 92;
},
{
position = 661;
width = 20;
},
{
position = 709;
width = 87;
}
);
vhints = (
{
position = 61;
width = 100;
},
{
position = 182;
width = 79;
},
{
position = 425;
width = 80;
},
{
position = 524;
width = 102;
}
);
};
};
width = 709;
}
);
unicode = 016C;
},
{
glyphname = Ucircumflex;
layers = (
{
layerId = master01;
paths = (
{
closed = 1;
nodes = (
"623.851 574.691 OFFCURVE",
"625.916 520.452 OFFCURVE",
"625.916 466.118 CURVE SMOOTH",
"625.916 403.042 OFFCURVE",
"623.133 339.84 OFFCURVE",
"614 270 CURVE SMOOTH",
"593 110 OFFCURVE",
"511 0 OFFCURVE",
"334 0 CURVE SMOOTH",
"165 0 OFFCURVE",
"70 151 OFFCURVE",
"63 367 CURVE SMOOTH",
"61.823 408.984 OFFCURVE",
"61.416 446.042 OFFCURVE",
"61.416 480.71 CURVE SMOOTH",
"61.416 534.396 OFFCURVE",
"62.392 582.352 OFFCURVE",
"63 634 CURVE SMOOTH",
"63 650 OFFCURVE",
"74 681 OFFCURVE",
"115 681 CURVE SMOOTH",
"155 681 OFFCURVE",
"163 649 OFFCURVE",
"163 633 CURVE SMOOTH",
"161.903 584.176 OFFCURVE",
"161.107 541.07 OFFCURVE",
"161.107 496.748 CURVE SMOOTH",
"161.107 460.277 OFFCURVE",
"161.646 422.982 OFFCURVE",
"163 381 CURVE SMOOTH",
"168 236 OFFCURVE",
"205 92 OFFCURVE",
"336 92 CURVE SMOOTH",
"419 92 OFFCURVE",
"499 139 OFFCURVE",
"515 277 CURVE SMOOTH",
"522.348 344.826 OFFCURVE",
"523.945 406.582 OFFCURVE",
"523.945 471.478 CURVE SMOOTH",
"523.945 521.397 OFFCURVE",
"523 573.174 OFFCURVE",
"523 631 CURVE SMOOTH",
"523 647 OFFCURVE",
"530 681 OFFCURVE",
"573 681 CURVE SMOOTH",
"616 681 OFFCURVE",
"622 648 OFFCURVE",
"622 633 CURVE SMOOTH"
);
},
{
closed = 1;
nodes = (
"330 886 LINE SMOOTH",
"341 895 OFFCURVE",
"353 898 OFFCURVE",
"362 898 CURVE SMOOTH",
"374 898 OFFCURVE",
"388 892 OFFCURVE",
"400 880 CURVE SMOOTH",
"496 784 LINE SMOOTH",
"506 774 OFFCURVE",
"510 763 OFFCURVE",
"510 750 CURVE SMOOTH",
"510 725 OFFCURVE",
"489 703 OFFCURVE",
"464 703 CURVE SMOOTH",
"452 703 OFFCURVE",
"442 705 OFFCURVE",
"431 715 CURVE SMOOTH",
"358 781 LINE",
"269 712 LINE SMOOTH",
"258 704 OFFCURVE",
"250 703 OFFCURVE",
"240 703 CURVE SMOOTH",
"215 703 OFFCURVE",
"193 723 OFFCURVE",
"193 750 CURVE SMOOTH",
"193 763 OFFCURVE",
"199 776 OFFCURVE",
"211 786 CURVE SMOOTH"
);
}
);
userData = {
com.fontlab.hintData = {
hhints = (
{
position = 0;
width = 92;
},
{
position = 661;
width = 20;
}
);
vhints = (
{
position = 61;
width = 100;
},
{
position = 524;
width = 102;
}
);
};
};
width = 709;
}
);
unicode = 00DB;
},
{
glyphname = Udieresis;
layers = (
{
layerId = master01;
paths = (
{
closed = 1;
nodes = (
"319 732 OFFCURVE",
"288 703 OFFCURVE",
"248 703 CURVE SMOOTH",
"212 703 OFFCURVE",
"183 727 OFFCURVE",
"183 762 CURVE SMOOTH",
"183 796 OFFCURVE",
"214 827 OFFCURVE",
"253 827 CURVE SMOOTH",
"287 827 OFFCURVE",
"319 801 OFFCURVE",
"319 767 CURVE SMOOTH"
);
},
{
closed = 1;
nodes = (
"507 732 OFFCURVE",
"476 703 OFFCURVE",
"436 703 CURVE SMOOTH",
"400 703 OFFCURVE",
"371 727 OFFCURVE",
"371 762 CURVE SMOOTH",
"371 796 OFFCURVE",
"402 827 OFFCURVE",
"442 827 CURVE SMOOTH",
"475 827 OFFCURVE",
"507 801 OFFCURVE",
"507 767 CURVE SMOOTH"
);
},
{
closed = 1;
nodes = (
"623.851 574.691 OFFCURVE",
"625.916 520.452 OFFCURVE",
"625.916 466.118 CURVE SMOOTH",
"625.916 403.042 OFFCURVE",
"623.133 339.84 OFFCURVE",
"614 270 CURVE SMOOTH",
"593 110 OFFCURVE",
"511 0 OFFCURVE",
"334 0 CURVE SMOOTH",
"165 0 OFFCURVE",
"70 151 OFFCURVE",
"63 367 CURVE SMOOTH",
"61.823 408.984 OFFCURVE",
"61.416 446.042 OFFCURVE",
"61.416 480.71 CURVE SMOOTH",
"61.416 534.396 OFFCURVE",
"62.392 582.352 OFFCURVE",
"63 634 CURVE SMOOTH",
"63 650 OFFCURVE",
"74 681 OFFCURVE",
"115 681 CURVE SMOOTH",
"155 681 OFFCURVE",
"163 649 OFFCURVE",
"163 633 CURVE SMOOTH",
"161.903 584.176 OFFCURVE",
"161.107 541.07 OFFCURVE",
"161.107 496.748 CURVE SMOOTH",
"161.107 460.277 OFFCURVE",
"161.646 422.982 OFFCURVE",
"163 381 CURVE SMOOTH",
"168 236 OFFCURVE",
"205 92 OFFCURVE",
"336 92 CURVE SMOOTH",
"419 92 OFFCURVE",
"499 139 OFFCURVE",
"515 277 CURVE SMOOTH",
"522.348 344.826 OFFCURVE",
"523.945 406.582 OFFCURVE",
"523.945 471.478 CURVE SMOOTH",
"523.945 521.397 OFFCURVE",
"523 573.174 OFFCURVE",
"523 631 CURVE SMOOTH",
"523 647 OFFCURVE",
"530 681 OFFCURVE",
"573 681 CURVE SMOOTH",
"616 681 OFFCURVE",
"622 648 OFFCURVE",
"622 633 CURVE SMOOTH"
);
}
);
userData = {
com.fontlab.hintData = {
hhints = (
{
position = 0;
width = 92;
},
{
position = 661;
width = 20;
},
{
position = 703;
width = 124;
}
);
vhints = (
{
position = 61;
width = 100;
},
{
position = 183;
width = 136;
},
{
position = 371;
width = 136;
},
{
position = 524;
width = 102;
}
);
};
};
width = 709;
}
);
unicode = 00DC;
},
{
glyphname = Ugrave;
layers = (
{
layerId = master01;
paths = (
{
closed = 1;
nodes = (
"238 824 LINE SMOOTH",
"228 834 OFFCURVE",
"222 846 OFFCURVE",
"222 862 CURVE SMOOTH",
"222 890 OFFCURVE",
"248 916 OFFCURVE",
"276 916 CURVE SMOOTH",
"294 916 OFFCURVE",
"310 906 OFFCURVE",
"320 894 CURVE SMOOTH",
"415 775 LINE SMOOTH",
"424 763 OFFCURVE",
"427 755 OFFCURVE",
"427 745 CURVE SMOOTH",
"427 718 OFFCURVE",
"403 698 OFFCURVE",
"379 698 CURVE SMOOTH",
"364 698 OFFCURVE",
"353 704 OFFCURVE",
"345 713 CURVE SMOOTH"
);
},
{
closed = 1;
nodes = (
"623.851 574.691 OFFCURVE",
"625.916 520.452 OFFCURVE",
"625.916 466.118 CURVE SMOOTH",
"625.916 403.042 OFFCURVE",
"623.133 339.84 OFFCURVE",
"614 270 CURVE SMOOTH",
"593 110 OFFCURVE",
"511 0 OFFCURVE",
"334 0 CURVE SMOOTH",
"165 0 OFFCURVE",
"70 151 OFFCURVE",
"63 367 CURVE SMOOTH",
"61.823 408.984 OFFCURVE",
"61.416 446.042 OFFCURVE",
"61.416 480.71 CURVE SMOOTH",
"61.416 534.396 OFFCURVE",
"62.392 582.352 OFFCURVE",
"63 634 CURVE SMOOTH",
"63 650 OFFCURVE",
"74 681 OFFCURVE",
"115 681 CURVE SMOOTH",
"155 681 OFFCURVE",
"163 649 OFFCURVE",
"163 633 CURVE SMOOTH",
"161.903 584.176 OFFCURVE",
"161.107 541.07 OFFCURVE",
"161.107 496.748 CURVE SMOOTH",
"161.107 460.277 OFFCURVE",
"161.646 422.982 OFFCURVE",
"163 381 CURVE SMOOTH",
"168 236 OFFCURVE",
"205 92 OFFCURVE",
"336 92 CURVE SMOOTH",
"419 92 OFFCURVE",
"499 139 OFFCURVE",
"515 277 CURVE SMOOTH",
"522.348 344.826 OFFCURVE",
"523.945 406.582 OFFCURVE",
"523.945 471.478 CURVE SMOOTH",
"523.945 521.397 OFFCURVE",
"523 573.174 OFFCURVE",
"523 631 CURVE SMOOTH",
"523 647 OFFCURVE",
"530 681 OFFCURVE",
"573 681 CURVE SMOOTH",
"616 681 OFFCURVE",
"622 648 OFFCURVE",
"622 633 CURVE SMOOTH"
);
}
);
userData = {
com.fontlab.hintData = {
hhints = (
{
position = 0;
width = 92;
},
{
position = 661;
width = 20;
}
);
vhints = (
{
position = 61;
width = 100;
},
{
position = 524;
width = 102;
}
);
};
};
width = 709;
}
);
unicode = 00D9;
},
{
glyphname = Uhungarumlaut;
layers = (
{
layerId = master01;
paths = (
{
closed = 1;
nodes = (
"623.851 574.691 OFFCURVE",
"625.916 520.452 OFFCURVE",
"625.916 466.118 CURVE SMOOTH",
"625.916 403.042 OFFCURVE",
"623.133 339.84 OFFCURVE",
"614 270 CURVE SMOOTH",
"593 110 OFFCURVE",
"511 0 OFFCURVE",
"334 0 CURVE SMOOTH",
"165 0 OFFCURVE",
"70 151 OFFCURVE",
"63 367 CURVE SMOOTH",
"61.823 408.984 OFFCURVE",
"61.416 446.042 OFFCURVE",
"61.416 480.71 CURVE SMOOTH",
"61.416 534.396 OFFCURVE",
"62.392 582.352 OFFCURVE",
"63 634 CURVE SMOOTH",
"63 650 OFFCURVE",
"74 681 OFFCURVE",
"115 681 CURVE SMOOTH",
"155 681 OFFCURVE",
"163 649 OFFCURVE",
"163 633 CURVE SMOOTH",
"161.903 584.176 OFFCURVE",
"161.107 541.07 OFFCURVE",
"161.107 496.748 CURVE SMOOTH",
"161.107 460.277 OFFCURVE",
"161.646 422.982 OFFCURVE",
"163 381 CURVE SMOOTH",
"168 236 OFFCURVE",
"205 92 OFFCURVE",
"336 92 CURVE SMOOTH",
"419 92 OFFCURVE",
"499 139 OFFCURVE",
"515 277 CURVE SMOOTH",
"522.348 344.826 OFFCURVE",
"523.945 406.582 OFFCURVE",
"523.945 471.478 CURVE SMOOTH",
"523.945 521.397 OFFCURVE",
"523 573.174 OFFCURVE",
"523 631 CURVE SMOOTH",
"523 647 OFFCURVE",
"530 681 OFFCURVE",
"573 681 CURVE SMOOTH",
"616 681 OFFCURVE",
"622 648 OFFCURVE",
"622 633 CURVE SMOOTH"
);
},
{
closed = 1;
nodes = (
"245 704 LINE SMOOTH",
"235 697 OFFCURVE",
"224 692 OFFCURVE",
"213 692 CURVE SMOOTH",
"189 692 OFFCURVE",
"167 713 OFFCURVE",
"167 740 CURVE SMOOTH",
"167 751 OFFCURVE",
"170 763 OFFCURVE",
"181 772 CURVE SMOOTH",
"295 866 LINE SMOOTH",
"305 875 OFFCURVE",
"320 885 OFFCURVE",
"336 885 CURVE SMOOTH",
"366 885 OFFCURVE",
"390 861 OFFCURVE",
"390 830 CURVE SMOOTH",
"390 815 OFFCURVE",
"385 799 OFFCURVE",
"371 790 CURVE SMOOTH"
);
},
{
closed = 1;
nodes = (
"450 704 LINE SMOOTH",
"440 697 OFFCURVE",
"429 692 OFFCURVE",
"418 692 CURVE SMOOTH",
"394 692 OFFCURVE",
"372 713 OFFCURVE",
"372 740 CURVE SMOOTH",
"372 751 OFFCURVE",
"375 763 OFFCURVE",
"386 772 CURVE SMOOTH",
"500 866 LINE SMOOTH",
"510 875 OFFCURVE",
"525 885 OFFCURVE",
"541 885 CURVE SMOOTH",
"571 885 OFFCURVE",
"595 861 OFFCURVE",
"595 830 CURVE SMOOTH",
"595 815 OFFCURVE",
"590 799 OFFCURVE",
"576 790 CURVE SMOOTH"
);
}
);
userData = {
com.fontlab.hintData = {
hhints = (
{
position = 0;
width = 92;
},
{
position = 661;
width = 20;
}
);
vhints = (
{
position = 61;
width = 100;
},
{
position = 524;
width = 102;
}
);
};
};
width = 709;
}
);
unicode = 0170;
},
{
glyphname = Uring;
layers = (
{
layerId = master01;
paths = (
{
closed = 1;
nodes = (
"623.851 574.691 OFFCURVE",
"625.916 520.452 OFFCURVE",
"625.916 466.118 CURVE SMOOTH",
"625.916 403.042 OFFCURVE",
"623.133 339.84 OFFCURVE",
"614 270 CURVE SMOOTH",
"593 110 OFFCURVE",
"511 0 OFFCURVE",
"334 0 CURVE SMOOTH",
"165 0 OFFCURVE",
"70 151 OFFCURVE",
"63 367 CURVE SMOOTH",
"61.823 408.984 OFFCURVE",
"61.416 446.042 OFFCURVE",
"61.416 480.71 CURVE SMOOTH",
"61.416 534.396 OFFCURVE",
"62.392 582.352 OFFCURVE",
"63 634 CURVE SMOOTH",
"63 650 OFFCURVE",
"74 681 OFFCURVE",
"115 681 CURVE SMOOTH",
"155 681 OFFCURVE",
"163 649 OFFCURVE",
"163 633 CURVE SMOOTH",
"161.903 584.176 OFFCURVE",
"161.107 541.07 OFFCURVE",
"161.107 496.748 CURVE SMOOTH",
"161.107 460.277 OFFCURVE",
"161.646 422.982 OFFCURVE",
"163 381 CURVE SMOOTH",
"168 236 OFFCURVE",
"205 92 OFFCURVE",
"336 92 CURVE SMOOTH",
"419 92 OFFCURVE",
"499 139 OFFCURVE",
"515 277 CURVE SMOOTH",
"522.348 344.826 OFFCURVE",
"523.945 406.582 OFFCURVE",
"523.945 471.478 CURVE SMOOTH",
"523.945 521.397 OFFCURVE",
"523 573.174 OFFCURVE",
"523 631 CURVE SMOOTH",
"523 647 OFFCURVE",
"530 681 OFFCURVE",
"573 681 CURVE SMOOTH",
"616 681 OFFCURVE",
"622 648 OFFCURVE",
"622 633 CURVE SMOOTH"
);
},
{
closed = 1;
nodes = (
"271 712 OFFCURVE",
"212 754 OFFCURVE",
"212 820 CURVE SMOOTH",
"212 897 OFFCURVE",
"287 942 OFFCURVE",
"362 942 CURVE SMOOTH",
"430 942 OFFCURVE",
"491 900 OFFCURVE",
"491 833 CURVE SMOOTH",
"491 755 OFFCURVE",
"415 712 OFFCURVE",
"342 712 CURVE SMOOTH"
);
},
{
closed = 1;
nodes = (
"322 862 OFFCURVE",
"298 838 OFFCURVE",
"298 820 CURVE SMOOTH",
"298 802 OFFCURVE",
"320 791 OFFCURVE",
"350 791 CURVE SMOOTH",
"373 791 OFFCURVE",
"405 806 OFFCURVE",
"405 831 CURVE SMOOTH",
"405 846 OFFCURVE",
"385 862 OFFCURVE",
"358 862 CURVE SMOOTH"
);
}
);
userData = {
com.fontlab.hintData = {
hhints = (
{
position = 0;
width = 92;
},
{
position = 661;
width = 20;
},
{
position = 712;
width = 79;
},
{
position = 862;
width = 80;
}
);
vhints = (
{
position = 61;
width = 100;
},
{
position = 212;
width = 86;
},
{
position = 405;
width = 86;
},
{
position = 524;
width = 102;
}
);
};
};
width = 709;
}
);
unicode = 016E;
},
{
glyphname = V;
layers = (
{
layerId = master01;
paths = (
{
closed = 1;
nodes = (
"13 610 LINE SMOOTH",
"10 619 OFFCURVE",
"9 628 OFFCURVE",
"9 633 CURVE SMOOTH",
"9 660 OFFCURVE",
"29 680 OFFCURVE",
"60 680 CURVE SMOOTH",
"79 680 OFFCURVE",
"98 669 OFFCURVE",
"106 646 CURVE SMOOTH",
"259 193 LINE",
"259 193 OFFCURVE",
"380 498 OFFCURVE",
"439 649 CURVE",
"448 669 OFFCURVE",
"465 680 OFFCURVE",
"485 680 CURVE SMOOTH",
"514 680 OFFCURVE",
"534 657 OFFCURVE",
"534 632 CURVE SMOOTH",
"534 627 OFFCURVE",
"533 620 OFFCURVE",
"530 613 CURVE SMOOTH",
"301 31 LINE SMOOTH",
"292 8 OFFCURVE",
"275 0 OFFCURVE",
"255 0 CURVE SMOOTH",
"234 0 OFFCURVE",
"215 11 OFFCURVE",
"208 33 CURVE SMOOTH"
);
}
);
userData = {
com.fontlab.hintData = {
hhints = (
{
position = 0;
width = 21;
}
);
vhints = (
{
position = 439;
width = 95;
}
);
};
};
width = 561;
}
);
unicode = 0056;
},
{
glyphname = W;
layers = (
{
layerId = master01;
paths = (
{
closed = 1;
nodes = (
"755 657 LINE SMOOTH",
"763 679 OFFCURVE",
"779 692 OFFCURVE",
"803 692 CURVE SMOOTH",
"830 692 OFFCURVE",
"851 673 OFFCURVE",
"851 648 CURVE SMOOTH",
"851 640 OFFCURVE",
"851 631 OFFCURVE",
"846 616 CURVE SMOOTH",
"635 32 LINE SMOOTH",
"628 12 OFFCURVE",
"611 0 OFFCURVE",
"590 0 CURVE SMOOTH",
"564 0 OFFCURVE",
"548 13 OFFCURVE",
"542 36 CURVE SMOOTH",
"425 458 LINE",
"288 34 LINE SMOOTH",
"279 7 OFFCURVE",
"263 0 OFFCURVE",
"240 0 CURVE SMOOTH",
"215 0 OFFCURVE",
"201 12 OFFCURVE",
"194 34 CURVE SMOOTH",
"20 605 LINE SMOOTH",
"15 623 OFFCURVE",
"15 629 OFFCURVE",
"15 637 CURVE SMOOTH",
"15 662 OFFCURVE",
"36 681 OFFCURVE",
"63 681 CURVE SMOOTH",
"87 681 OFFCURVE",
"104 668 OFFCURVE",
"111 646 CURVE SMOOTH",
"242 215 LINE",
"382 647 LINE SMOOTH",
"390 671 OFFCURVE",
"407 681 OFFCURVE",
"430 681 CURVE SMOOTH",
"452 681 OFFCURVE",
"469 670 OFFCURVE",
"476 646 CURVE SMOOTH",
"595 214 LINE"
);
}
);
userData = {
com.fontlab.hintData = {
hhints = (
{
position = 0;
width = 21;
},
{
position = 661;
width = 20;
}
);
vhints = (
{
position = 15;
width = 96;
}
);
};
};
width = 893;
}
);
unicode = 0057;
},
{
glyphname = X;
layers = (
{
layerId = master01;
paths = (
{
closed = 1;
nodes = (
"621 79 LINE SMOOTH",
"629 69 OFFCURVE",
"630 60 OFFCURVE",
"630 49 CURVE SMOOTH",
"630 23 OFFCURVE",
"609 0 OFFCURVE",
"582 0 CURVE SMOOTH",
"567 0 OFFCURVE",
"553 6 OFFCURVE",
"543 18 CURVE SMOOTH",
"344 266 LINE",
"135 18 LINE SMOOTH",
"123 4 OFFCURVE",
"112 0 OFFCURVE",
"98 0 CURVE SMOOTH",
"68 0 OFFCURVE",
"48 24 OFFCURVE",
"48 49 CURVE SMOOTH",
"48 61 OFFCURVE",
"53 74 OFFCURVE",
"59 81 CURVE SMOOTH",
"282 346 LINE",
"79 601 LINE SMOOTH",
"73 609 OFFCURVE",
"67 619 OFFCURVE",
"67 632 CURVE SMOOTH",
"67 660 OFFCURVE",
"92 681 OFFCURVE",
"118 681 CURVE SMOOTH",
"132 681 OFFCURVE",
"146 675 OFFCURVE",
"156 663 CURVE SMOOTH",
"347 424 LINE",
"548 663 LINE SMOOTH",
"558 675 OFFCURVE",
"572 681 OFFCURVE",
"586 681 CURVE SMOOTH",
"612 681 OFFCURVE",
"636 658 OFFCURVE",
"636 632 CURVE SMOOTH",
"636 620 OFFCURVE",
"630 608 OFFCURVE",
"624 600 CURVE SMOOTH",
"410 345 LINE"
);
}
);
userData = {
com.fontlab.hintData = {
hhints = (
{
position = 0;
width = 21;
},
{
position = 661;
width = 20;
}
);
};
};
width = 707;
}
);
unicode = 0058;
},
{
glyphname = Y;
layers = (
{
layerId = master01;
paths = (
{
closed = 1;
nodes = (
"506 657 LINE SMOOTH",
"515 673 OFFCURVE",
"531 681 OFFCURVE",
"549 681 CURVE SMOOTH",
"573 681 OFFCURVE",
"598 660 OFFCURVE",
"598 632 CURVE SMOOTH",
"598 621 OFFCURVE",
"597 615 OFFCURVE",
"588 600 CURVE SMOOTH",
"246 25 LINE SMOOTH",
"237 9 OFFCURVE",
"221 0 OFFCURVE",
"203 0 CURVE SMOOTH",
"175 0 OFFCURVE",
"154 24 OFFCURVE",
"154 49 CURVE SMOOTH",
"154 59 OFFCURVE",
"155 64 OFFCURVE",
"162 77 CURVE SMOOTH",
"249 223 LINE",
"27 603 LINE SMOOTH",
"21 614 OFFCURVE",
"19 623 OFFCURVE",
"19 632 CURVE SMOOTH",
"19 658 OFFCURVE",
"41 681 OFFCURVE",
"69 681 CURVE SMOOTH",
"86 681 OFFCURVE",
"102 672 OFFCURVE",
"111 656 CURVE SMOOTH",
"307 321 LINE"
);
}
);
userData = {
com.fontlab.hintData = {
hhints = (
{
position = 0;
width = 21;
},
{
position = 661;
width = 20;
}
);
};
};
width = 619;
}
);
unicode = 0059;
},
{
glyphname = Yacute;
layers = (
{
layerId = master01;
paths = (
{
closed = 1;
nodes = (
"506 657 LINE SMOOTH",
"515 673 OFFCURVE",
"531 681 OFFCURVE",
"549 681 CURVE SMOOTH",
"573 681 OFFCURVE",
"598 660 OFFCURVE",
"598 632 CURVE SMOOTH",
"598 621 OFFCURVE",
"597 615 OFFCURVE",
"588 600 CURVE SMOOTH",
"246 25 LINE SMOOTH",
"237 9 OFFCURVE",
"221 0 OFFCURVE",
"203 0 CURVE SMOOTH",
"175 0 OFFCURVE",
"154 24 OFFCURVE",
"154 49 CURVE SMOOTH",
"154 59 OFFCURVE",
"155 64 OFFCURVE",
"162 77 CURVE SMOOTH",
"249 223 LINE",
"27 603 LINE SMOOTH",
"21 614 OFFCURVE",
"19 623 OFFCURVE",
"19 632 CURVE SMOOTH",
"19 658 OFFCURVE",
"41 681 OFFCURVE",
"69 681 CURVE SMOOTH",
"86 681 OFFCURVE",
"102 672 OFFCURVE",
"111 656 CURVE SMOOTH",
"307 321 LINE"
);
},
{
closed = 1;
nodes = (
"338 883 LINE SMOOTH",
"348 891 OFFCURVE",
"362 902 OFFCURVE",
"379 902 CURVE SMOOTH",
"409 902 OFFCURVE",
"432 878 OFFCURVE",
"432 847 CURVE SMOOTH",
"432 832 OFFCURVE",
"427 817 OFFCURVE",
"413 807 CURVE SMOOTH",
"289 722 LINE SMOOTH",
"279 715 OFFCURVE",
"267 709 OFFCURVE",
"256 709 CURVE SMOOTH",
"232 709 OFFCURVE",
"210 730 OFFCURVE",
"210 757 CURVE SMOOTH",
"210 768 OFFCURVE",
"212 781 OFFCURVE",
"223 790 CURVE SMOOTH"
);
}
);
userData = {
com.fontlab.hintData = {
hhints = (
{
position = 0;
width = 21;
},
{
position = 661;
width = 20;
}
);
};
};
width = 619;
}
);
unicode = 00DD;
},
{
glyphname = Ydieresis;
layers = (
{
layerId = master01;
paths = (
{
closed = 1;
nodes = (
"280 722 OFFCURVE",
"249 693 OFFCURVE",
"209 693 CURVE SMOOTH",
"173 693 OFFCURVE",
"144 718 OFFCURVE",
"144 753 CURVE SMOOTH",
"144 787 OFFCURVE",
"176 817 OFFCURVE",
"215 817 CURVE SMOOTH",
"248 817 OFFCURVE",
"280 791 OFFCURVE",
"280 758 CURVE SMOOTH"
);
},
{
closed = 1;
nodes = (
"468 722 OFFCURVE",
"438 693 OFFCURVE",
"397 693 CURVE SMOOTH",
"361 693 OFFCURVE",
"332 718 OFFCURVE",
"332 753 CURVE SMOOTH",
"332 787 OFFCURVE",
"364 817 OFFCURVE",
"403 817 CURVE SMOOTH",
"437 817 OFFCURVE",
"468 791 OFFCURVE",
"468 758 CURVE SMOOTH"
);
},
{
closed = 1;
nodes = (
"506 657 LINE SMOOTH",
"515 673 OFFCURVE",
"531 681 OFFCURVE",
"549 681 CURVE SMOOTH",
"573 681 OFFCURVE",
"598 660 OFFCURVE",
"598 632 CURVE SMOOTH",
"598 621 OFFCURVE",
"597 615 OFFCURVE",
"588 600 CURVE SMOOTH",
"246 25 LINE SMOOTH",
"237 9 OFFCURVE",
"221 0 OFFCURVE",
"203 0 CURVE SMOOTH",
"175 0 OFFCURVE",
"154 24 OFFCURVE",
"154 49 CURVE SMOOTH",
"154 59 OFFCURVE",
"155 64 OFFCURVE",
"162 77 CURVE SMOOTH",
"249 223 LINE",
"27 603 LINE SMOOTH",
"21 614 OFFCURVE",
"19 623 OFFCURVE",
"19 632 CURVE SMOOTH",
"19 658 OFFCURVE",
"41 681 OFFCURVE",
"69 681 CURVE SMOOTH",
"86 681 OFFCURVE",
"102 672 OFFCURVE",
"111 656 CURVE SMOOTH",
"307 321 LINE"
);
}
);
userData = {
com.fontlab.hintData = {
hhints = (
{
position = 0;
width = 21;
},
{
position = 661;
width = 20;
},
{
position = 693;
width = 124;
}
);
vhints = (
{
position = 144;
width = 136;
},
{
position = 332;
width = 136;
}
);
};
};
width = 619;
}
);
unicode = 0178;
},
{
glyphname = Z;
layers = (
{
layerId = master01;
paths = (
{
closed = 1;
nodes = (
"530 102 LINE SMOOTH",
"558 102 OFFCURVE",
"580 80 OFFCURVE",
"580 51 CURVE SMOOTH",
"580 24 OFFCURVE",
"558 0 OFFCURVE",
"530 0 CURVE SMOOTH",
"99 0 LINE SMOOTH",
"62 0 OFFCURVE",
"45 23 OFFCURVE",
"45 56 CURVE SMOOTH",
"45 65 OFFCURVE",
"49 78 OFFCURVE",
"57 88 CURVE SMOOTH",
"451 577 LINE",
"111 577 LINE SMOOTH",
"84 577 OFFCURVE",
"61 600 OFFCURVE",
"61 629 CURVE SMOOTH",
"61 656 OFFCURVE",
"84 680 OFFCURVE",
"111 680 CURVE SMOOTH",
"542 680 LINE SMOOTH",
"572 680 OFFCURVE",
"596 657 OFFCURVE",
"596 627 CURVE SMOOTH",
"596 611 OFFCURVE",
"594 605 OFFCURVE",
"587 596 CURVE SMOOTH",
"190 102 LINE"
);
}
);
userData = {
com.fontlab.hintData = {
hhints = (
{
position = 0;
width = 102;
},
{
position = 577;
width = 103;
}
);
};
};
width = 665;
}
);
unicode = 005A;
},
{
glyphname = Zacute;
layers = (
{
layerId = master01;
paths = (
{
closed = 1;
nodes = (
"530 102 LINE SMOOTH",
"558 102 OFFCURVE",
"580 80 OFFCURVE",
"580 51 CURVE SMOOTH",
"580 24 OFFCURVE",
"558 0 OFFCURVE",
"530 0 CURVE SMOOTH",
"99 0 LINE SMOOTH",
"62 0 OFFCURVE",
"45 23 OFFCURVE",
"45 56 CURVE SMOOTH",
"45 65 OFFCURVE",
"49 78 OFFCURVE",
"57 88 CURVE SMOOTH",
"451 577 LINE",
"111 577 LINE SMOOTH",
"84 577 OFFCURVE",
"61 600 OFFCURVE",
"61 629 CURVE SMOOTH",
"61 656 OFFCURVE",
"84 680 OFFCURVE",
"111 680 CURVE SMOOTH",
"542 680 LINE SMOOTH",
"572 680 OFFCURVE",
"596 657 OFFCURVE",
"596 627 CURVE SMOOTH",
"596 611 OFFCURVE",
"594 605 OFFCURVE",
"587 596 CURVE SMOOTH",
"190 102 LINE"
);
},
{
closed = 1;
nodes = (
"365 883 LINE SMOOTH",
"375 891 OFFCURVE",
"389 902 OFFCURVE",
"406 902 CURVE SMOOTH",
"436 902 OFFCURVE",
"459 878 OFFCURVE",
"459 847 CURVE SMOOTH",
"459 832 OFFCURVE",
"454 817 OFFCURVE",
"440 807 CURVE SMOOTH",
"316 722 LINE SMOOTH",
"306 715 OFFCURVE",
"294 709 OFFCURVE",
"283 709 CURVE SMOOTH",
"259 709 OFFCURVE",
"237 730 OFFCURVE",
"237 757 CURVE SMOOTH",
"237 768 OFFCURVE",
"239 781 OFFCURVE",
"250 790 CURVE SMOOTH"
);
}
);
userData = {
com.fontlab.hintData = {
hhints = (
{
position = 0;
width = 102;
},
{
position = 577;
width = 103;
}
);
};
};
width = 665;
}
);
unicode = 0179;
},
{
glyphname = Zcaron;
layers = (
{
layerId = master01;
paths = (
{
closed = 1;
nodes = (
"346 721 LINE SMOOTH",
"335 712 OFFCURVE",
"323 709 OFFCURVE",
"314 709 CURVE SMOOTH",
"302 709 OFFCURVE",
"288 715 OFFCURVE",
"276 727 CURVE SMOOTH",
"180 823 LINE SMOOTH",
"170 833 OFFCURVE",
"166 844 OFFCURVE",
"166 857 CURVE SMOOTH",
"166 882 OFFCURVE",
"187 904 OFFCURVE",
"212 904 CURVE SMOOTH",
"224 904 OFFCURVE",
"234 902 OFFCURVE",
"245 892 CURVE SMOOTH",
"318 826 LINE",
"407 895 LINE SMOOTH",
"418 903 OFFCURVE",
"426 904 OFFCURVE",
"436 904 CURVE SMOOTH",
"461 904 OFFCURVE",
"483 884 OFFCURVE",
"483 857 CURVE SMOOTH",
"483 844 OFFCURVE",
"477 831 OFFCURVE",
"465 821 CURVE SMOOTH"
);
},
{
closed = 1;
nodes = (
"530 102 LINE SMOOTH",
"558 102 OFFCURVE",
"580 80 OFFCURVE",
"580 51 CURVE SMOOTH",
"580 24 OFFCURVE",
"558 0 OFFCURVE",
"530 0 CURVE SMOOTH",
"99 0 LINE SMOOTH",
"62 0 OFFCURVE",
"45 23 OFFCURVE",
"45 56 CURVE SMOOTH",
"45 65 OFFCURVE",
"49 78 OFFCURVE",
"57 88 CURVE SMOOTH",
"451 577 LINE",
"111 577 LINE SMOOTH",
"84 577 OFFCURVE",
"61 600 OFFCURVE",
"61 629 CURVE SMOOTH",
"61 656 OFFCURVE",
"84 680 OFFCURVE",
"111 680 CURVE SMOOTH",
"542 680 LINE SMOOTH",
"572 680 OFFCURVE",
"596 657 OFFCURVE",
"596 627 CURVE SMOOTH",
"596 611 OFFCURVE",
"594 605 OFFCURVE",
"587 596 CURVE SMOOTH",
"190 102 LINE"
);
}
);
userData = {
com.fontlab.hintData = {
hhints = (
{
position = 0;
width = 102;
},
{
position = 577;
width = 103;
}
);
};
};
width = 665;
}
);
unicode = 017D;
},
{
glyphname = Zdotaccent;
layers = (
{
layerId = master01;
paths = (
{
closed = 1;
nodes = (
"403 732 OFFCURVE",
"372 703 OFFCURVE",
"332 703 CURVE SMOOTH",
"296 703 OFFCURVE",
"267 727 OFFCURVE",
"267 762 CURVE SMOOTH",
"267 796 OFFCURVE",
"299 827 OFFCURVE",
"338 827 CURVE SMOOTH",
"371 827 OFFCURVE",
"403 801 OFFCURVE",
"403 767 CURVE SMOOTH"
);
},
{
closed = 1;
nodes = (
"530 102 LINE SMOOTH",
"558 102 OFFCURVE",
"580 80 OFFCURVE",
"580 51 CURVE SMOOTH",
"580 24 OFFCURVE",
"558 0 OFFCURVE",
"530 0 CURVE SMOOTH",
"99 0 LINE SMOOTH",
"62 0 OFFCURVE",
"45 23 OFFCURVE",
"45 56 CURVE SMOOTH",
"45 65 OFFCURVE",
"49 78 OFFCURVE",
"57 88 CURVE SMOOTH",
"451 577 LINE",
"111 577 LINE SMOOTH",
"84 577 OFFCURVE",
"61 600 OFFCURVE",
"61 629 CURVE SMOOTH",
"61 656 OFFCURVE",
"84 680 OFFCURVE",
"111 680 CURVE SMOOTH",
"542 680 LINE SMOOTH",
"572 680 OFFCURVE",
"596 657 OFFCURVE",
"596 627 CURVE SMOOTH",
"596 611 OFFCURVE",
"594 605 OFFCURVE",
"587 596 CURVE SMOOTH",
"190 102 LINE"
);
}
);
userData = {
com.fontlab.hintData = {
hhints = (
{
position = 0;
width = 102;
},
{
position = 577;
width = 103;
},
{
position = 703;
width = 124;
}
);
vhints = (
{
position = 267;
width = 136;
}
);
};
};
width = 665;
}
);
unicode = 017B;
},
{
glyphname = uni0162;
layers = (
{
layerId = master01;
paths = (
{
closed = 1;
nodes = (
"500 681 OFFCURVE",
"521 660 OFFCURVE",
"521 632 CURVE SMOOTH",
"521 605 OFFCURVE",
"500 582 OFFCURVE",
"472 582 CURVE SMOOTH",
"308 582 LINE",
"308 49 LINE SMOOTH",
"308 23 OFFCURVE",
"286 0 OFFCURVE",
"259 0 CURVE SMOOTH",
"232 0 OFFCURVE",
"209 23 OFFCURVE",
"209 49 CURVE SMOOTH",
"209 582 LINE",
"58 582 LINE SMOOTH",
"32 582 OFFCURVE",
"9 605 OFFCURVE",
"9 632 CURVE SMOOTH",
"9 660 OFFCURVE",
"32 681 OFFCURVE",
"58 681 CURVE SMOOTH",
"472 681 LINE"
);
},
{
closed = 1;
nodes = (
"321 -102 OFFCURVE",
"303 -152 OFFCURVE",
"287 -190 CURVE SMOOTH",
"278 -211 OFFCURVE",
"267 -229 OFFCURVE",
"241 -229 CURVE SMOOTH",
"216 -229 OFFCURVE",
"197 -210 OFFCURVE",
"197 -187 CURVE SMOOTH",
"197 -180 OFFCURVE",
"198 -176 OFFCURVE",
"200 -171 CURVE SMOOTH",
"218 -124 LINE",
"213 -115 OFFCURVE",
"210 -105 OFFCURVE",
"210 -93 CURVE SMOOTH",
"210 -60 OFFCURVE",
"238 -30 OFFCURVE",
"269 -30 CURVE SMOOTH",
"298 -30 OFFCURVE",
"321 -53 OFFCURVE",
"321 -81 CURVE SMOOTH"
);
}
);
userData = {
com.fontlab.hintData = {
hhints = (
{
position = 0;
width = 21;
},
{
position = 582;
width = 99;
}
);
vhints = (
{
position = 209;
width = 99;
},
{
position = 210;
width = 111;
}
);
};
};
width = 548;
}
);
unicode = 0162;
},
{
glyphname = a;
layers = (
{
layerId = master01;
paths = (
{
closed = 1;
nodes = (
"447 50 LINE SMOOTH",
"447 24 OFFCURVE",
"427 0 OFFCURVE",
"399 0 CURVE SMOOTH",
"373 0 OFFCURVE",
"357 15 OFFCURVE",
"352 35 CURVE",
"319 20 OFFCURVE",
"280 7 OFFCURVE",
"240 7 CURVE SMOOTH",
"130 7 OFFCURVE",
"47 95 OFFCURVE",
"47 226 CURVE SMOOTH",
"47 329 OFFCURVE",
"112 512 OFFCURVE",
"287 512 CURVE SMOOTH",
"359 512 OFFCURVE",
"429 475 OFFCURVE",
"447 466 CURVE"
);
},
{
closed = 1;
nodes = (
"352 405 LINE",
"335 412 OFFCURVE",
"310 417 OFFCURVE",
"289 417 CURVE SMOOTH",
"182 417 OFFCURVE",
"144 295 OFFCURVE",
"144 228 CURVE SMOOTH",
"144 174 OFFCURVE",
"169 103 OFFCURVE",
"239 103 CURVE SMOOTH",
"279 103 OFFCURVE",
"324 128 OFFCURVE",
"349 144 CURVE"
);
}
);
userData = {
com.fontlab.hintData = {
hhints = (
{
position = 0;
width = 21;
},
{
position = 7;
width = 96;
},
{
position = 417;
width = 95;
}
);
vhints = (
{
position = 47;
width = 97;
},
{
position = 349;
width = 98;
}
);
};
};
width = 531;
}
);
unicode = 0061;
},
{
glyphname = aacute;
layers = (
{
layerId = master01;
paths = (
{
closed = 1;
nodes = (
"447 40 LINE SMOOTH",
"447 14 OFFCURVE",
"427 -10 OFFCURVE",
"399 -10 CURVE SMOOTH",
"373 -10 OFFCURVE",
"357 5 OFFCURVE",
"352 25 CURVE",
"319 10 OFFCURVE",
"280 -3 OFFCURVE",
"240 -3 CURVE SMOOTH",
"130 -3 OFFCURVE",
"47 85 OFFCURVE",
"47 216 CURVE SMOOTH",
"47 319 OFFCURVE",
"112 502 OFFCURVE",
"287 502 CURVE SMOOTH",
"359 502 OFFCURVE",
"429 465 OFFCURVE",
"447 456 CURVE"
);
},
{
closed = 1;
nodes = (
"352 395 LINE",
"335 402 OFFCURVE",
"310 407 OFFCURVE",
"289 407 CURVE SMOOTH",
"182 407 OFFCURVE",
"144 285 OFFCURVE",
"144 218 CURVE SMOOTH",
"144 164 OFFCURVE",
"169 93 OFFCURVE",
"239 93 CURVE SMOOTH",
"279 93 OFFCURVE",
"324 118 OFFCURVE",
"349 134 CURVE"
);
},
{
closed = 1;
nodes = (
"338 703 LINE SMOOTH",
"348 711 OFFCURVE",
"362 722 OFFCURVE",
"379 722 CURVE SMOOTH",
"409 722 OFFCURVE",
"432 698 OFFCURVE",
"432 667 CURVE SMOOTH",
"432 652 OFFCURVE",
"427 637 OFFCURVE",
"413 627 CURVE SMOOTH",
"289 542 LINE SMOOTH",
"279 535 OFFCURVE",
"267 529 OFFCURVE",
"256 529 CURVE SMOOTH",
"232 529 OFFCURVE",
"210 550 OFFCURVE",
"210 577 CURVE SMOOTH",
"210 588 OFFCURVE",
"212 601 OFFCURVE",
"223 610 CURVE SMOOTH"
);
}
);
userData = {
com.fontlab.hintData = {
hhints = (
{
position = -3;
width = 96;
},
{
position = 407;
width = 95;
}
);
vhints = (
{
position = 47;
width = 97;
},
{
position = 349;
width = 98;
}
);
};
};
width = 531;
}
);
unicode = 00E1;
},
{
glyphname = abreve;
layers = (
{
layerId = master01;
paths = (
{
closed = 1;
nodes = (
"447 40 LINE SMOOTH",
"447 14 OFFCURVE",
"427 -10 OFFCURVE",
"399 -10 CURVE SMOOTH",
"373 -10 OFFCURVE",
"357 5 OFFCURVE",
"352 25 CURVE",
"319 10 OFFCURVE",
"280 -3 OFFCURVE",
"240 -3 CURVE SMOOTH",
"130 -3 OFFCURVE",
"47 85 OFFCURVE",
"47 216 CURVE SMOOTH",
"47 319 OFFCURVE",
"112 502 OFFCURVE",
"287 502 CURVE SMOOTH",
"359 502 OFFCURVE",
"429 465 OFFCURVE",
"447 456 CURVE"
);
},
{
closed = 1;
nodes = (
"352 395 LINE",
"335 402 OFFCURVE",
"310 407 OFFCURVE",
"289 407 CURVE SMOOTH",
"182 407 OFFCURVE",
"144 285 OFFCURVE",
"144 218 CURVE SMOOTH",
"144 164 OFFCURVE",
"169 93 OFFCURVE",
"239 93 CURVE SMOOTH",
"279 93 OFFCURVE",
"324 118 OFFCURVE",
"349 134 CURVE"
);
},
{
closed = 1;
nodes = (
"117 670 OFFCURVE",
"119 692 OFFCURVE",
"156 692 CURVE SMOOTH",
"177 692 OFFCURVE",
"190 675 OFFCURVE",
"196 663 CURVE SMOOTH",
"213 627 OFFCURVE",
"257 615 OFFCURVE",
"285 615 CURVE SMOOTH",
"321 615 OFFCURVE",
"346 629 OFFCURVE",
"360 663 CURVE SMOOTH",
"368 682 OFFCURVE",
"376 697 OFFCURVE",
"402 697 CURVE SMOOTH",
"422 697 OFFCURVE",
"440 679 OFFCURVE",
"440 659 CURVE SMOOTH",
"440 610 OFFCURVE",
"384 528 OFFCURVE",
"283 528 CURVE SMOOTH",
"159 528 OFFCURVE",
"117 629 OFFCURVE",
"117 655 CURVE SMOOTH"
);
}
);
userData = {
com.fontlab.hintData = {
hhints = (
{
position = -3;
width = 96;
},
{
position = 407;
width = 95;
},
{
position = 528;
width = 87;
}
);
vhints = (
{
position = 47;
width = 97;
},
{
position = 117;
width = 79;
},
{
position = 349;
width = 98;
},
{
position = 360;
width = 80;
}
);
};
};
width = 531;
}
);
unicode = 0103;
},
{
glyphname = acircumflex;
layers = (
{
layerId = master01;
paths = (
{
closed = 1;
nodes = (
"447 40 LINE SMOOTH",
"447 14 OFFCURVE",
"427 -10 OFFCURVE",
"399 -10 CURVE SMOOTH",
"373 -10 OFFCURVE",
"357 5 OFFCURVE",
"352 25 CURVE",
"319 10 OFFCURVE",
"280 -3 OFFCURVE",
"240 -3 CURVE SMOOTH",
"130 -3 OFFCURVE",
"47 85 OFFCURVE",
"47 216 CURVE SMOOTH",
"47 319 OFFCURVE",
"112 502 OFFCURVE",
"287 502 CURVE SMOOTH",
"359 502 OFFCURVE",
"429 465 OFFCURVE",
"447 456 CURVE"
);
},
{
closed = 1;
nodes = (
"352 395 LINE",
"335 402 OFFCURVE",
"310 407 OFFCURVE",
"289 407 CURVE SMOOTH",
"182 407 OFFCURVE",
"144 285 OFFCURVE",
"144 218 CURVE SMOOTH",
"144 164 OFFCURVE",
"169 93 OFFCURVE",
"239 93 CURVE SMOOTH",
"279 93 OFFCURVE",
"324 118 OFFCURVE",
"349 134 CURVE"
);
},
{
closed = 1;
nodes = (
"270 726 LINE SMOOTH",
"281 735 OFFCURVE",
"293 738 OFFCURVE",
"302 738 CURVE SMOOTH",
"314 738 OFFCURVE",
"328 732 OFFCURVE",
"340 720 CURVE SMOOTH",
"436 624 LINE SMOOTH",
"446 614 OFFCURVE",
"450 603 OFFCURVE",
"450 590 CURVE SMOOTH",
"450 565 OFFCURVE",
"429 543 OFFCURVE",
"404 543 CURVE SMOOTH",
"392 543 OFFCURVE",
"382 545 OFFCURVE",
"371 555 CURVE SMOOTH",
"298 621 LINE",
"209 552 LINE SMOOTH",
"198 544 OFFCURVE",
"190 543 OFFCURVE",
"180 543 CURVE SMOOTH",
"155 543 OFFCURVE",
"133 563 OFFCURVE",
"133 590 CURVE SMOOTH",
"133 603 OFFCURVE",
"139 616 OFFCURVE",
"151 626 CURVE SMOOTH"
);
}
);
userData = {
com.fontlab.hintData = {
hhints = (
{
position = -3;
width = 96;
},
{
position = 407;
width = 95;
}
);
vhints = (
{
position = 47;
width = 97;
},
{
position = 349;
width = 98;
}
);
};
};
width = 531;
}
);
unicode = 00E2;
},
{
glyphname = adieresis;
layers = (
{
layerId = master01;
paths = (
{
closed = 1;
nodes = (
"257 571 OFFCURVE",
"227 543 OFFCURVE",
"188 543 CURVE SMOOTH",
"152 543 OFFCURVE",
"124 567 OFFCURVE",
"124 601 CURVE SMOOTH",
"124 634 OFFCURVE",
"155 664 OFFCURVE",
"193 664 CURVE SMOOTH",
"226 664 OFFCURVE",
"257 639 OFFCURVE",
"257 606 CURVE SMOOTH"
);
},
{
closed = 1;
nodes = (
"441 571 OFFCURVE",
"411 543 OFFCURVE",
"372 543 CURVE SMOOTH",
"337 543 OFFCURVE",
"309 567 OFFCURVE",
"309 601 CURVE SMOOTH",
"309 634 OFFCURVE",
"339 664 OFFCURVE",
"378 664 CURVE SMOOTH",
"410 664 OFFCURVE",
"441 639 OFFCURVE",
"441 606 CURVE SMOOTH"
);
},
{
closed = 1;
nodes = (
"447 40 LINE SMOOTH",
"447 14 OFFCURVE",
"427 -10 OFFCURVE",
"399 -10 CURVE SMOOTH",
"373 -10 OFFCURVE",
"357 5 OFFCURVE",
"352 25 CURVE",
"319 10 OFFCURVE",
"280 -3 OFFCURVE",
"240 -3 CURVE SMOOTH",
"130 -3 OFFCURVE",
"47 85 OFFCURVE",
"47 216 CURVE SMOOTH",
"47 319 OFFCURVE",
"112 502 OFFCURVE",
"287 502 CURVE SMOOTH",
"359 502 OFFCURVE",
"429 465 OFFCURVE",
"447 456 CURVE"
);
},
{
closed = 1;
nodes = (
"352 395 LINE",
"335 402 OFFCURVE",
"310 407 OFFCURVE",
"289 407 CURVE SMOOTH",
"182 407 OFFCURVE",
"144 285 OFFCURVE",
"144 218 CURVE SMOOTH",
"144 164 OFFCURVE",
"169 93 OFFCURVE",
"239 93 CURVE SMOOTH",
"279 93 OFFCURVE",
"324 118 OFFCURVE",
"349 134 CURVE"
);
}
);
userData = {
com.fontlab.hintData = {
hhints = (
{
position = -3;
width = 96;
},
{
position = 407;
width = 95;
},
{
position = 543;
width = 121;
}
);
vhints = (
{
position = 47;
width = 97;
},
{
position = 124;
width = 133;
},
{
position = 309;
width = 132;
},
{
position = 349;
width = 98;
}
);
};
};
width = 531;
}
);
unicode = 00E4;
},
{
glyphname = agrave;
layers = (
{
layerId = master01;
paths = (
{
closed = 1;
nodes = (
"447 40 LINE SMOOTH",
"447 14 OFFCURVE",
"427 -10 OFFCURVE",
"399 -10 CURVE SMOOTH",
"373 -10 OFFCURVE",
"357 5 OFFCURVE",
"352 25 CURVE",
"319 10 OFFCURVE",
"280 -3 OFFCURVE",
"240 -3 CURVE SMOOTH",
"130 -3 OFFCURVE",
"47 85 OFFCURVE",
"47 216 CURVE SMOOTH",
"47 319 OFFCURVE",
"112 502 OFFCURVE",
"287 502 CURVE SMOOTH",
"359 502 OFFCURVE",
"429 465 OFFCURVE",
"447 456 CURVE"
);
},
{
closed = 1;
nodes = (
"352 395 LINE",
"335 402 OFFCURVE",
"310 407 OFFCURVE",
"289 407 CURVE SMOOTH",
"182 407 OFFCURVE",
"144 285 OFFCURVE",
"144 218 CURVE SMOOTH",
"144 164 OFFCURVE",
"169 93 OFFCURVE",
"239 93 CURVE SMOOTH",
"279 93 OFFCURVE",
"324 118 OFFCURVE",
"349 134 CURVE"
);
},
{
closed = 1;
nodes = (
"198 654 LINE SMOOTH",
"188 664 OFFCURVE",
"182 676 OFFCURVE",
"182 692 CURVE SMOOTH",
"182 720 OFFCURVE",
"208 746 OFFCURVE",
"236 746 CURVE SMOOTH",
"254 746 OFFCURVE",
"270 736 OFFCURVE",
"280 724 CURVE SMOOTH",
"375 605 LINE SMOOTH",
"384 593 OFFCURVE",
"387 585 OFFCURVE",
"387 575 CURVE SMOOTH",
"387 548 OFFCURVE",
"363 528 OFFCURVE",
"339 528 CURVE SMOOTH",
"324 528 OFFCURVE",
"313 534 OFFCURVE",
"305 543 CURVE SMOOTH"
);
}
);
userData = {
com.fontlab.hintData = {
hhints = (
{
position = -3;
width = 96;
},
{
position = 407;
width = 95;
}
);
vhints = (
{
position = 47;
width = 97;
},
{
position = 349;
width = 98;
}
);
};
};
width = 531;
}
);
unicode = 00E0;
},
{
glyphname = aogonek;
layers = (
{
layerId = master01;
paths = (
{
closed = 1;
nodes = (
"318 -196 OFFCURVE",
"267 -147 OFFCURVE",
"267 -79 CURVE SMOOTH",
"267 -18 OFFCURVE",
"313 11 OFFCURVE",
"358 37 CURVE",
"355 44 OFFCURVE",
"353 50 OFFCURVE",
"352 55 CURVE",
"319 32 OFFCURVE",
"280 17 OFFCURVE",
"240 17 CURVE SMOOTH",
"130 17 OFFCURVE",
"47 95 OFFCURVE",
"47 226 CURVE SMOOTH",
"47 329 OFFCURVE",
"112 512 OFFCURVE",
"287 512 CURVE SMOOTH",
"359 512 OFFCURVE",
"429 475 OFFCURVE",
"447 466 CURVE",
"447 50 LINE SMOOTH",
"447 11 OFFCURVE",
"426 -4 OFFCURVE",
"403 -21 CURVE SMOOTH",
"384 -35 OFFCURVE",
"358 -54 OFFCURVE",
"358 -80 CURVE SMOOTH",
"358 -95 OFFCURVE",
"371 -104 OFFCURVE",
"386 -104 CURVE SMOOTH",
"399 -104 OFFCURVE",
"414 -100 OFFCURVE",
"426 -90 CURVE SMOOTH",
"437 -82 OFFCURVE",
"445 -80 OFFCURVE",
"455 -80 CURVE SMOOTH",
"476 -80 OFFCURVE",
"499 -102 OFFCURVE",
"499 -126 CURVE SMOOTH",
"499 -168 OFFCURVE",
"425 -196 OFFCURVE",
"386 -196 CURVE SMOOTH"
);
},
{
closed = 1;
nodes = (
"352 405 LINE",
"335 412 OFFCURVE",
"310 417 OFFCURVE",
"289 417 CURVE SMOOTH",
"182 417 OFFCURVE",
"144 295 OFFCURVE",
"144 228 CURVE SMOOTH",
"144 174 OFFCURVE",
"169 113 OFFCURVE",
"239 113 CURVE SMOOTH",
"279 113 OFFCURVE",
"324 138 OFFCURVE",
"349 154 CURVE"
);
}
);
userData = {
com.fontlab.hintData = {
hhints = (
{
position = -196;
width = 92;
},
{
position = 17;
width = 96;
},
{
position = 417;
width = 95;
}
);
vhints = (
{
position = 47;
width = 97;
},
{
position = 267;
width = 91;
},
{
position = 349;
width = 98;
}
);
};
};
width = 531;
}
);
unicode = 0105;
},
{
glyphname = aring;
layers = (
{
layerId = master01;
paths = (
{
closed = 1;
nodes = (
"220 531 OFFCURVE",
"163 582 OFFCURVE",
"163 647 CURVE SMOOTH",
"163 722 OFFCURVE",
"236 776 OFFCURVE",
"309 776 CURVE SMOOTH",
"376 776 OFFCURVE",
"435 725 OFFCURVE",
"435 660 CURVE SMOOTH",
"435 583 OFFCURVE",
"361 531 OFFCURVE",
"289 531 CURVE SMOOTH"
);
},
{
closed = 1;
nodes = (
"270 688 OFFCURVE",
"247 664 OFFCURVE",
"247 647 CURVE SMOOTH",
"247 630 OFFCURVE",
"269 619 OFFCURVE",
"298 619 CURVE SMOOTH",
"320 619 OFFCURVE",
"351 633 OFFCURVE",
"351 658 CURVE SMOOTH",
"351 672 OFFCURVE",
"332 688 OFFCURVE",
"306 688 CURVE SMOOTH"
);
},
{
closed = 1;
nodes = (
"447 40 LINE SMOOTH",
"447 14 OFFCURVE",
"427 -10 OFFCURVE",
"399 -10 CURVE SMOOTH",
"373 -10 OFFCURVE",
"357 5 OFFCURVE",
"352 25 CURVE",
"319 10 OFFCURVE",
"280 -3 OFFCURVE",
"240 -3 CURVE SMOOTH",
"130 -3 OFFCURVE",
"47 85 OFFCURVE",
"47 216 CURVE SMOOTH",
"47 319 OFFCURVE",
"112 502 OFFCURVE",
"287 502 CURVE SMOOTH",
"359 502 OFFCURVE",
"429 465 OFFCURVE",
"447 456 CURVE"
);
},
{
closed = 1;
nodes = (
"352 395 LINE",
"335 402 OFFCURVE",
"310 407 OFFCURVE",
"289 407 CURVE SMOOTH",
"182 407 OFFCURVE",
"144 285 OFFCURVE",
"144 218 CURVE SMOOTH",
"144 164 OFFCURVE",
"169 93 OFFCURVE",
"239 93 CURVE SMOOTH",
"279 93 OFFCURVE",
"324 118 OFFCURVE",
"349 134 CURVE"
);
}
);
userData = {
com.fontlab.hintData = {
hhints = (
{
position = -3;
width = 96;
},
{
position = 407;
width = 95;
},
{
position = 531;
width = 88;
},
{
position = 688;
width = 88;
}
);
vhints = (
{
position = 47;
width = 97;
},
{
position = 163;
width = 84;
},
{
position = 349;
width = 98;
},
{
position = 351;
width = 84;
}
);
};
};
width = 531;
}
);
unicode = 00E5;
},
{
glyphname = atilde;
layers = (
{
layerId = master01;
paths = (
{
closed = 1;
nodes = (
"447 40 LINE SMOOTH",
"447 14 OFFCURVE",
"427 -10 OFFCURVE",
"399 -10 CURVE SMOOTH",
"373 -10 OFFCURVE",
"357 5 OFFCURVE",
"352 25 CURVE",
"319 10 OFFCURVE",
"280 -3 OFFCURVE",
"240 -3 CURVE SMOOTH",
"130 -3 OFFCURVE",
"47 85 OFFCURVE",
"47 216 CURVE SMOOTH",
"47 319 OFFCURVE",
"112 502 OFFCURVE",
"287 502 CURVE SMOOTH",
"359 502 OFFCURVE",
"429 465 OFFCURVE",
"447 456 CURVE"
);
},
{
closed = 1;
nodes = (
"352 395 LINE",
"335 402 OFFCURVE",
"310 407 OFFCURVE",
"289 407 CURVE SMOOTH",
"182 407 OFFCURVE",
"144 285 OFFCURVE",
"144 218 CURVE SMOOTH",
"144 164 OFFCURVE",
"169 93 OFFCURVE",
"239 93 CURVE SMOOTH",
"279 93 OFFCURVE",
"324 118 OFFCURVE",
"349 134 CURVE"
);
},
{
closed = 1;
nodes = (
"403 706 OFFCURVE",
"415 713 OFFCURVE",
"430 713 CURVE SMOOTH",
"449 713 OFFCURVE",
"469 703 OFFCURVE",
"469 680 CURVE SMOOTH",
"469 676 OFFCURVE",
"469 669 OFFCURVE",
"466 658 CURVE SMOOTH",
"456 627 OFFCURVE",
"421 525 OFFCURVE",
"320 525 CURVE SMOOTH",
"288 525 OFFCURVE",
"261 542 OFFCURVE",
"239 573 CURVE SMOOTH",
"223 596 OFFCURVE",
"212 608 OFFCURVE",
"197 608 CURVE SMOOTH",
"162 608 OFFCURVE",
"145 556 OFFCURVE",
"140 540 CURVE SMOOTH",
"135 525 OFFCURVE",
"126 518 OFFCURVE",
"111 518 CURVE SMOOTH",
"92 518 OFFCURVE",
"72 528 OFFCURVE",
"72 551 CURVE SMOOTH",
"72 555 OFFCURVE",
"72 562 OFFCURVE",
"75 573 CURVE SMOOTH",
"92 630 OFFCURVE",
"131 697 OFFCURVE",
"209 697 CURVE SMOOTH",
"248 697 OFFCURVE",
"274 680 OFFCURVE",
"296 649 CURVE SMOOTH",
"312 627 OFFCURVE",
"323 613 OFFCURVE",
"338 613 CURVE SMOOTH",
"359 613 OFFCURVE",
"385 637 OFFCURVE",
"399 691 CURVE SMOOTH"
);
}
);
userData = {
com.fontlab.hintData = {
hhints = (
{
position = -3;
width = 96;
},
{
position = 407;
width = 95;
},
{
position = 525;
width = 88;
},
{
position = 608;
width = 89;
}
);
vhints = (
{
position = 47;
width = 97;
},
{
position = 72;
width = 68;
},
{
position = 349;
width = 98;
},
{
position = 399;
width = 70;
}
);
};
};
width = 531;
}
);
unicode = 00E3;
},
{
glyphname = ae;
layers = (
{
layerId = master01;
paths = (
{
closed = 1;
nodes = (
"714 33 OFFCURVE",
"650 0 OFFCURVE",
"588 0 CURVE SMOOTH",
"531 0 OFFCURVE",
"483 15 OFFCURVE",
"443 44 CURVE",
"441 23 OFFCURVE",
"419 0 OFFCURVE",
"395 0 CURVE SMOOTH",
"372 0 OFFCURVE",
"354 16 OFFCURVE",
"349 34 CURVE",
"319 20 OFFCURVE",
"281 7 OFFCURVE",
"244 7 CURVE SMOOTH",
"136 7 OFFCURVE",
"55 86 OFFCURVE",
"55 217 CURVE SMOOTH",
"55 382 OFFCURVE",
"162 498 OFFCURVE",
"282 498 CURVE SMOOTH",
"345 498 OFFCURVE",
"413 469 OFFCURVE",
"432 455 CURVE",
"432 429 LINE",
"472 468 OFFCURVE",
"527 484 OFFCURVE",
"573 484 CURVE SMOOTH",
"697 484 OFFCURVE",
"756 391 OFFCURVE",
"756 344 CURVE SMOOTH",
"756 327 OFFCURVE",
"744 310 OFFCURVE",
"724 298 CURVE SMOOTH",
"464 148 LINE",
"493 112 OFFCURVE",
"541 93 OFFCURVE",
"594 93 CURVE SMOOTH",
"627 93 OFFCURVE",
"662 112 OFFCURVE",
"683 135 CURVE SMOOTH",
"692 145 OFFCURVE",
"702 151 OFFCURVE",
"718 151 CURVE SMOOTH",
"744 151 OFFCURVE",
"764 131 OFFCURVE",
"764 104 CURVE SMOOTH",
"764 92 OFFCURVE",
"760 82 OFFCURVE",
"752 74 CURVE SMOOTH"
);
},
{
closed = 1;
nodes = (
"350 392 LINE",
"334 398 OFFCURVE",
"309 404 OFFCURVE",
"289 404 CURVE SMOOTH",
"186 404 OFFCURVE",
"149 285 OFFCURVE",
"149 220 CURVE SMOOTH",
"149 154 OFFCURVE",
"183 101 OFFCURVE",
"240 101 CURVE SMOOTH",
"276 101 OFFCURVE",
"321 123 OFFCURVE",
"345 140 CURVE"
);
},
{
closed = 1;
nodes = (
"659 359 LINE",
"643 381 OFFCURVE",
"614 392 OFFCURVE",
"568 392 CURVE SMOOTH",
"491 392 OFFCURVE",
"437 322 OFFCURVE",
"433 234 CURVE"
);
}
);
userData = {
com.fontlab.hintData = {
hhints = (
{
position = 0;
width = 93;
},
{
position = 7;
width = 94;
},
{
position = 392;
width = 92;
},
{
position = 404;
width = 94;
}
);
vhints = (
{
position = 55;
width = 94;
},
{
position = 345;
width = 88;
}
);
};
};
width = 858;
}
);
unicode = 00E6;
},
{
glyphname = b;
layers = (
{
layerId = master01;
paths = (
{
closed = 1;
nodes = (
"430 491 OFFCURVE",
"479 373 OFFCURVE",
"479 269 CURVE SMOOTH",
"479 124 OFFCURVE",
"415 6 OFFCURVE",
"259 6 CURVE SMOOTH",
"221 6 OFFCURVE",
"181 15 OFFCURVE",
"151 24 CURVE",
"143 11 OFFCURVE",
"125 1 OFFCURVE",
"108 1 CURVE SMOOTH",
"82 1 OFFCURVE",
"62 22 OFFCURVE",
"62 46 CURVE SMOOTH",
"62 627 LINE SMOOTH",
"62 654 OFFCURVE",
"84 672 OFFCURVE",
"110 672 CURVE SMOOTH",
"134 672 OFFCURVE",
"157 654 OFFCURVE",
"157 627 CURVE SMOOTH",
"157 446 LINE",
"198 476 OFFCURVE",
"245 491 OFFCURVE",
"298 491 CURVE SMOOTH"
);
},
{
closed = 1;
nodes = (
"350 100 OFFCURVE",
"385 167 OFFCURVE",
"385 269 CURVE SMOOTH",
"385 322 OFFCURVE",
"367 395 OFFCURVE",
"301 395 CURVE SMOOTH",
"219 395 OFFCURVE",
"157 348 OFFCURVE",
"157 290 CURVE SMOOTH",
"157 117 LINE",
"178 110 OFFCURVE",
"215 100 OFFCURVE",
"252 100 CURVE SMOOTH"
);
}
);
userData = {
com.fontlab.hintData = {
hhints = (
{
position = 1;
width = 21;
},
{
position = 6;
width = 94;
},
{
position = 395;
width = 96;
}
);
vhints = (
{
position = 62;
width = 95;
},
{
position = 385;
width = 94;
}
);
};
};
width = 550;
}
);
unicode = 0062;
},
{
glyphname = c;
layers = (
{
layerId = master01;
paths = (
{
closed = 1;
nodes = (
"381 156 OFFCURVE",
"394 172 OFFCURVE",
"417 172 CURVE SMOOTH",
"443 172 OFFCURVE",
"464 151 OFFCURVE",
"464 124 CURVE SMOOTH",
"464 112 OFFCURVE",
"459 102 OFFCURVE",
"453 94 CURVE SMOOTH",
"418 47 OFFCURVE",
"349 0 OFFCURVE",
"275 0 CURVE SMOOTH",
"155 0 OFFCURVE",
"47 91 OFFCURVE",
"47 219 CURVE SMOOTH",
"47 266 OFFCURVE",
"61 310 OFFCURVE",
"71 335 CURVE SMOOTH",
"96 401 OFFCURVE",
"173 500 OFFCURVE",
"272 500 CURVE SMOOTH",
"347 500 OFFCURVE",
"384 476 OFFCURVE",
"424 430 CURVE SMOOTH",
"433 419 OFFCURVE",
"437 408 OFFCURVE",
"437 396 CURVE SMOOTH",
"437 370 OFFCURVE",
"415 349 OFFCURVE",
"389 349 CURVE SMOOTH",
"372 349 OFFCURVE",
"364 354 OFFCURVE",
"358 361 CURVE SMOOTH",
"334 389 OFFCURVE",
"312 407 OFFCURVE",
"274 407 CURVE SMOOTH",
"224 407 OFFCURVE",
"176 346 OFFCURVE",
"157 302 CURVE",
"146 272 OFFCURVE",
"141 243 OFFCURVE",
"141 221 CURVE SMOOTH",
"141 122 OFFCURVE",
"229 93 OFFCURVE",
"263 93 CURVE SMOOTH",
"320 93 OFFCURVE",
"352 117 OFFCURVE",
"374 147 CURVE SMOOTH"
);
}
);
userData = {
com.fontlab.hintData = {
hhints = (
{
position = 0;
width = 93;
},
{
position = 407;
width = 93;
}
);
vhints = (
{
position = 47;
width = 94;
}
);
};
};
width = 535;
}
);
unicode = 0063;
},
{
glyphname = cacute;
layers = (
{
layerId = master01;
paths = (
{
closed = 1;
nodes = (
"381 156 OFFCURVE",
"394 172 OFFCURVE",
"417 172 CURVE SMOOTH",
"443 172 OFFCURVE",
"464 151 OFFCURVE",
"464 124 CURVE SMOOTH",
"464 112 OFFCURVE",
"459 102 OFFCURVE",
"453 94 CURVE SMOOTH",
"418 47 OFFCURVE",
"349 0 OFFCURVE",
"275 0 CURVE SMOOTH",
"155 0 OFFCURVE",
"47 91 OFFCURVE",
"47 219 CURVE SMOOTH",
"47 266 OFFCURVE",
"61 310 OFFCURVE",
"71 335 CURVE SMOOTH",
"96 401 OFFCURVE",
"173 500 OFFCURVE",
"272 500 CURVE SMOOTH",
"347 500 OFFCURVE",
"384 476 OFFCURVE",
"424 430 CURVE SMOOTH",
"433 419 OFFCURVE",
"437 408 OFFCURVE",
"437 396 CURVE SMOOTH",
"437 370 OFFCURVE",
"415 349 OFFCURVE",
"389 349 CURVE SMOOTH",
"372 349 OFFCURVE",
"364 354 OFFCURVE",
"358 361 CURVE SMOOTH",
"334 389 OFFCURVE",
"312 407 OFFCURVE",
"274 407 CURVE SMOOTH",
"224 407 OFFCURVE",
"176 346 OFFCURVE",
"157 302 CURVE",
"146 272 OFFCURVE",
"141 243 OFFCURVE",
"141 221 CURVE SMOOTH",
"141 122 OFFCURVE",
"229 93 OFFCURVE",
"263 93 CURVE SMOOTH",
"320 93 OFFCURVE",
"352 117 OFFCURVE",
"374 147 CURVE SMOOTH"
);
},
{
closed = 1;
nodes = (
"318 703 LINE SMOOTH",
"328 711 OFFCURVE",
"342 722 OFFCURVE",
"359 722 CURVE SMOOTH",
"389 722 OFFCURVE",
"412 698 OFFCURVE",
"412 667 CURVE SMOOTH",
"412 652 OFFCURVE",
"407 637 OFFCURVE",
"393 627 CURVE SMOOTH",
"269 542 LINE SMOOTH",
"259 535 OFFCURVE",
"247 529 OFFCURVE",
"236 529 CURVE SMOOTH",
"212 529 OFFCURVE",
"190 550 OFFCURVE",
"190 577 CURVE SMOOTH",
"190 588 OFFCURVE",
"192 601 OFFCURVE",
"203 610 CURVE SMOOTH"
);
}
);
userData = {
com.fontlab.hintData = {
hhints = (
{
position = 0;
width = 93;
},
{
position = 407;
width = 93;
}
);
vhints = (
{
position = 47;
width = 94;
}
);
};
};
width = 535;
}
);
unicode = 0107;
},
{
glyphname = ccaron;
layers = (
{
layerId = master01;
paths = (
{
closed = 1;
nodes = (
"381 156 OFFCURVE",
"394 172 OFFCURVE",
"417 172 CURVE SMOOTH",
"443 172 OFFCURVE",
"464 151 OFFCURVE",
"464 124 CURVE SMOOTH",
"464 112 OFFCURVE",
"459 102 OFFCURVE",
"453 94 CURVE SMOOTH",
"418 47 OFFCURVE",
"349 0 OFFCURVE",
"275 0 CURVE SMOOTH",
"155 0 OFFCURVE",
"47 91 OFFCURVE",
"47 219 CURVE SMOOTH",
"47 266 OFFCURVE",
"61 310 OFFCURVE",
"71 335 CURVE SMOOTH",
"96 401 OFFCURVE",
"173 500 OFFCURVE",
"272 500 CURVE SMOOTH",
"347 500 OFFCURVE",
"384 476 OFFCURVE",
"424 430 CURVE SMOOTH",
"433 419 OFFCURVE",
"437 408 OFFCURVE",
"437 396 CURVE SMOOTH",
"437 370 OFFCURVE",
"415 349 OFFCURVE",
"389 349 CURVE SMOOTH",
"372 349 OFFCURVE",
"364 354 OFFCURVE",
"358 361 CURVE SMOOTH",
"334 389 OFFCURVE",
"312 407 OFFCURVE",
"274 407 CURVE SMOOTH",
"224 407 OFFCURVE",
"176 346 OFFCURVE",
"157 302 CURVE",
"146 272 OFFCURVE",
"141 243 OFFCURVE",
"141 221 CURVE SMOOTH",
"141 122 OFFCURVE",
"229 93 OFFCURVE",
"263 93 CURVE SMOOTH",
"320 93 OFFCURVE",
"352 117 OFFCURVE",
"374 147 CURVE SMOOTH"
);
},
{
closed = 1;
nodes = (
"301 540 LINE SMOOTH",
"290 531 OFFCURVE",
"278 528 OFFCURVE",
"269 528 CURVE SMOOTH",
"257 528 OFFCURVE",
"243 534 OFFCURVE",
"231 546 CURVE SMOOTH",
"135 642 LINE SMOOTH",
"125 652 OFFCURVE",
"121 663 OFFCURVE",
"121 676 CURVE SMOOTH",
"121 701 OFFCURVE",
"142 723 OFFCURVE",
"167 723 CURVE SMOOTH",
"179 723 OFFCURVE",
"189 721 OFFCURVE",
"200 711 CURVE SMOOTH",
"273 645 LINE",
"362 714 LINE SMOOTH",
"373 722 OFFCURVE",
"381 723 OFFCURVE",
"391 723 CURVE SMOOTH",
"416 723 OFFCURVE",
"438 703 OFFCURVE",
"438 676 CURVE SMOOTH",
"438 663 OFFCURVE",
"432 650 OFFCURVE",
"420 640 CURVE SMOOTH"
);
}
);
userData = {
com.fontlab.hintData = {
hhints = (
{
position = 0;
width = 93;
},
{
position = 407;
width = 93;
}
);
vhints = (
{
position = 47;
width = 94;
}
);
};
};
width = 535;
}
);
unicode = 010D;
},
{
glyphname = ccedilla;
layers = (
{
layerId = master01;
paths = (
{
closed = 1;
nodes = (
"272 -130 OFFCURVE",
"278 -132 OFFCURVE",
"287 -132 CURVE SMOOTH",
"303 -132 OFFCURVE",
"310 -118 OFFCURVE",
"310 -106 CURVE SMOOTH",
"310 -94 OFFCURVE",
"302 -86 OFFCURVE",
"286 -83 CURVE SMOOTH",
"237 -73 LINE SMOOTH",
"223.605 -70.18 OFFCURVE",
"218.659 -61.395 OFFCURVE",
"218.659 -50.151 CURVE SMOOTH",
"218.659 -45.446 OFFCURVE",
"219.525 -40.31 OFFCURVE",
"221 -35 CURVE SMOOTH",
"225 -20 OFFCURVE",
"228 -7 OFFCURVE",
"232 3 CURVE",
"130 22 OFFCURVE",
"47 106 OFFCURVE",
"47 219 CURVE SMOOTH",
"47 266 OFFCURVE",
"61 310 OFFCURVE",
"71 335 CURVE SMOOTH",
"96 401 OFFCURVE",
"173 500 OFFCURVE",
"272 500 CURVE SMOOTH",
"347 500 OFFCURVE",
"384 476 OFFCURVE",
"424 430 CURVE SMOOTH",
"433 419 OFFCURVE",
"437 408 OFFCURVE",
"437 396 CURVE SMOOTH",
"437 370 OFFCURVE",
"415 349 OFFCURVE",
"389 349 CURVE SMOOTH",
"372 349 OFFCURVE",
"364 354 OFFCURVE",
"358 361 CURVE SMOOTH",
"334 389 OFFCURVE",
"312 407 OFFCURVE",
"274 407 CURVE SMOOTH",
"224 407 OFFCURVE",
"176 346 OFFCURVE",
"157 302 CURVE",
"146 272 OFFCURVE",
"141 243 OFFCURVE",
"141 221 CURVE SMOOTH",
"141 122 OFFCURVE",
"229 93 OFFCURVE",
"263 93 CURVE SMOOTH",
"320 93 OFFCURVE",
"352 117 OFFCURVE",
"374 147 CURVE SMOOTH",
"381 156 OFFCURVE",
"394 172 OFFCURVE",
"417 172 CURVE SMOOTH",
"443 172 OFFCURVE",
"464 151 OFFCURVE",
"464 124 CURVE SMOOTH",
"464 112 OFFCURVE",
"459 102 OFFCURVE",
"453 94 CURVE SMOOTH",
"420 50 OFFCURVE",
"357 5 OFFCURVE",
"288 0 CURVE",
"289 -9 OFFCURVE",
"290 -18 OFFCURVE",
"290 -27 CURVE",
"350 -37 OFFCURVE",
"381 -61 OFFCURVE",
"381 -110 CURVE SMOOTH",
"381 -168 OFFCURVE",
"334 -196 OFFCURVE",
"276 -196 CURVE SMOOTH",
"238 -196 OFFCURVE",
"197 -180 OFFCURVE",
"197 -148 CURVE SMOOTH",
"197 -131 OFFCURVE",
"210 -109 OFFCURVE",
"233 -109 CURVE SMOOTH",
"250 -109 OFFCURVE",
"257 -118 OFFCURVE",
"267 -126 CURVE SMOOTH"
);
}
);
userData = {
com.fontlab.hintData = {
hhints = (
{
position = -196;
width = 64;
},
{
position = 407;
width = 93;
}
);
vhints = (
{
position = 47;
width = 94;
},
{
position = 219;
width = 71;
},
{
position = 310;
width = 71;
}
);
};
};
width = 535;
}
);
unicode = 00E7;
},
{
glyphname = ccircumflex;
layers = (
{
layerId = master01;
paths = (
{
closed = 1;
nodes = (
"381 156 OFFCURVE",
"394 172 OFFCURVE",
"417 172 CURVE SMOOTH",
"443 172 OFFCURVE",
"464 151 OFFCURVE",
"464 124 CURVE SMOOTH",
"464 112 OFFCURVE",
"459 102 OFFCURVE",
"453 94 CURVE SMOOTH",
"418 47 OFFCURVE",
"349 0 OFFCURVE",
"275 0 CURVE SMOOTH",
"155 0 OFFCURVE",
"47 91 OFFCURVE",
"47 219 CURVE SMOOTH",
"47 266 OFFCURVE",
"61 310 OFFCURVE",
"71 335 CURVE SMOOTH",
"96 401 OFFCURVE",
"173 500 OFFCURVE",
"272 500 CURVE SMOOTH",
"347 500 OFFCURVE",
"384 476 OFFCURVE",
"424 430 CURVE SMOOTH",
"433 419 OFFCURVE",
"437 408 OFFCURVE",
"437 396 CURVE SMOOTH",
"437 370 OFFCURVE",
"415 349 OFFCURVE",
"389 349 CURVE SMOOTH",
"372 349 OFFCURVE",
"364 354 OFFCURVE",
"358 361 CURVE SMOOTH",
"334 389 OFFCURVE",
"312 407 OFFCURVE",
"274 407 CURVE SMOOTH",
"224 407 OFFCURVE",
"176 346 OFFCURVE",
"157 302 CURVE SMOOTH",
"146 272 OFFCURVE",
"141 243 OFFCURVE",
"141 221 CURVE SMOOTH",
"141 122 OFFCURVE",
"229 93 OFFCURVE",
"263 93 CURVE SMOOTH",
"320 93 OFFCURVE",
"352 117 OFFCURVE",
"374 147 CURVE SMOOTH"
);
},
{
closed = 1;
nodes = (
"255 726 LINE SMOOTH",
"266 735 OFFCURVE",
"278 738 OFFCURVE",
"287 738 CURVE SMOOTH",
"299 738 OFFCURVE",
"313 732 OFFCURVE",
"325 720 CURVE SMOOTH",
"421 624 LINE SMOOTH",
"431 614 OFFCURVE",
"435 603 OFFCURVE",
"435 590 CURVE SMOOTH",
"435 565 OFFCURVE",
"414 543 OFFCURVE",
"389 543 CURVE SMOOTH",
"377 543 OFFCURVE",
"367 545 OFFCURVE",
"356 555 CURVE SMOOTH",
"283 621 LINE",
"194 552 LINE SMOOTH",
"183 544 OFFCURVE",
"175 543 OFFCURVE",
"165 543 CURVE SMOOTH",
"140 543 OFFCURVE",
"118 563 OFFCURVE",
"118 590 CURVE SMOOTH",
"118 603 OFFCURVE",
"124 616 OFFCURVE",
"136 626 CURVE SMOOTH"
);
}
);
userData = {
com.fontlab.hintData = {
hhints = (
{
position = 0;
width = 93;
},
{
position = 407;
width = 93;
}
);
vhints = (
{
position = 47;
width = 94;
}
);
};
};
width = 535;
}
);
unicode = 0109;
},
{
glyphname = d;
layers = (
{
layerId = master01;
paths = (
{
closed = 1;
nodes = (
"456 46 LINE SMOOTH",
"455 20 OFFCURVE",
"434 0 OFFCURVE",
"407 0 CURVE SMOOTH",
"378 0 OFFCURVE",
"361 22 OFFCURVE",
"359 45 CURVE",
"326 23 OFFCURVE",
"282 4 OFFCURVE",
"227 4 CURVE SMOOTH",
"105 4 OFFCURVE",
"48 117 OFFCURVE",
"48 228 CURVE SMOOTH",
"48 369 OFFCURVE",
"108 498 OFFCURVE",
"266 498 CURVE SMOOTH",
"304 498 OFFCURVE",
"340 490 OFFCURVE",
"368 481 CURVE",
"373 630 LINE SMOOTH",
"374 657 OFFCURVE",
"395 679 OFFCURVE",
"422 679 CURVE SMOOTH",
"447 679 OFFCURVE",
"471 655 OFFCURVE",
"470 628 CURVE SMOOTH"
);
},
{
closed = 1;
nodes = (
"144 174 OFFCURVE",
"162 94 OFFCURVE",
"227 94 CURVE SMOOTH",
"308 94 OFFCURVE",
"363 148 OFFCURVE",
"363 170 CURVE SMOOTH",
"367 377 LINE",
"345 387 OFFCURVE",
"304 403 OFFCURVE",
"267 403 CURVE SMOOTH",
"163 403 OFFCURVE",
"144 301 OFFCURVE",
"144 231 CURVE SMOOTH"
);
}
);
userData = {
com.fontlab.hintData = {
hhints = (
{
position = 0;
width = 21;
},
{
position = 4;
width = 90;
},
{
position = 403;
width = 95;
}
);
vhints = (
{
position = 48;
width = 96;
},
{
position = 363;
width = 93;
},
{
position = 367;
width = 103;
}
);
};
};
width = 556;
}
);
unicode = 0064;
},
{
glyphname = eth;
layers = (
{
layerId = master01;
paths = (
{
closed = 1;
nodes = (
"216 643 OFFCURVE",
"222 639 OFFCURVE",
"250 611 CURVE",
"292 636 OFFCURVE",
"339 655 OFFCURVE",
"357 655 CURVE SMOOTH",
"377 655 OFFCURVE",
"397 640 OFFCURVE",
"397 615 CURVE SMOOTH",
"397 602 OFFCURVE",
"394 589 OFFCURVE",
"376 580 CURVE SMOOTH",
"309 547 LINE",
"379 467 OFFCURVE",
"439 364 OFFCURVE",
"439 255 CURVE SMOOTH",
"439 129 OFFCURVE",
"357 1 OFFCURVE",
"219 1 CURVE SMOOTH",
"122 1 OFFCURVE",
"47 74 OFFCURVE",
"47 184 CURVE SMOOTH",
"47 327 OFFCURVE",
"140 419 OFFCURVE",
"278 438 CURVE",
"264 459 OFFCURVE",
"244 485 OFFCURVE",
"228 501 CURVE",
"196 482 OFFCURVE",
"179 472 OFFCURVE",
"163 461 CURVE SMOOTH",
"145 449 OFFCURVE",
"136 443 OFFCURVE",
"125 443 CURVE SMOOTH",
"102 443 OFFCURVE",
"85 459 OFFCURVE",
"85 482 CURVE SMOOTH",
"85 499 OFFCURVE",
"92 510 OFFCURVE",
"106 520 CURVE SMOOTH",
"120 531 OFFCURVE",
"136 544 OFFCURVE",
"166 561 CURVE",
"150 575 OFFCURVE",
"141 584 OFFCURVE",
"141 605 CURVE SMOOTH",
"141 630 OFFCURVE",
"163 651 OFFCURVE",
"187 651 CURVE SMOOTH",
"198 651 OFFCURVE",
"202 650 OFFCURVE",
"212 645 CURVE SMOOTH"
);
},
{
closed = 1;
nodes = (
"300 93 OFFCURVE",
"347 174 OFFCURVE",
"347 258 CURVE SMOOTH",
"347 289 OFFCURVE",
"339 320 OFFCURVE",
"326 351 CURVE",
"224 349 OFFCURVE",
"138 303 OFFCURVE",
"138 184 CURVE SMOOTH",
"138 127 OFFCURVE",
"173 93 OFFCURVE",
"219 93 CURVE SMOOTH"
);
}
);
userData = {
com.fontlab.hintData = {
hhints = (
{
position = 1;
width = 92;
}
);
vhints = (
{
position = 47;
width = 91;
},
{
position = 347;
width = 92;
}
);
};
};
width = 508;
}
);
unicode = 00F0;
},
{
glyphname = dcaron;
layers = (
{
layerId = master01;
paths = (
{
closed = 1;
nodes = (
"451 46 LINE SMOOTH",
"450 20 OFFCURVE",
"429 0 OFFCURVE",
"402 0 CURVE SMOOTH",
"373 0 OFFCURVE",
"356 22 OFFCURVE",
"354 45 CURVE",
"321 23 OFFCURVE",
"277 4 OFFCURVE",
"222 4 CURVE SMOOTH",
"100 4 OFFCURVE",
"43 117 OFFCURVE",
"43 228 CURVE SMOOTH",
"43 369 OFFCURVE",
"103 498 OFFCURVE",
"261 498 CURVE SMOOTH",
"299 498 OFFCURVE",
"335 490 OFFCURVE",
"363 481 CURVE",
"368 630 LINE SMOOTH",
"369 657 OFFCURVE",
"390 679 OFFCURVE",
"417 679 CURVE SMOOTH",
"442 679 OFFCURVE",
"466 655 OFFCURVE",
"465 628 CURVE SMOOTH"
);
},
{
closed = 1;
nodes = (
"139 174 OFFCURVE",
"157 94 OFFCURVE",
"222 94 CURVE SMOOTH",
"303 94 OFFCURVE",
"358 148 OFFCURVE",
"358 170 CURVE SMOOTH",
"362 377 LINE",
"340 387 OFFCURVE",
"299 403 OFFCURVE",
"262 403 CURVE SMOOTH",
"158 403 OFFCURVE",
"139 301 OFFCURVE",
"139 231 CURVE SMOOTH"
);
},
{
closed = 1;
nodes = (
"610 650 OFFCURVE",
"592 600 OFFCURVE",
"576 562 CURVE SMOOTH",
"567 541 OFFCURVE",
"556 523 OFFCURVE",
"530 523 CURVE SMOOTH",
"505 523 OFFCURVE",
"486 542 OFFCURVE",
"486 565 CURVE SMOOTH",
"486 572 OFFCURVE",
"487 576 OFFCURVE",
"489 581 CURVE SMOOTH",
"507 628 LINE",
"502 637 OFFCURVE",
"499 647 OFFCURVE",
"499 659 CURVE SMOOTH",
"499 692 OFFCURVE",
"527 722 OFFCURVE",
"558 722 CURVE SMOOTH",
"587 722 OFFCURVE",
"610 699 OFFCURVE",
"610 671 CURVE SMOOTH"
);
}
);
userData = {
com.fontlab.hintData = {
hhints = (
{
position = 0;
width = 21;
},
{
position = 4;
width = 90;
},
{
position = 403;
width = 95;
}
);
vhints = (
{
position = 43;
width = 96;
},
{
position = 358;
width = 93;
},
{
position = 362;
width = 103;
},
{
position = 499;
width = 111;
}
);
};
};
width = 571;
}
);
unicode = 010F;
},
{
glyphname = dcroat;
layers = (
{
layerId = master01;
paths = (
{
closed = 1;
nodes = (
"470 613 LINE",
"507 613 LINE SMOOTH",
"533 613 OFFCURVE",
"553 593 OFFCURVE",
"553 568 CURVE SMOOTH",
"553 543 OFFCURVE",
"533 521 OFFCURVE",
"507 521 CURVE SMOOTH",
"467 521 LINE",
"456 46 LINE SMOOTH",
"455 20 OFFCURVE",
"434 0 OFFCURVE",
"407 0 CURVE SMOOTH",
"378 0 OFFCURVE",
"361 22 OFFCURVE",
"359 45 CURVE",
"326 23 OFFCURVE",
"282 4 OFFCURVE",
"227 4 CURVE SMOOTH",
"105 4 OFFCURVE",
"48 112 OFFCURVE",
"48 223 CURVE SMOOTH",
"48 364 OFFCURVE",
"108 488 OFFCURVE",
"266 488 CURVE SMOOTH",
"304 488 OFFCURVE",
"340 480 OFFCURVE",
"368 471 CURVE",
"369 521 LINE",
"329 521 LINE SMOOTH",
"305 521 OFFCURVE",
"283 543 OFFCURVE",
"283 568 CURVE SMOOTH",
"283 593 OFFCURVE",
"305 613 OFFCURVE",
"329 613 CURVE SMOOTH",
"372 613 LINE",
"373 630 LINE SMOOTH",
"374 657 OFFCURVE",
"396 679 OFFCURVE",
"423 679 CURVE SMOOTH",
"448 679 OFFCURVE",
"470 659 OFFCURVE",
"470 628 CURVE SMOOTH"
);
},
{
closed = 1;
nodes = (
"144 169 OFFCURVE",
"162 94 OFFCURVE",
"227 94 CURVE SMOOTH",
"308 94 OFFCURVE",
"363 148 OFFCURVE",
"363 170 CURVE SMOOTH",
"367 367 LINE",
"345 377 OFFCURVE",
"304 393 OFFCURVE",
"267 393 CURVE SMOOTH",
"163 393 OFFCURVE",
"144 296 OFFCURVE",
"144 226 CURVE SMOOTH"
);
}
);
userData = {
com.fontlab.hintData = {
hhints = (
{
position = 0;
width = 21;
},
{
position = 4;
width = 90;
},
{
position = 393;
width = 95;
},
{
position = 521;
width = 92;
}
);
vhints = (
{
position = 48;
width = 96;
},
{
position = 363;
width = 93;
},
{
position = 372;
width = 98;
}
);
};
};
width = 583;
}
);
unicode = 0111;
},
{
glyphname = e;
layers = (
{
layerId = master01;
paths = (
{
closed = 1;
nodes = (
"405 144 OFFCURVE",
"416 151 OFFCURVE",
"429 151 CURVE SMOOTH",
"456 151 OFFCURVE",
"476 131 OFFCURVE",
"476 104 CURVE SMOOTH",
"476 92 OFFCURVE",
"471 81 OFFCURVE",
"464 74 CURVE SMOOTH",
"428 33 OFFCURVE",
"359 0 OFFCURVE",
"297 0 CURVE SMOOTH",
"145 0 OFFCURVE",
"49 114 OFFCURVE",
"49 239 CURVE SMOOTH",
"49 376 OFFCURVE",
"138 499 OFFCURVE",
"275 499 CURVE SMOOTH",
"407 499 OFFCURVE",
"467 402 OFFCURVE",
"467 355 CURVE SMOOTH",
"467 338 OFFCURVE",
"457 321 OFFCURVE",
"436 309 CURVE SMOOTH",
"168 155 LINE",
"197 114 OFFCURVE",
"240 93 OFFCURVE",
"297 93 CURVE SMOOTH",
"330 93 OFFCURVE",
"374 112 OFFCURVE",
"396 135 CURVE SMOOTH"
);
},
{
closed = 1;
nodes = (
"366 372 LINE",
"350 394 OFFCURVE",
"321 405 OFFCURVE",
"275 405 CURVE SMOOTH",
"198 405 OFFCURVE",
"144 335 OFFCURVE",
"140 247 CURVE"
);
}
);
userData = {
com.fontlab.hintData = {
hhints = (
{
position = 0;
width = 93;
},
{
position = 405;
width = 94;
}
);
vhints = (
{
position = 49;
width = 91;
}
);
};
};
width = 547;
}
);
unicode = 0065;
},
{
glyphname = eacute;
layers = (
{
layerId = master01;
paths = (
{
closed = 1;
nodes = (
"405 144 OFFCURVE",
"416 151 OFFCURVE",
"429 151 CURVE SMOOTH",
"456 151 OFFCURVE",
"476 131 OFFCURVE",
"476 104 CURVE SMOOTH",
"476 92 OFFCURVE",
"471 81 OFFCURVE",
"464 74 CURVE SMOOTH",
"428 33 OFFCURVE",
"359 0 OFFCURVE",
"297 0 CURVE SMOOTH",
"145 0 OFFCURVE",
"49 114 OFFCURVE",
"49 239 CURVE SMOOTH",
"49 376 OFFCURVE",
"138 499 OFFCURVE",
"275 499 CURVE SMOOTH",
"407 499 OFFCURVE",
"467 402 OFFCURVE",
"467 355 CURVE SMOOTH",
"467 338 OFFCURVE",
"457 321 OFFCURVE",
"436 309 CURVE SMOOTH",
"168 155 LINE",
"197 114 OFFCURVE",
"240 93 OFFCURVE",
"297 93 CURVE SMOOTH",
"330 93 OFFCURVE",
"374 112 OFFCURVE",
"396 135 CURVE SMOOTH"
);
},
{
closed = 1;
nodes = (
"366 372 LINE",
"350 394 OFFCURVE",
"321 405 OFFCURVE",
"275 405 CURVE SMOOTH",
"198 405 OFFCURVE",
"144 335 OFFCURVE",
"140 247 CURVE"
);
},
{
closed = 1;
nodes = (
"318 703 LINE SMOOTH",
"328 711 OFFCURVE",
"342 722 OFFCURVE",
"359 722 CURVE SMOOTH",
"389 722 OFFCURVE",
"412 698 OFFCURVE",
"412 667 CURVE SMOOTH",
"412 652 OFFCURVE",
"407 637 OFFCURVE",
"393 627 CURVE SMOOTH",
"269 542 LINE SMOOTH",
"259 535 OFFCURVE",
"247 529 OFFCURVE",
"236 529 CURVE SMOOTH",
"212 529 OFFCURVE",
"190 550 OFFCURVE",
"190 577 CURVE SMOOTH",
"190 588 OFFCURVE",
"192 601 OFFCURVE",
"203 610 CURVE SMOOTH"
);
}
);
userData = {
com.fontlab.hintData = {
hhints = (
{
position = 0;
width = 93;
},
{
position = 405;
width = 94;
}
);
vhints = (
{
position = 49;
width = 91;
}
);
};
};
width = 547;
}
);
unicode = 00E9;
},
{
glyphname = ecaron;
layers = (
{
layerId = master01;
paths = (
{
closed = 1;
nodes = (
"405 144 OFFCURVE",
"416 151 OFFCURVE",
"429 151 CURVE SMOOTH",
"456 151 OFFCURVE",
"476 131 OFFCURVE",
"476 104 CURVE SMOOTH",
"476 92 OFFCURVE",
"471 81 OFFCURVE",
"464 74 CURVE SMOOTH",
"428 33 OFFCURVE",
"359 0 OFFCURVE",
"297 0 CURVE SMOOTH",
"145 0 OFFCURVE",
"49 114 OFFCURVE",
"49 239 CURVE SMOOTH",
"49 376 OFFCURVE",
"138 499 OFFCURVE",
"275 499 CURVE SMOOTH",
"407 499 OFFCURVE",
"467 402 OFFCURVE",
"467 355 CURVE SMOOTH",
"467 338 OFFCURVE",
"457 321 OFFCURVE",
"436 309 CURVE SMOOTH",
"168 155 LINE",
"197 114 OFFCURVE",
"240 93 OFFCURVE",
"297 93 CURVE SMOOTH",
"330 93 OFFCURVE",
"374 112 OFFCURVE",
"396 135 CURVE SMOOTH"
);
},
{
closed = 1;
nodes = (
"366 372 LINE",
"350 394 OFFCURVE",
"321 405 OFFCURVE",
"275 405 CURVE SMOOTH",
"198 405 OFFCURVE",
"144 335 OFFCURVE",
"140 247 CURVE"
);
},
{
closed = 1;
nodes = (
"316 540 LINE SMOOTH",
"305 531 OFFCURVE",
"293 528 OFFCURVE",
"284 528 CURVE SMOOTH",
"272 528 OFFCURVE",
"258 534 OFFCURVE",
"246 546 CURVE SMOOTH",
"150 642 LINE SMOOTH",
"140 652 OFFCURVE",
"136 663 OFFCURVE",
"136 676 CURVE SMOOTH",
"136 701 OFFCURVE",
"157 723 OFFCURVE",
"182 723 CURVE SMOOTH",
"194 723 OFFCURVE",
"204 721 OFFCURVE",
"215 711 CURVE SMOOTH",
"288 645 LINE",
"377 714 LINE SMOOTH",
"388 722 OFFCURVE",
"396 723 OFFCURVE",
"406 723 CURVE SMOOTH",
"431 723 OFFCURVE",
"453 703 OFFCURVE",
"453 676 CURVE SMOOTH",
"453 663 OFFCURVE",
"447 650 OFFCURVE",
"435 640 CURVE SMOOTH"
);
}
);
userData = {
com.fontlab.hintData = {
hhints = (
{
position = 0;
width = 93;
},
{
position = 405;
width = 94;
}
);
vhints = (
{
position = 49;
width = 91;
}
);
};
};
width = 547;
}
);
unicode = 011B;
},
{
glyphname = ecircumflex;
layers = (
{
layerId = master01;
paths = (
{
closed = 1;
nodes = (
"405 144 OFFCURVE",
"416 151 OFFCURVE",
"429 151 CURVE SMOOTH",
"456 151 OFFCURVE",
"476 131 OFFCURVE",
"476 104 CURVE SMOOTH",
"476 92 OFFCURVE",
"471 81 OFFCURVE",
"464 74 CURVE SMOOTH",
"428 33 OFFCURVE",
"359 0 OFFCURVE",
"297 0 CURVE SMOOTH",
"145 0 OFFCURVE",
"49 114 OFFCURVE",
"49 239 CURVE SMOOTH",
"49 376 OFFCURVE",
"138 499 OFFCURVE",
"275 499 CURVE SMOOTH",
"407 499 OFFCURVE",
"467 402 OFFCURVE",
"467 355 CURVE SMOOTH",
"467 338 OFFCURVE",
"457 321 OFFCURVE",
"436 309 CURVE SMOOTH",
"168 155 LINE",
"197 114 OFFCURVE",
"240 93 OFFCURVE",
"297 93 CURVE SMOOTH",
"330 93 OFFCURVE",
"374 112 OFFCURVE",
"396 135 CURVE SMOOTH"
);
},
{
closed = 1;
nodes = (
"366 372 LINE",
"350 394 OFFCURVE",
"321 405 OFFCURVE",
"275 405 CURVE SMOOTH",
"198 405 OFFCURVE",
"144 335 OFFCURVE",
"140 247 CURVE"
);
},
{
closed = 1;
nodes = (
"270 726 LINE SMOOTH",
"281 735 OFFCURVE",
"293 738 OFFCURVE",
"302 738 CURVE SMOOTH",
"314 738 OFFCURVE",
"328 732 OFFCURVE",
"340 720 CURVE SMOOTH",
"436 624 LINE SMOOTH",
"446 614 OFFCURVE",
"450 603 OFFCURVE",
"450 590 CURVE SMOOTH",
"450 565 OFFCURVE",
"429 543 OFFCURVE",
"404 543 CURVE SMOOTH",
"392 543 OFFCURVE",
"382 545 OFFCURVE",
"371 555 CURVE SMOOTH",
"298 621 LINE",
"209 552 LINE SMOOTH",
"198 544 OFFCURVE",
"190 543 OFFCURVE",
"180 543 CURVE SMOOTH",
"155 543 OFFCURVE",
"133 563 OFFCURVE",
"133 590 CURVE SMOOTH",
"133 603 OFFCURVE",
"139 616 OFFCURVE",
"151 626 CURVE SMOOTH"
);
}
);
userData = {
com.fontlab.hintData = {
hhints = (
{
position = 0;
width = 93;
},
{
position = 405;
width = 94;
}
);
vhints = (
{
position = 49;
width = 91;
}
);
};
};
width = 547;
}
);
unicode = 00EA;
},
{
glyphname = edieresis;
layers = (
{
layerId = master01;
paths = (
{
closed = 1;
nodes = (
"263 571 OFFCURVE",
"233 543 OFFCURVE",
"194 543 CURVE SMOOTH",
"158 543 OFFCURVE",
"130 567 OFFCURVE",
"130 601 CURVE SMOOTH",
"130 634 OFFCURVE",
"161 664 OFFCURVE",
"199 664 CURVE SMOOTH",
"232 664 OFFCURVE",
"263 639 OFFCURVE",
"263 606 CURVE SMOOTH"
);
},
{
closed = 1;
nodes = (
"447 571 OFFCURVE",
"417 543 OFFCURVE",
"378 543 CURVE SMOOTH",
"343 543 OFFCURVE",
"315 567 OFFCURVE",
"315 601 CURVE SMOOTH",
"315 634 OFFCURVE",
"346 664 OFFCURVE",
"384 664 CURVE SMOOTH",
"416 664 OFFCURVE",
"447 639 OFFCURVE",
"447 606 CURVE SMOOTH"
);
},
{
closed = 1;
nodes = (
"405 144 OFFCURVE",
"416 151 OFFCURVE",
"429 151 CURVE SMOOTH",
"456 151 OFFCURVE",
"476 131 OFFCURVE",
"476 104 CURVE SMOOTH",
"476 92 OFFCURVE",
"471 81 OFFCURVE",
"464 74 CURVE SMOOTH",
"428 33 OFFCURVE",
"359 0 OFFCURVE",
"297 0 CURVE SMOOTH",
"145 0 OFFCURVE",
"49 114 OFFCURVE",
"49 239 CURVE SMOOTH",
"49 376 OFFCURVE",
"138 499 OFFCURVE",
"275 499 CURVE SMOOTH",
"407 499 OFFCURVE",
"467 402 OFFCURVE",
"467 355 CURVE SMOOTH",
"467 338 OFFCURVE",
"457 321 OFFCURVE",
"436 309 CURVE SMOOTH",
"168 155 LINE",
"197 114 OFFCURVE",
"240 93 OFFCURVE",
"297 93 CURVE SMOOTH",
"330 93 OFFCURVE",
"374 112 OFFCURVE",
"396 135 CURVE SMOOTH"
);
},
{
closed = 1;
nodes = (
"366 372 LINE",
"350 394 OFFCURVE",
"321 405 OFFCURVE",
"275 405 CURVE SMOOTH",
"198 405 OFFCURVE",
"144 335 OFFCURVE",
"140 247 CURVE"
);
}
);
userData = {
com.fontlab.hintData = {
hhints = (
{
position = 0;
width = 93;
},
{
position = 405;
width = 94;
},
{
position = 543;
width = 121;
}
);
vhints = (
{
position = 49;
width = 91;
},
{
position = 130;
width = 133;
},
{
position = 315;
width = 132;
}
);
};
};
width = 547;
}
);
unicode = 00EB;
},
{
glyphname = egrave;
layers = (
{
layerId = master01;
paths = (
{
closed = 1;
nodes = (
"405 144 OFFCURVE",
"416 151 OFFCURVE",
"429 151 CURVE SMOOTH",
"456 151 OFFCURVE",
"476 131 OFFCURVE",
"476 104 CURVE SMOOTH",
"476 92 OFFCURVE",
"471 81 OFFCURVE",
"464 74 CURVE SMOOTH",
"428 33 OFFCURVE",
"359 0 OFFCURVE",
"297 0 CURVE SMOOTH",
"145 0 OFFCURVE",
"49 114 OFFCURVE",
"49 239 CURVE SMOOTH",
"49 376 OFFCURVE",
"138 499 OFFCURVE",
"275 499 CURVE SMOOTH",
"407 499 OFFCURVE",
"467 402 OFFCURVE",
"467 355 CURVE SMOOTH",
"467 338 OFFCURVE",
"457 321 OFFCURVE",
"436 309 CURVE SMOOTH",
"168 155 LINE",
"197 114 OFFCURVE",
"240 93 OFFCURVE",
"297 93 CURVE SMOOTH",
"330 93 OFFCURVE",
"374 112 OFFCURVE",
"396 135 CURVE SMOOTH"
);
},
{
closed = 1;
nodes = (
"366 372 LINE",
"350 394 OFFCURVE",
"321 405 OFFCURVE",
"275 405 CURVE SMOOTH",
"198 405 OFFCURVE",
"144 335 OFFCURVE",
"140 247 CURVE"
);
},
{
closed = 1;
nodes = (
"188 654 LINE SMOOTH",
"178 664 OFFCURVE",
"172 676 OFFCURVE",
"172 692 CURVE SMOOTH",
"172 720 OFFCURVE",
"198 746 OFFCURVE",
"226 746 CURVE SMOOTH",
"244 746 OFFCURVE",
"260 736 OFFCURVE",
"270 724 CURVE SMOOTH",
"365 605 LINE SMOOTH",
"374 593 OFFCURVE",
"377 585 OFFCURVE",
"377 575 CURVE SMOOTH",
"377 548 OFFCURVE",
"353 528 OFFCURVE",
"329 528 CURVE SMOOTH",
"314 528 OFFCURVE",
"303 534 OFFCURVE",
"295 543 CURVE SMOOTH"
);
}
);
userData = {
com.fontlab.hintData = {
hhints = (
{
position = 0;
width = 93;
},
{
position = 405;
width = 94;
}
);
vhints = (
{
position = 49;
width = 91;
}
);
};
};
width = 547;
}
);
unicode = 00E8;
},
{
glyphname = eogonek;
layers = (
{
layerId = master01;
paths = (
{
closed = 1;
nodes = (
"249 -196 OFFCURVE",
"198 -147 OFFCURVE",
"198 -79 CURVE SMOOTH",
"198 -46 OFFCURVE",
"211 -17 OFFCURVE",
"231 7 CURVE",
"118 35 OFFCURVE",
"49 133 OFFCURVE",
"49 239 CURVE SMOOTH",
"49 376 OFFCURVE",
"138 499 OFFCURVE",
"275 499 CURVE SMOOTH",
"407 499 OFFCURVE",
"467 402 OFFCURVE",
"467 355 CURVE SMOOTH",
"467 338 OFFCURVE",
"457 321 OFFCURVE",
"436 309 CURVE SMOOTH",
"168 155 LINE",
"197 114 OFFCURVE",
"240 93 OFFCURVE",
"297 93 CURVE SMOOTH",
"330 93 OFFCURVE",
"374 112 OFFCURVE",
"396 135 CURVE SMOOTH",
"405 144 OFFCURVE",
"416 151 OFFCURVE",
"429 151 CURVE SMOOTH",
"456 151 OFFCURVE",
"476 131 OFFCURVE",
"476 104 CURVE SMOOTH",
"476 92 OFFCURVE",
"471 81 OFFCURVE",
"464 74 CURVE SMOOTH",
"435 43 OFFCURVE",
"401 24 OFFCURVE",
"370 7 CURVE SMOOTH",
"325 -17 OFFCURVE",
"289 -36 OFFCURVE",
"289 -75 CURVE SMOOTH",
"289 -95 OFFCURVE",
"302 -104 OFFCURVE",
"317 -104 CURVE SMOOTH",
"330 -104 OFFCURVE",
"345 -100 OFFCURVE",
"357 -90 CURVE SMOOTH",
"368 -82 OFFCURVE",
"376 -80 OFFCURVE",
"386 -80 CURVE SMOOTH",
"407 -80 OFFCURVE",
"430 -102 OFFCURVE",
"430 -126 CURVE SMOOTH",
"430 -168 OFFCURVE",
"356 -196 OFFCURVE",
"317 -196 CURVE SMOOTH"
);
},
{
closed = 1;
nodes = (
"366 372 LINE",
"350 394 OFFCURVE",
"321 405 OFFCURVE",
"275 405 CURVE SMOOTH",
"198 405 OFFCURVE",
"144 335 OFFCURVE",
"140 247 CURVE"
);
}
);
userData = {
com.fontlab.hintData = {
hhints = (
{
position = -196;
width = 92;
},
{
position = 405;
width = 94;
}
);
vhints = (
{
position = 49;
width = 91;
},
{
position = 198;
width = 91;
}
);
};
};
width = 547;
}
);
unicode = 0119;
},
{
glyphname = f;
layers = (
{
layerId = master01;
paths = (
{
closed = 1;
nodes = (
"110 501 LINE",
"116 630 OFFCURVE",
"177 673 OFFCURVE",
"314 673 CURVE SMOOTH",
"347 673 OFFCURVE",
"372 664 OFFCURVE",
"372 627 CURVE SMOOTH",
"372 602 OFFCURVE",
"355 580 OFFCURVE",
"325 580 CURVE SMOOTH",
"242 580 OFFCURVE",
"212 570 OFFCURVE",
"206 501 CURVE",
"308 500 LINE SMOOTH",
"328 500 OFFCURVE",
"353 480 OFFCURVE",
"353 454 CURVE SMOOTH",
"353 430 OFFCURVE",
"333 408 OFFCURVE",
"308 408 CURVE SMOOTH",
"205 408 LINE",
"205 46 LINE SMOOTH",
"205 22 OFFCURVE",
"182 0 OFFCURVE",
"157 0 CURVE SMOOTH",
"132 0 OFFCURVE",
"109 22 OFFCURVE",
"109 46 CURVE SMOOTH",
"109 408 LINE",
"63 408 LINE SMOOTH",
"39 408 OFFCURVE",
"17 430 OFFCURVE",
"17 454 CURVE SMOOTH",
"17 479 OFFCURVE",
"39 501 OFFCURVE",
"62 501 CURVE SMOOTH"
);
}
);
userData = {
com.fontlab.hintData = {
hhints = (
{
position = 0;
width = 21;
},
{
position = 408;
width = 93;
},
{
position = 580;
width = 93;
}
);
vhints = (
{
position = 109;
width = 96;
}
);
};
};
width = 397;
}
);
unicode = 0066;
},
{
glyphname = g;
layers = (
{
layerId = master01;
paths = (
{
closed = 1;
nodes = (
"104 -149 OFFCURVE",
"88 -130 OFFCURVE",
"88 -107 CURVE SMOOTH",
"88 -80 OFFCURVE",
"111 -59 OFFCURVE",
"136 -59 CURVE SMOOTH",
"146 -59 OFFCURVE",
"158 -61 OFFCURVE",
"170 -64 CURVE SMOOTH",
"195 -70 OFFCURVE",
"215 -72 OFFCURVE",
"242 -72 CURVE SMOOTH",
"321 -72 OFFCURVE",
"351 -27 OFFCURVE",
"354 45 CURVE",
"324 24 OFFCURVE",
"290 9 OFFCURVE",
"251 9 CURVE SMOOTH",
"134 9 OFFCURVE",
"48 105 OFFCURVE",
"48 242 CURVE SMOOTH",
"48 374 OFFCURVE",
"151 500 OFFCURVE",
"286 500 CURVE SMOOTH",
"317 500 OFFCURVE",
"346 491 OFFCURVE",
"369 482 CURVE",
"374 500 OFFCURVE",
"389 510 OFFCURVE",
"415 510 CURVE SMOOTH",
"441 510 OFFCURVE",
"463 498 OFFCURVE",
"462 461 CURVE SMOOTH",
"452 39 LINE SMOOTH",
"449 -104 OFFCURVE",
"362 -168 OFFCURVE",
"243 -168 CURVE SMOOTH",
"198 -168 OFFCURVE",
"155 -161 OFFCURVE",
"125 -154 CURVE SMOOTH"
);
},
{
closed = 1;
nodes = (
"361 386 LINE",
"343 396 OFFCURVE",
"314 404 OFFCURVE",
"290 404 CURVE SMOOTH",
"207 404 OFFCURVE",
"139 333 OFFCURVE",
"139 238 CURVE SMOOTH",
"139 182 OFFCURVE",
"168 103 OFFCURVE",
"244 103 CURVE SMOOTH",
"296 103 OFFCURVE",
"361 133 OFFCURVE",
"361 265 CURVE SMOOTH"
);
}
);
userData = {
com.fontlab.hintData = {
hhints = (
{
position = -168;
width = 96;
},
{
position = -154;
width = 95;
},
{
position = 9;
width = 94;
},
{
position = 404;
width = 96;
}
);
vhints = (
{
position = 48;
width = 91;
},
{
position = 354;
width = 98;
},
{
position = 361;
width = 101;
}
);
};
};
width = 547;
}
);
unicode = 0067;
},
{
glyphname = gcircumflex;
layers = (
{
layerId = master01;
paths = (
{
closed = 1;
nodes = (
"104 -149 OFFCURVE",
"88 -130 OFFCURVE",
"88 -107 CURVE SMOOTH",
"88 -80 OFFCURVE",
"111 -59 OFFCURVE",
"136 -59 CURVE SMOOTH",
"146 -59 OFFCURVE",
"158 -61 OFFCURVE",
"170 -64 CURVE SMOOTH",
"195 -70 OFFCURVE",
"215 -72 OFFCURVE",
"242 -72 CURVE SMOOTH",
"321 -72 OFFCURVE",
"351 -27 OFFCURVE",
"354 45 CURVE",
"324 24 OFFCURVE",
"290 9 OFFCURVE",
"251 9 CURVE SMOOTH",
"134 9 OFFCURVE",
"48 105 OFFCURVE",
"48 242 CURVE SMOOTH",
"48 374 OFFCURVE",
"151 500 OFFCURVE",
"286 500 CURVE SMOOTH",
"317 500 OFFCURVE",
"346 491 OFFCURVE",
"369 482 CURVE",
"374 500 OFFCURVE",
"389 510 OFFCURVE",
"415 510 CURVE SMOOTH",
"441 510 OFFCURVE",
"463 498 OFFCURVE",
"462 461 CURVE SMOOTH",
"452 39 LINE SMOOTH",
"449 -104 OFFCURVE",
"362 -168 OFFCURVE",
"243 -168 CURVE SMOOTH",
"198 -168 OFFCURVE",
"155 -161 OFFCURVE",
"125 -154 CURVE SMOOTH"
);
},
{
closed = 1;
nodes = (
"361 386 LINE",
"343 396 OFFCURVE",
"314 404 OFFCURVE",
"290 404 CURVE SMOOTH",
"207 404 OFFCURVE",
"139 333 OFFCURVE",
"139 238 CURVE SMOOTH",
"139 182 OFFCURVE",
"168 103 OFFCURVE",
"244 103 CURVE SMOOTH",
"296 103 OFFCURVE",
"361 133 OFFCURVE",
"361 265 CURVE SMOOTH"
);
},
{
closed = 1;
nodes = (
"265 726 LINE SMOOTH",
"276 735 OFFCURVE",
"288 738 OFFCURVE",
"297 738 CURVE SMOOTH",
"309 738 OFFCURVE",
"323 732 OFFCURVE",
"335 720 CURVE SMOOTH",
"431 624 LINE SMOOTH",
"441 614 OFFCURVE",
"445 603 OFFCURVE",
"445 590 CURVE SMOOTH",
"445 565 OFFCURVE",
"424 543 OFFCURVE",
"399 543 CURVE SMOOTH",
"387 543 OFFCURVE",
"377 545 OFFCURVE",
"366 555 CURVE SMOOTH",
"293 621 LINE",
"204 552 LINE SMOOTH",
"193 544 OFFCURVE",
"185 543 OFFCURVE",
"175 543 CURVE SMOOTH",
"150 543 OFFCURVE",
"128 563 OFFCURVE",
"128 590 CURVE SMOOTH",
"128 603 OFFCURVE",
"134 616 OFFCURVE",
"146 626 CURVE SMOOTH"
);
}
);
userData = {
com.fontlab.hintData = {
hhints = (
{
position = -168;
width = 96;
},
{
position = -154;
width = 95;
},
{
position = 9;
width = 94;
},
{
position = 404;
width = 96;
}
);
vhints = (
{
position = 48;
width = 91;
},
{
position = 354;
width = 98;
},
{
position = 361;
width = 101;
}
);
};
};
width = 547;
}
);
unicode = 011D;
},
{
glyphname = h;
layers = (
{
layerId = master01;
paths = (
{
closed = 1;
nodes = (
"455 20 OFFCURVE",
"435 0 OFFCURVE",
"409 0 CURVE SMOOTH",
"380 0 OFFCURVE",
"362 21 OFFCURVE",
"362 47 CURVE SMOOTH",
"362 73 OFFCURVE",
"364 100 OFFCURVE",
"364 163 CURVE SMOOTH",
"364 380 OFFCURVE",
"333 406 OFFCURVE",
"310 406 CURVE SMOOTH",
"245 406 OFFCURVE",
"183 297 OFFCURVE",
"169 269 CURVE SMOOTH",
"160 249 OFFCURVE",
"157 225 OFFCURVE",
"157 198 CURVE SMOOTH",
"157 49 LINE SMOOTH",
"157 17 OFFCURVE",
"135 -1 OFFCURVE",
"109 -1 CURVE SMOOTH",
"84 -1 OFFCURVE",
"61 22 OFFCURVE",
"61 47 CURVE SMOOTH",
"61 623 LINE SMOOTH",
"61 649 OFFCURVE",
"82 672 OFFCURVE",
"109 672 CURVE SMOOTH",
"138 672 OFFCURVE",
"157 649 OFFCURVE",
"157 623 CURVE SMOOTH",
"157 408 LINE",
"199 461 OFFCURVE",
"257 501 OFFCURVE",
"316 501 CURVE SMOOTH",
"424 501 OFFCURVE",
"459 391 OFFCURVE",
"459 170 CURVE SMOOTH",
"459 109 OFFCURVE",
"459 73 OFFCURVE",
"456 45 CURVE"
);
}
);
userData = {
com.fontlab.hintData = {
hhints = (
{
position = -1;
width = 22;
},
{
position = 406;
width = 95;
}
);
vhints = (
{
position = 61;
width = 96;
},
{
position = 362;
width = 97;
}
);
};
};
width = 529;
}
);
unicode = 0068;
},
{
glyphname = hcircumflex;
layers = (
{
layerId = master01;
paths = (
{
closed = 1;
nodes = (
"455 20 OFFCURVE",
"435 0 OFFCURVE",
"409 0 CURVE SMOOTH",
"380 0 OFFCURVE",
"362 21 OFFCURVE",
"362 47 CURVE SMOOTH",
"362 73 OFFCURVE",
"364 100 OFFCURVE",
"364 163 CURVE SMOOTH",
"364 380 OFFCURVE",
"333 406 OFFCURVE",
"310 406 CURVE SMOOTH",
"245 406 OFFCURVE",
"183 297 OFFCURVE",
"169 269 CURVE SMOOTH",
"160 249 OFFCURVE",
"157 225 OFFCURVE",
"157 198 CURVE SMOOTH",
"157 49 LINE SMOOTH",
"157 17 OFFCURVE",
"135 -1 OFFCURVE",
"109 -1 CURVE SMOOTH",
"84 -1 OFFCURVE",
"61 22 OFFCURVE",
"61 47 CURVE SMOOTH",
"61 623 LINE SMOOTH",
"61 649 OFFCURVE",
"82 672 OFFCURVE",
"109 672 CURVE SMOOTH",
"138 672 OFFCURVE",
"157 649 OFFCURVE",
"157 623 CURVE SMOOTH",
"157 408 LINE",
"199 461 OFFCURVE",
"257 501 OFFCURVE",
"316 501 CURVE SMOOTH",
"424 501 OFFCURVE",
"459 391 OFFCURVE",
"459 170 CURVE SMOOTH",
"459 109 OFFCURVE",
"459 73 OFFCURVE",
"456 45 CURVE SMOOTH"
);
},
{
closed = 1;
nodes = (
"225 886 LINE SMOOTH",
"236 895 OFFCURVE",
"248 898 OFFCURVE",
"257 898 CURVE SMOOTH",
"269 898 OFFCURVE",
"283 892 OFFCURVE",
"295 880 CURVE SMOOTH",
"391 784 LINE SMOOTH",
"401 774 OFFCURVE",
"405 763 OFFCURVE",
"405 750 CURVE SMOOTH",
"405 725 OFFCURVE",
"384 703 OFFCURVE",
"359 703 CURVE SMOOTH",
"347 703 OFFCURVE",
"337 705 OFFCURVE",
"326 715 CURVE SMOOTH",
"253 781 LINE",
"164 712 LINE SMOOTH",
"153 704 OFFCURVE",
"145 703 OFFCURVE",
"135 703 CURVE SMOOTH",
"110 703 OFFCURVE",
"88 723 OFFCURVE",
"88 750 CURVE SMOOTH",
"88 763 OFFCURVE",
"94 776 OFFCURVE",
"106 786 CURVE SMOOTH"
);
}
);
userData = {
com.fontlab.hintData = {
hhints = (
{
position = -1;
width = 22;
},
{
position = 406;
width = 95;
}
);
vhints = (
{
position = 61;
width = 96;
},
{
position = 362;
width = 97;
}
);
};
};
width = 529;
}
);
unicode = 0125;
},
{
glyphname = i;
layers = (
{
layerId = master01;
paths = (
{
closed = 1;
nodes = (
"162 49 LINE SMOOTH",
"162 22 OFFCURVE",
"140 0 OFFCURVE",
"113 0 CURVE SMOOTH",
"86 0 OFFCURVE",
"64 22 OFFCURVE",
"64 49 CURVE SMOOTH",
"69 447 LINE SMOOTH",
"69 474 OFFCURVE",
"91 496 OFFCURVE",
"118 496 CURVE SMOOTH",
"146 496 OFFCURVE",
"167 474 OFFCURVE",
"167 447 CURVE SMOOTH"
);
},
{
closed = 1;
nodes = (
"92 541 OFFCURVE",
"70 564 OFFCURVE",
"71 590 CURVE SMOOTH",
"72 627 LINE SMOOTH",
"73 653 OFFCURVE",
"95 674 OFFCURVE",
"120 674 CURVE SMOOTH",
"146 674 OFFCURVE",
"168 650 OFFCURVE",
"167 626 CURVE SMOOTH",
"166 588 LINE SMOOTH",
"165 561 OFFCURVE",
"145 541 OFFCURVE",
"118 541 CURVE SMOOTH"
);
}
);
userData = {
com.fontlab.hintData = {
hhints = (
{
position = 0;
width = 21;
},
{
position = 541;
width = 133;
}
);
vhints = (
{
position = 69;
width = 98;
}
);
};
};
width = 245;
}
);
unicode = 0069;
},
{
glyphname = iacute;
layers = (
{
layerId = master01;
paths = (
{
closed = 1;
nodes = (
"162 49 LINE SMOOTH",
"162 22 OFFCURVE",
"140 0 OFFCURVE",
"113 0 CURVE SMOOTH",
"86 0 OFFCURVE",
"64 22 OFFCURVE",
"64 49 CURVE SMOOTH",
"69 447 LINE SMOOTH",
"69 474 OFFCURVE",
"91 496 OFFCURVE",
"119 496 CURVE SMOOTH",
"146 496 OFFCURVE",
"168 474 OFFCURVE",
"168 447 CURVE SMOOTH"
);
},
{
closed = 1;
nodes = (
"138 703 LINE SMOOTH",
"148 711 OFFCURVE",
"162 722 OFFCURVE",
"179 722 CURVE SMOOTH",
"209 722 OFFCURVE",
"232 698 OFFCURVE",
"232 667 CURVE SMOOTH",
"232 652 OFFCURVE",
"227 637 OFFCURVE",
"213 627 CURVE SMOOTH",
"89 542 LINE SMOOTH",
"79 535 OFFCURVE",
"67 529 OFFCURVE",
"56 529 CURVE SMOOTH",
"32 529 OFFCURVE",
"10 550 OFFCURVE",
"10 577 CURVE SMOOTH",
"10 588 OFFCURVE",
"12 601 OFFCURVE",
"23 610 CURVE SMOOTH"
);
}
);
userData = {
com.fontlab.hintData = {
hhints = (
{
position = 0;
width = 21;
}
);
vhints = (
{
position = 64;
width = 98;
}
);
};
};
width = 245;
}
);
unicode = 00ED;
},
{
glyphname = icircumflex;
layers = (
{
layerId = master01;
paths = (
{
closed = 1;
nodes = (
"185 49 LINE SMOOTH",
"185 22 OFFCURVE",
"163 0 OFFCURVE",
"136 0 CURVE SMOOTH",
"109 0 OFFCURVE",
"87 22 OFFCURVE",
"87 49 CURVE SMOOTH",
"92 447 LINE SMOOTH",
"92 474 OFFCURVE",
"114 496 OFFCURVE",
"141 496 CURVE SMOOTH",
"169 496 OFFCURVE",
"190 474 OFFCURVE",
"190 447 CURVE SMOOTH"
);
},
{
closed = 1;
nodes = (
"120 726 LINE SMOOTH",
"131 735 OFFCURVE",
"143 738 OFFCURVE",
"152 738 CURVE SMOOTH",
"164 738 OFFCURVE",
"178 732 OFFCURVE",
"190 720 CURVE SMOOTH",
"286 624 LINE SMOOTH",
"296 614 OFFCURVE",
"300 603 OFFCURVE",
"300 590 CURVE SMOOTH",
"300 565 OFFCURVE",
"279 543 OFFCURVE",
"254 543 CURVE SMOOTH",
"242 543 OFFCURVE",
"232 545 OFFCURVE",
"221 555 CURVE SMOOTH",
"148 621 LINE",
"59 552 LINE SMOOTH",
"48 544 OFFCURVE",
"40 543 OFFCURVE",
"30 543 CURVE SMOOTH",
"5 543 OFFCURVE",
"-17 563 OFFCURVE",
"-17 590 CURVE SMOOTH",
"-17 603 OFFCURVE",
"-11 616 OFFCURVE",
"1 626 CURVE SMOOTH"
);
}
);
userData = {
com.fontlab.hintData = {
hhints = (
{
position = 0;
width = 21;
}
);
vhints = (
{
position = 87;
width = 98;
}
);
};
};
width = 285;
}
);
unicode = 00EE;
},
{
glyphname = idieresis;
layers = (
{
layerId = master01;
paths = (
{
closed = 1;
nodes = (
"190 49 LINE SMOOTH",
"190 22 OFFCURVE",
"168 0 OFFCURVE",
"141 0 CURVE SMOOTH",
"114 0 OFFCURVE",
"92 22 OFFCURVE",
"92 49 CURVE SMOOTH",
"97 447 LINE SMOOTH",
"97 474 OFFCURVE",
"119 496 OFFCURVE",
"146 496 CURVE SMOOTH",
"173 496 OFFCURVE",
"195 474 OFFCURVE",
"195 447 CURVE SMOOTH"
);
},
{
closed = 1;
nodes = (
"124 571 OFFCURVE",
"94 543 OFFCURVE",
"54 543 CURVE SMOOTH",
"19 543 OFFCURVE",
"-9 567 OFFCURVE",
"-9 601 CURVE SMOOTH",
"-9 634 OFFCURVE",
"22 664 OFFCURVE",
"60 664 CURVE SMOOTH",
"93 664 OFFCURVE",
"124 639 OFFCURVE",
"124 606 CURVE SMOOTH"
);
},
{
closed = 1;
nodes = (
"308 571 OFFCURVE",
"278 543 OFFCURVE",
"239 543 CURVE SMOOTH",
"203 543 OFFCURVE",
"175 567 OFFCURVE",
"175 601 CURVE SMOOTH",
"175 634 OFFCURVE",
"206 664 OFFCURVE",
"244 664 CURVE SMOOTH",
"277 664 OFFCURVE",
"308 639 OFFCURVE",
"308 606 CURVE SMOOTH"
);
}
);
userData = {
com.fontlab.hintData = {
hhints = (
{
position = 0;
width = 21;
},
{
position = 543;
width = 121;
}
);
vhints = (
{
position = -9;
width = 133;
},
{
position = 92;
width = 98;
},
{
position = 175;
width = 133;
}
);
};
};
width = 309;
}
);
unicode = 00EF;
},
{
glyphname = igrave;
layers = (
{
layerId = master01;
paths = (
{
closed = 1;
nodes = (
"162 49 LINE SMOOTH",
"162 22 OFFCURVE",
"140 0 OFFCURVE",
"113 0 CURVE SMOOTH",
"86 0 OFFCURVE",
"64 22 OFFCURVE",
"64 49 CURVE SMOOTH",
"70 447 LINE SMOOTH",
"70 474 OFFCURVE",
"91 496 OFFCURVE",
"119 496 CURVE SMOOTH",
"146 496 OFFCURVE",
"168 474 OFFCURVE",
"168 447 CURVE SMOOTH"
);
},
{
closed = 1;
nodes = (
"33 654 LINE SMOOTH",
"23 664 OFFCURVE",
"17 676 OFFCURVE",
"17 692 CURVE SMOOTH",
"17 720 OFFCURVE",
"43 746 OFFCURVE",
"71 746 CURVE SMOOTH",
"89 746 OFFCURVE",
"105 736 OFFCURVE",
"115 724 CURVE SMOOTH",
"210 605 LINE SMOOTH",
"219 593 OFFCURVE",
"222 585 OFFCURVE",
"222 575 CURVE SMOOTH",
"222 548 OFFCURVE",
"198 528 OFFCURVE",
"174 528 CURVE SMOOTH",
"159 528 OFFCURVE",
"148 534 OFFCURVE",
"140 543 CURVE SMOOTH"
);
}
);
userData = {
com.fontlab.hintData = {
hhints = (
{
position = 0;
width = 21;
}
);
vhints = (
{
position = 64;
width = 98;
}
);
};
};
width = 245;
}
);
unicode = 00EC;
},
{
glyphname = j;
layers = (
{
layerId = master01;
paths = (
{
closed = 1;
nodes = (
"94 -24 OFFCURVE",
"120 -73 OFFCURVE",
"150 -73 CURVE SMOOTH",
"184 -73 OFFCURVE",
"186 -10 OFFCURVE",
"186 16 CURVE SMOOTH",
"186 28 OFFCURVE",
"184 122 OFFCURVE",
"183 220 CURVE SMOOTH",
"182 328 OFFCURVE",
"180 437 OFFCURVE",
"180 452 CURVE SMOOTH",
"180 480 OFFCURVE",
"199 501 OFFCURVE",
"228 501 CURVE SMOOTH",
"253 501 OFFCURVE",
"276 479 OFFCURVE",
"276 453 CURVE SMOOTH",
"276 445 OFFCURVE",
"278 362 OFFCURVE",
"279 272 CURVE SMOOTH",
"281 164 OFFCURVE",
"281 35 OFFCURVE",
"281 21 CURVE SMOOTH",
"281 -45 OFFCURVE",
"262 -164 OFFCURVE",
"152 -164 CURVE SMOOTH",
"48 -164 OFFCURVE",
"-2 -43 OFFCURVE",
"-10 -20 CURVE SMOOTH",
"-11 -16 OFFCURVE",
"-13 -9 OFFCURVE",
"-13 -3 CURVE SMOOTH",
"-13 22 OFFCURVE",
"7 45 OFFCURVE",
"36 45 CURVE SMOOTH",
"61 45 OFFCURVE",
"76 31 OFFCURVE",
"82 11 CURVE SMOOTH"
);
},
{
closed = 1;
nodes = (
"280 588 LINE SMOOTH",
"278 562 OFFCURVE",
"252 549 OFFCURVE",
"231 549 CURVE SMOOTH",
"203 549 OFFCURVE",
"183 574 OFFCURVE",
"185 599 CURVE SMOOTH",
"189 642 LINE SMOOTH",
"192 667 OFFCURVE",
"214 682 OFFCURVE",
"237 682 CURVE SMOOTH",
"268 682 OFFCURVE",
"286 655 OFFCURVE",
"284 631 CURVE SMOOTH"
);
}
);
userData = {
com.fontlab.hintData = {
hhints = (
{
position = -164;
width = 91;
},
{
position = 481;
width = 20;
},
{
position = 549;
width = 133;
}
);
vhints = (
{
position = -13;
width = 95;
},
{
position = 185;
width = 95;
},
{
position = 186;
width = 95;
}
);
};
};
width = 359;
}
);
unicode = 006A;
},
{
glyphname = jcircumflex;
layers = (
{
layerId = master01;
paths = (
{
closed = 1;
nodes = (
"94 -24 OFFCURVE",
"120 -73 OFFCURVE",
"150 -73 CURVE SMOOTH",
"184 -73 OFFCURVE",
"186 -10 OFFCURVE",
"186 16 CURVE SMOOTH",
"186 28 OFFCURVE",
"184 122 OFFCURVE",
"183 220 CURVE SMOOTH",
"182 328 OFFCURVE",
"180 437 OFFCURVE",
"180 452 CURVE SMOOTH",
"180 480 OFFCURVE",
"199 501 OFFCURVE",
"228 501 CURVE SMOOTH",
"253 501 OFFCURVE",
"276 479 OFFCURVE",
"276 453 CURVE SMOOTH",
"276 445 OFFCURVE",
"278 362 OFFCURVE",
"279 272 CURVE SMOOTH",
"281 164 OFFCURVE",
"281 35 OFFCURVE",
"281 21 CURVE SMOOTH",
"281 -45 OFFCURVE",
"262 -164 OFFCURVE",
"152 -164 CURVE SMOOTH",
"48 -164 OFFCURVE",
"-2 -43 OFFCURVE",
"-10 -20 CURVE SMOOTH",
"-11 -16 OFFCURVE",
"-13 -9 OFFCURVE",
"-13 -3 CURVE SMOOTH",
"-13 22 OFFCURVE",
"7 45 OFFCURVE",
"36 45 CURVE SMOOTH",
"61 45 OFFCURVE",
"76 31 OFFCURVE",
"82 11 CURVE SMOOTH"
);
},
{
closed = 1;
nodes = (
"190 726 LINE SMOOTH",
"201 735 OFFCURVE",
"213 738 OFFCURVE",
"222 738 CURVE SMOOTH",
"234 738 OFFCURVE",
"248 732 OFFCURVE",
"260 720 CURVE SMOOTH",
"356 624 LINE SMOOTH",
"366 614 OFFCURVE",
"370 603 OFFCURVE",
"370 590 CURVE SMOOTH",
"370 565 OFFCURVE",
"349 543 OFFCURVE",
"324 543 CURVE SMOOTH",
"312 543 OFFCURVE",
"302 545 OFFCURVE",
"291 555 CURVE SMOOTH",
"218 621 LINE",
"129 552 LINE SMOOTH",
"118 544 OFFCURVE",
"110 543 OFFCURVE",
"100 543 CURVE SMOOTH",
"75 543 OFFCURVE",
"53 563 OFFCURVE",
"53 590 CURVE SMOOTH",
"53 603 OFFCURVE",
"59 616 OFFCURVE",
"71 626 CURVE SMOOTH"
);
}
);
userData = {
com.fontlab.hintData = {
hhints = (
{
position = -164;
width = 91;
},
{
position = 481;
width = 20;
}
);
vhints = (
{
position = -13;
width = 95;
},
{
position = 186;
width = 95;
}
);
};
};
width = 359;
}
);
unicode = 0135;
},
{
glyphname = k;
layers = (
{
layerId = master01;
paths = (
{
closed = 1;
nodes = (
"461 77 OFFCURVE",
"468 67 OFFCURVE",
"468 53 CURVE SMOOTH",
"468 26 OFFCURVE",
"449 3 OFFCURVE",
"420 3 CURVE SMOOTH",
"405 3 OFFCURVE",
"391 9 OFFCURVE",
"382 20 CURVE SMOOTH",
"327 94 OFFCURVE",
"247 197 OFFCURVE",
"218 233 CURVE",
"196 216 OFFCURVE",
"174 202 OFFCURVE",
"160 193 CURVE",
"160 48 LINE SMOOTH",
"160 23 OFFCURVE",
"139 0 OFFCURVE",
"111 0 CURVE SMOOTH",
"86 0 OFFCURVE",
"63 23 OFFCURVE",
"63 48 CURVE SMOOTH",
"61 625 LINE SMOOTH",
"61 651 OFFCURVE",
"84 672 OFFCURVE",
"110 672 CURVE SMOOTH",
"139 672 OFFCURVE",
"158 649 OFFCURVE",
"158 623 CURVE SMOOTH",
"159 299 LINE",
"214 346 OFFCURVE",
"299 432 OFFCURVE",
"352 496 CURVE SMOOTH",
"361 507 OFFCURVE",
"373 516 OFFCURVE",
"391 516 CURVE SMOOTH",
"418 516 OFFCURVE",
"438 496 OFFCURVE",
"438 470 CURVE SMOOTH",
"438 457 OFFCURVE",
"433 447 OFFCURVE",
"428 441 CURVE SMOOTH",
"391 392 OFFCURVE",
"331 329 OFFCURVE",
"290 291 CURVE",
"358 206 OFFCURVE",
"420 128 OFFCURVE",
"455 84 CURVE SMOOTH"
);
}
);
userData = {
com.fontlab.hintData = {
hhints = (
{
position = 0;
width = 21;
}
);
vhints = (
{
position = 63;
width = 97;
}
);
};
};
width = 520;
}
);
unicode = 006B;
},
{
glyphname = l;
layers = (
{
layerId = master01;
paths = (
{
closed = 1;
nodes = (
"170 45 LINE SMOOTH",
"170 20 OFFCURVE",
"145 0 OFFCURVE",
"122 0 CURVE SMOOTH",
"97 0 OFFCURVE",
"74 20 OFFCURVE",
"74 45 CURVE SMOOTH",
"74 625 LINE SMOOTH",
"74 651 OFFCURVE",
"94 672 OFFCURVE",
"122 672 CURVE SMOOTH",
"147 672 OFFCURVE",
"170 651 OFFCURVE",
"170 625 CURVE SMOOTH"
);
}
);
userData = {
com.fontlab.hintData = {
hhints = (
{
position = 0;
width = 21;
}
);
vhints = (
{
position = 74;
width = 96;
}
);
};
};
width = 252;
}
);
unicode = 006C;
},
